<ttFont>
    <TTGlyph name="A" xMin="0" yMin="0" xMax="1229" yMax="1468">
      <contour>
        <pt x="1229" y="0" on="1"/>
        <pt x="1114" y="0" on="1"/>
        <pt x="911" y="516" on="1"/>
        <pt x="317" y="516" on="1"/>
        <pt x="113" y="0" on="1"/>
        <pt x="0" y="0" on="1"/>
        <pt x="588" y="1468" on="1"/>
        <pt x="653" y="1468" on="1"/>
      </contour>
      <contour>
        <pt x="877" y="608" on="1"/>
        <pt x="678" y="1135" on="1"/>
        <pt x="654" y="1193" on="0"/>
        <pt x="618" y="1307" on="1"/>
        <pt x="592" y="1215" on="0"/>
        <pt x="559" y="1133" on="1"/>
        <pt x="354" y="608" on="1"/>
      </contour>
    </TTGlyph>
    <TTGlyph name="AE" xMin="-2" yMin="0" xMax="1528" yMax="1462">
      <contour>
        <pt x="1528" y="1368" on="1"/>
        <pt x="913" y="1368" on="1"/>
        <pt x="913" y="815" on="1"/>
        <pt x="1489" y="815" on="1"/>
        <pt x="1489" y="721" on="1"/>
        <pt x="913" y="721" on="1"/>
        <pt x="913" y="94" on="1"/>
        <pt x="1528" y="94" on="1"/>
        <pt x="1528" y="0" on="1"/>
        <pt x="811" y="0" on="1"/>
        <pt x="811" y="516" on="1"/>
        <pt x="336" y="516" on="1"/>
        <pt x="109" y="0" on="1"/>
        <pt x="-2" y="0" on="1"/>
        <pt x="651" y="1462" on="1"/>
        <pt x="1528" y="1462" on="1"/>
      </contour>
      <contour>
        <pt x="811" y="608" on="1"/>
        <pt x="811" y="1368" on="1"/>
        <pt x="711" y="1368" on="1"/>
        <pt x="377" y="608" on="1"/>
      </contour>
    </TTGlyph>
    <TTGlyph name="Aacute" xMin="0" yMin="0" xMax="1229" yMax="1907">
      <contour>
        <pt x="887" y="1907" on="1"/>
        <pt x="887" y="1890" on="1"/>
        <pt x="851" y="1838" on="0"/>
        <pt x="677" y="1665" on="0"/>
        <pt x="574" y="1579" on="1"/>
        <pt x="504" y="1579" on="1"/>
        <pt x="504" y="1595" on="1"/>
        <pt x="576" y="1673" on="0"/>
        <pt x="719" y="1858" on="0"/>
        <pt x="746" y="1907" on="1"/>
      </contour>
      <contour>
        <pt x="1229" y="0" on="1"/>
        <pt x="1114" y="0" on="1"/>
        <pt x="911" y="516" on="1"/>
        <pt x="317" y="516" on="1"/>
        <pt x="113" y="0" on="1"/>
        <pt x="0" y="0" on="1"/>
        <pt x="588" y="1468" on="1"/>
        <pt x="653" y="1468" on="1"/>
      </contour>
      <contour>
        <pt x="877" y="608" on="1"/>
        <pt x="678" y="1135" on="1"/>
        <pt x="654" y="1193" on="0"/>
        <pt x="618" y="1307" on="1"/>
        <pt x="592" y="1215" on="0"/>
        <pt x="559" y="1133" on="1"/>
        <pt x="354" y="608" on="1"/>
      </contour>
    </TTGlyph>
    <TTGlyph name="Acircumflex" xMin="0" yMin="0" xMax="1229" yMax="1907">
      <contour>
        <pt x="910" y="1579" on="1"/>
        <pt x="840" y="1579" on="1"/>
        <pt x="716" y="1681" on="0"/>
        <pt x="619" y="1786" on="1"/>
        <pt x="513" y="1674" on="0"/>
        <pt x="398" y="1579" on="1"/>
        <pt x="328" y="1579" on="1"/>
        <pt x="328" y="1595" on="1"/>
        <pt x="390" y="1662" on="0"/>
        <pt x="529" y="1840" on="0"/>
        <pt x="570" y="1907" on="1"/>
        <pt x="668" y="1907" on="1"/>
        <pt x="735" y="1788" on="0"/>
        <pt x="910" y="1595" on="1"/>
      </contour>
      <contour>
        <pt x="1229" y="0" on="1"/>
        <pt x="1114" y="0" on="1"/>
        <pt x="911" y="516" on="1"/>
        <pt x="317" y="516" on="1"/>
        <pt x="113" y="0" on="1"/>
        <pt x="0" y="0" on="1"/>
        <pt x="588" y="1468" on="1"/>
        <pt x="653" y="1468" on="1"/>
      </contour>
      <contour>
        <pt x="877" y="608" on="1"/>
        <pt x="678" y="1135" on="1"/>
        <pt x="654" y="1193" on="0"/>
        <pt x="618" y="1307" on="1"/>
        <pt x="592" y="1215" on="0"/>
        <pt x="559" y="1133" on="1"/>
        <pt x="354" y="608" on="1"/>
      </contour>
    </TTGlyph>
    <TTGlyph name="Adieresis" xMin="0" yMin="0" xMax="1229" yMax="1813">
      <contour>
        <pt x="430" y="1813" on="1"/>
        <pt x="494" y="1813" on="0"/>
        <pt x="494" y="1641" on="0"/>
        <pt x="367" y="1641" on="0"/>
        <pt x="367" y="1727" on="1"/>
        <pt x="367" y="1772" on="0"/>
        <pt x="397" y="1813" on="0"/>
      </contour>
      <contour>
        <pt x="811" y="1813" on="1"/>
        <pt x="875" y="1813" on="0"/>
        <pt x="875" y="1641" on="0"/>
        <pt x="748" y="1641" on="0"/>
        <pt x="748" y="1727" on="1"/>
        <pt x="748" y="1772" on="0"/>
        <pt x="778" y="1813" on="0"/>
      </contour>
      <contour>
        <pt x="1229" y="0" on="1"/>
        <pt x="1114" y="0" on="1"/>
        <pt x="911" y="516" on="1"/>
        <pt x="317" y="516" on="1"/>
        <pt x="113" y="0" on="1"/>
        <pt x="0" y="0" on="1"/>
        <pt x="588" y="1468" on="1"/>
        <pt x="653" y="1468" on="1"/>
      </contour>
      <contour>
        <pt x="877" y="608" on="1"/>
        <pt x="678" y="1135" on="1"/>
        <pt x="654" y="1193" on="0"/>
        <pt x="618" y="1307" on="1"/>
        <pt x="592" y="1215" on="0"/>
        <pt x="559" y="1133" on="1"/>
        <pt x="354" y="608" on="1"/>
      </contour>
    </TTGlyph>
    <TTGlyph name="Agrave" xMin="0" yMin="0" xMax="1229" yMax="1907">
      <contour>
        <pt x="337" y="1907" on="1"/>
        <pt x="479" y="1907" on="1"/>
        <pt x="505" y="1859" on="0"/>
        <pt x="651" y="1670" on="0"/>
        <pt x="720" y="1595" on="1"/>
        <pt x="720" y="1579" on="1"/>
        <pt x="651" y="1579" on="1"/>
        <pt x="557" y="1656" on="0"/>
        <pt x="371" y="1841" on="0"/>
        <pt x="337" y="1890" on="1"/>
      </contour>
      <contour>
        <pt x="1229" y="0" on="1"/>
        <pt x="1114" y="0" on="1"/>
        <pt x="911" y="516" on="1"/>
        <pt x="317" y="516" on="1"/>
        <pt x="113" y="0" on="1"/>
        <pt x="0" y="0" on="1"/>
        <pt x="588" y="1468" on="1"/>
        <pt x="653" y="1468" on="1"/>
      </contour>
      <contour>
        <pt x="877" y="608" on="1"/>
        <pt x="678" y="1135" on="1"/>
        <pt x="654" y="1193" on="0"/>
        <pt x="618" y="1307" on="1"/>
        <pt x="592" y="1215" on="0"/>
        <pt x="559" y="1133" on="1"/>
        <pt x="354" y="608" on="1"/>
      </contour>
    </TTGlyph>
    <TTGlyph name="Aring" xMin="0" yMin="0" xMax="1229" yMax="1821">
      <contour>
        <pt x="488" y="1419" on="0"/>
        <pt x="402" y="1529" on="0"/>
        <pt x="402" y="1704" on="0"/>
        <pt x="522" y="1821" on="0"/>
        <pt x="715" y="1821" on="0"/>
        <pt x="836" y="1703" on="0"/>
        <pt x="836" y="1530" on="0"/>
        <pt x="751" y="1420" on="0"/>
        <pt x="678" y="1403" on="1"/>
        <pt x="1229" y="0" on="1"/>
        <pt x="1114" y="0" on="1"/>
        <pt x="911" y="516" on="1"/>
        <pt x="317" y="516" on="1"/>
        <pt x="113" y="0" on="1"/>
        <pt x="0" y="0" on="1"/>
        <pt x="562" y="1403" on="1"/>
      </contour>
      <contour>
        <pt x="557" y="1749" on="0"/>
        <pt x="482" y="1673" on="0"/>
        <pt x="482" y="1544" on="0"/>
        <pt x="556" y="1469" on="0"/>
        <pt x="682" y="1469" on="0"/>
        <pt x="756" y="1544" on="0"/>
        <pt x="756" y="1673" on="0"/>
        <pt x="679" y="1749" on="0"/>
      </contour>
      <contour>
        <pt x="877" y="608" on="1"/>
        <pt x="678" y="1135" on="1"/>
        <pt x="654" y="1193" on="0"/>
        <pt x="618" y="1307" on="1"/>
        <pt x="592" y="1215" on="0"/>
        <pt x="559" y="1133" on="1"/>
        <pt x="354" y="608" on="1"/>
      </contour>
    </TTGlyph>
    <TTGlyph name="Atilde" xMin="0" yMin="0" xMax="1229" yMax="1819">
      <contour>
        <pt x="784" y="1581" on="1"/>
        <pt x="746" y="1581" on="0"/>
        <pt x="668" y="1620" on="0"/>
        <pt x="581" y="1693" on="0"/>
        <pt x="565" y="1704" on="1"/>
        <pt x="520" y="1737" on="0"/>
        <pt x="437" y="1737" on="0"/>
        <pt x="378" y="1666" on="0"/>
        <pt x="360" y="1581" on="1"/>
        <pt x="287" y="1581" on="1"/>
        <pt x="297" y="1692" on="0"/>
        <pt x="403" y="1819" on="0"/>
        <pt x="487" y="1819" on="1"/>
        <pt x="517" y="1819" on="0"/>
        <pt x="580" y="1793" on="0"/>
        <pt x="621" y="1764" on="0"/>
        <pt x="686" y="1711" on="0"/>
        <pt x="702" y="1698" on="1"/>
        <pt x="749" y="1663" on="0"/>
        <pt x="784" y="1663" on="1"/>
        <pt x="877" y="1663" on="0"/>
        <pt x="909" y="1819" on="1"/>
        <pt x="985" y="1819" on="1"/>
        <pt x="969" y="1704" on="0"/>
        <pt x="864" y="1581" on="0"/>
      </contour>
      <contour>
        <pt x="1229" y="0" on="1"/>
        <pt x="1114" y="0" on="1"/>
        <pt x="911" y="516" on="1"/>
        <pt x="317" y="516" on="1"/>
        <pt x="113" y="0" on="1"/>
        <pt x="0" y="0" on="1"/>
        <pt x="588" y="1468" on="1"/>
        <pt x="653" y="1468" on="1"/>
      </contour>
      <contour>
        <pt x="877" y="608" on="1"/>
        <pt x="678" y="1135" on="1"/>
        <pt x="654" y="1193" on="0"/>
        <pt x="618" y="1307" on="1"/>
        <pt x="592" y="1215" on="0"/>
        <pt x="559" y="1133" on="1"/>
        <pt x="354" y="608" on="1"/>
      </contour>
    </TTGlyph>
    <TTGlyph name="B" xMin="207" yMin="0" xMax="1169" yMax="1462">
      <contour>
        <pt x="207" y="1462" on="1"/>
        <pt x="608" y="1462" on="1"/>
        <pt x="876" y="1462" on="0"/>
        <pt x="1133" y="1279" on="0"/>
        <pt x="1133" y="1092" on="1"/>
        <pt x="1133" y="964" on="0"/>
        <pt x="977" y="796" on="0"/>
        <pt x="829" y="772" on="1"/>
        <pt x="829" y="766" on="1"/>
        <pt x="1004" y="740" on="0"/>
        <pt x="1169" y="571" on="0"/>
        <pt x="1169" y="420" on="1"/>
        <pt x="1169" y="219" on="0"/>
        <pt x="902" y="0" on="0"/>
        <pt x="655" y="0" on="1"/>
        <pt x="207" y="0" on="1"/>
      </contour>
      <contour>
        <pt x="309" y="1372" on="1"/>
        <pt x="309" y="811" on="1"/>
        <pt x="631" y="811" on="1"/>
        <pt x="836" y="811" on="0"/>
        <pt x="1024" y="947" on="0"/>
        <pt x="1024" y="1238" on="0"/>
        <pt x="816" y="1372" on="0"/>
        <pt x="604" y="1372" on="1"/>
      </contour>
      <contour>
        <pt x="309" y="721" on="1"/>
        <pt x="309" y="90" on="1"/>
        <pt x="653" y="90" on="1"/>
        <pt x="1059" y="90" on="0"/>
        <pt x="1059" y="420" on="1"/>
        <pt x="1059" y="721" on="0"/>
        <pt x="631" y="721" on="1"/>
      </contour>
    </TTGlyph>
    <TTGlyph name="C" xMin="129" yMin="-20" xMax="1208" yMax="1483">
      <contour>
        <pt x="791" y="-20" on="1"/>
        <pt x="483" y="-20" on="0"/>
        <pt x="129" y="379" on="0"/>
        <pt x="129" y="735" on="1"/>
        <pt x="129" y="742" on="0"/>
        <pt x="129" y="750" on="1"/>
        <pt x="129" y="961" on="0"/>
        <pt x="298" y="1298" on="0"/>
        <pt x="613" y="1483" on="0"/>
        <pt x="812" y="1483" on="1"/>
        <pt x="819" y="1483" on="0"/>
        <pt x="825" y="1483" on="1"/>
        <pt x="1037" y="1483" on="0"/>
        <pt x="1208" y="1403" on="1"/>
        <pt x="1167" y="1311" on="1"/>
        <pt x="1005" y="1391" on="0"/>
        <pt x="831" y="1391" on="1"/>
        <pt x="556" y="1391" on="0"/>
        <pt x="240" y="1039" on="0"/>
        <pt x="240" y="420" on="0"/>
        <pt x="538" y="74" on="0"/>
        <pt x="815" y="74" on="1"/>
        <pt x="997" y="74" on="0"/>
        <pt x="1153" y="121" on="1"/>
        <pt x="1153" y="31" on="1"/>
        <pt x="1008" y="-20" on="0"/>
      </contour>
    </TTGlyph>
    <TTGlyph name="Ccedilla" xMin="129" yMin="-492" xMax="1208" yMax="1483">
      <contour>
        <pt x="831" y="1391" on="1"/>
        <pt x="556" y="1391" on="0"/>
        <pt x="240" y="1039" on="0"/>
        <pt x="240" y="419" on="0"/>
        <pt x="539" y="74" on="0"/>
        <pt x="815" y="74" on="1"/>
        <pt x="997" y="74" on="0"/>
        <pt x="1153" y="121" on="1"/>
        <pt x="1153" y="31" on="1"/>
        <pt x="1010" y="-19" on="0"/>
        <pt x="798" y="-20" on="1"/>
        <pt x="743" y="-117" on="1"/>
        <pt x="911" y="-154" on="0"/>
        <pt x="911" y="-291" on="1"/>
        <pt x="911" y="-390" on="0"/>
        <pt x="777" y="-492" on="0"/>
        <pt x="655" y="-492" on="1"/>
        <pt x="588" y="-492" on="0"/>
        <pt x="561" y="-481" on="1"/>
        <pt x="561" y="-393" on="1"/>
        <pt x="590" y="-403" on="0"/>
        <pt x="731" y="-403" on="0"/>
        <pt x="813" y="-347" on="0"/>
        <pt x="813" y="-295" on="1"/>
        <pt x="813" y="-201" on="0"/>
        <pt x="620" y="-174" on="1"/>
        <pt x="705" y="-16" on="1"/>
        <pt x="434" y="12" on="0"/>
        <pt x="129" y="405" on="0"/>
        <pt x="129" y="735" on="1"/>
        <pt x="129" y="958" on="0"/>
        <pt x="298" y="1298" on="0"/>
        <pt x="615" y="1483" on="0"/>
        <pt x="1037" y="1483" on="0"/>
        <pt x="1208" y="1403" on="1"/>
        <pt x="1167" y="1311" on="1"/>
        <pt x="1005" y="1391" on="0"/>
      </contour>
    </TTGlyph>
    <TTGlyph name="D" xMin="207" yMin="0" xMax="1317" yMax="1462">
      <contour>
        <pt x="207" y="1462" on="1"/>
        <pt x="602" y="1462" on="1"/>
        <pt x="952" y="1462" on="0"/>
        <pt x="1317" y="1096" on="0"/>
        <pt x="1317" y="377" on="0"/>
        <pt x="932" y="0" on="0"/>
        <pt x="557" y="0" on="1"/>
        <pt x="207" y="0" on="1"/>
      </contour>
      <contour>
        <pt x="309" y="1372" on="1"/>
        <pt x="309" y="90" on="1"/>
        <pt x="551" y="90" on="1"/>
        <pt x="1206" y="90" on="0"/>
        <pt x="1206" y="741" on="1"/>
        <pt x="1206" y="1054" on="0"/>
        <pt x="887" y="1372" on="0"/>
        <pt x="578" y="1372" on="1"/>
      </contour>
    </TTGlyph>
    <TTGlyph name="E" xMin="207" yMin="0" xMax="1006" yMax="1462">
      <contour>
        <pt x="1006" y="1368" on="1"/>
        <pt x="309" y="1368" on="1"/>
        <pt x="309" y="815" on="1"/>
        <pt x="967" y="815" on="1"/>
        <pt x="967" y="721" on="1"/>
        <pt x="309" y="721" on="1"/>
        <pt x="309" y="93" on="1"/>
        <pt x="1006" y="93" on="1"/>
        <pt x="1006" y="0" on="1"/>
        <pt x="207" y="0" on="1"/>
        <pt x="207" y="1462" on="1"/>
        <pt x="1006" y="1462" on="1"/>
      </contour>
    </TTGlyph>
    <TTGlyph name="Eacute" xMin="207" yMin="0" xMax="1006" yMax="1907">
      <contour>
        <pt x="846" y="1907" on="1"/>
        <pt x="846" y="1890" on="1"/>
        <pt x="810" y="1838" on="0"/>
        <pt x="636" y="1665" on="0"/>
        <pt x="533" y="1579" on="1"/>
        <pt x="463" y="1579" on="1"/>
        <pt x="463" y="1595" on="1"/>
        <pt x="535" y="1673" on="0"/>
        <pt x="678" y="1858" on="0"/>
        <pt x="705" y="1907" on="1"/>
      </contour>
      <contour>
        <pt x="1006" y="1368" on="1"/>
        <pt x="309" y="1368" on="1"/>
        <pt x="309" y="815" on="1"/>
        <pt x="967" y="815" on="1"/>
        <pt x="967" y="721" on="1"/>
        <pt x="309" y="721" on="1"/>
        <pt x="309" y="94" on="1"/>
        <pt x="1006" y="94" on="1"/>
        <pt x="1006" y="0" on="1"/>
        <pt x="207" y="0" on="1"/>
        <pt x="207" y="1462" on="1"/>
        <pt x="1006" y="1462" on="1"/>
      </contour>
    </TTGlyph>
    <TTGlyph name="Ecircumflex" xMin="207" yMin="0" xMax="1006" yMax="1907">
      <contour>
        <pt x="897" y="1579" on="1"/>
        <pt x="827" y="1579" on="1"/>
        <pt x="703" y="1681" on="0"/>
        <pt x="606" y="1786" on="1"/>
        <pt x="500" y="1674" on="0"/>
        <pt x="385" y="1579" on="1"/>
        <pt x="315" y="1579" on="1"/>
        <pt x="315" y="1595" on="1"/>
        <pt x="377" y="1662" on="0"/>
        <pt x="516" y="1840" on="0"/>
        <pt x="557" y="1907" on="1"/>
        <pt x="655" y="1907" on="1"/>
        <pt x="722" y="1788" on="0"/>
        <pt x="897" y="1595" on="1"/>
      </contour>
      <contour>
        <pt x="1006" y="1368" on="1"/>
        <pt x="309" y="1368" on="1"/>
        <pt x="309" y="815" on="1"/>
        <pt x="967" y="815" on="1"/>
        <pt x="967" y="721" on="1"/>
        <pt x="309" y="721" on="1"/>
        <pt x="309" y="94" on="1"/>
        <pt x="1006" y="94" on="1"/>
        <pt x="1006" y="0" on="1"/>
        <pt x="207" y="0" on="1"/>
        <pt x="207" y="1462" on="1"/>
        <pt x="1006" y="1462" on="1"/>
      </contour>
    </TTGlyph>
    <TTGlyph name="Edieresis" xMin="207" yMin="0" xMax="1006" yMax="1813">
      <contour>
        <pt x="417" y="1813" on="1"/>
        <pt x="481" y="1813" on="0"/>
        <pt x="481" y="1641" on="0"/>
        <pt x="354" y="1641" on="0"/>
        <pt x="354" y="1727" on="1"/>
        <pt x="354" y="1772" on="0"/>
        <pt x="384" y="1813" on="0"/>
      </contour>
      <contour>
        <pt x="798" y="1813" on="1"/>
        <pt x="862" y="1813" on="0"/>
        <pt x="862" y="1641" on="0"/>
        <pt x="735" y="1641" on="0"/>
        <pt x="735" y="1727" on="1"/>
        <pt x="735" y="1772" on="0"/>
        <pt x="765" y="1813" on="0"/>
      </contour>
      <contour>
        <pt x="1006" y="1368" on="1"/>
        <pt x="309" y="1368" on="1"/>
        <pt x="309" y="815" on="1"/>
        <pt x="967" y="815" on="1"/>
        <pt x="967" y="721" on="1"/>
        <pt x="309" y="721" on="1"/>
        <pt x="309" y="94" on="1"/>
        <pt x="1006" y="94" on="1"/>
        <pt x="1006" y="0" on="1"/>
        <pt x="207" y="0" on="1"/>
        <pt x="207" y="1462" on="1"/>
        <pt x="1006" y="1462" on="1"/>
      </contour>
    </TTGlyph>
    <TTGlyph name="Egrave" xMin="207" yMin="0" xMax="1006" yMax="1907">
      <contour>
        <pt x="314" y="1907" on="1"/>
        <pt x="456" y="1907" on="1"/>
        <pt x="482" y="1859" on="0"/>
        <pt x="628" y="1670" on="0"/>
        <pt x="697" y="1595" on="1"/>
        <pt x="697" y="1579" on="1"/>
        <pt x="628" y="1579" on="1"/>
        <pt x="534" y="1656" on="0"/>
        <pt x="348" y="1841" on="0"/>
        <pt x="314" y="1890" on="1"/>
      </contour>
      <contour>
        <pt x="1006" y="1368" on="1"/>
        <pt x="309" y="1368" on="1"/>
        <pt x="309" y="815" on="1"/>
        <pt x="967" y="815" on="1"/>
        <pt x="967" y="721" on="1"/>
        <pt x="309" y="721" on="1"/>
        <pt x="309" y="94" on="1"/>
        <pt x="1006" y="94" on="1"/>
        <pt x="1006" y="0" on="1"/>
        <pt x="207" y="0" on="1"/>
        <pt x="207" y="1462" on="1"/>
        <pt x="1006" y="1462" on="1"/>
      </contour>
    </TTGlyph>
    <TTGlyph name="Eth" xMin="47" yMin="0" xMax="1317" yMax="1462">
      <contour>
        <pt x="207" y="1462" on="1"/>
        <pt x="602" y="1462" on="1"/>
        <pt x="952" y="1462" on="0"/>
        <pt x="1317" y="1096" on="0"/>
        <pt x="1317" y="377" on="0"/>
        <pt x="932" y="0" on="0"/>
        <pt x="557" y="0" on="1"/>
        <pt x="207" y="0" on="1"/>
        <pt x="207" y="678" on="1"/>
        <pt x="47" y="678" on="1"/>
        <pt x="47" y="772" on="1"/>
        <pt x="207" y="772" on="1"/>
      </contour>
      <contour>
        <pt x="309" y="1372" on="1"/>
        <pt x="309" y="772" on="1"/>
        <pt x="715" y="772" on="1"/>
        <pt x="715" y="678" on="1"/>
        <pt x="309" y="678" on="1"/>
        <pt x="309" y="90" on="1"/>
        <pt x="551" y="90" on="1"/>
        <pt x="1206" y="90" on="0"/>
        <pt x="1206" y="741" on="1"/>
        <pt x="1206" y="1054" on="0"/>
        <pt x="888" y="1372" on="0"/>
        <pt x="578" y="1372" on="1"/>
      </contour>
    </TTGlyph>
    <TTGlyph name="Euro" xMin="74" yMin="-20" xMax="1112" yMax="1485">
      <contour>
        <pt x="74" y="907" on="1"/>
        <pt x="258" y="907" on="1"/>
        <pt x="297" y="1179" on="0"/>
        <pt x="585" y="1485" on="0"/>
        <pt x="803" y="1485" on="1"/>
        <pt x="972" y="1485" on="0"/>
        <pt x="1112" y="1411" on="1"/>
        <pt x="1073" y="1325" on="1"/>
        <pt x="939" y="1397" on="0"/>
        <pt x="803" y="1397" on="1"/>
        <pt x="629" y="1397" on="0"/>
        <pt x="401" y="1146" on="0"/>
        <pt x="360" y="907" on="1"/>
        <pt x="862" y="907" on="1"/>
        <pt x="862" y="825" on="1"/>
        <pt x="352" y="825" on="1"/>
        <pt x="348" y="721" on="1"/>
        <pt x="348" y="697" on="1"/>
        <pt x="348" y="630" on="0"/>
        <pt x="352" y="610" on="1"/>
        <pt x="801" y="610" on="1"/>
        <pt x="801" y="528" on="1"/>
        <pt x="358" y="528" on="1"/>
        <pt x="388" y="310" on="0"/>
        <pt x="505" y="189" on="1"/>
        <pt x="623" y="68" on="0"/>
        <pt x="807" y="68" on="1"/>
        <pt x="953" y="68" on="0"/>
        <pt x="1094" y="133" on="1"/>
        <pt x="1094" y="39" on="1"/>
        <pt x="951" y="-20" on="0"/>
        <pt x="803" y="-20" on="1"/>
        <pt x="575" y="-20" on="0"/>
        <pt x="296" y="260" on="0"/>
        <pt x="254" y="528" on="1"/>
        <pt x="74" y="528" on="1"/>
        <pt x="74" y="610" on="1"/>
        <pt x="246" y="610" on="1"/>
        <pt x="242" y="643" on="0"/>
        <pt x="242" y="723" on="1"/>
        <pt x="246" y="825" on="1"/>
        <pt x="74" y="825" on="1"/>
      </contour>
    </TTGlyph>
    <TTGlyph name="F" xMin="207" yMin="0" xMax="1008" yMax="1462">
      <contour>
        <pt x="1008" y="1368" on="1"/>
        <pt x="309" y="1368" on="1"/>
        <pt x="309" y="748" on="1"/>
        <pt x="968" y="748" on="1"/>
        <pt x="968" y="653" on="1"/>
        <pt x="309" y="653" on="1"/>
        <pt x="309" y="0" on="1"/>
        <pt x="207" y="0" on="1"/>
        <pt x="207" y="1462" on="1"/>
        <pt x="1008" y="1462" on="1"/>
      </contour>
    </TTGlyph>
    <TTGlyph name="G" xMin="129" yMin="-20" xMax="1321" yMax="1485">
      <contour>
        <pt x="1321" y="737" on="1"/>
        <pt x="1321" y="70" on="1"/>
        <pt x="1113" y="-20" on="0"/>
        <pt x="844" y="-20" on="1"/>
        <pt x="498" y="-20" on="0"/>
        <pt x="313" y="175" on="1"/>
        <pt x="129" y="371" on="0"/>
        <pt x="129" y="729" on="1"/>
        <pt x="129" y="952" on="0"/>
        <pt x="311" y="1296" on="0"/>
        <pt x="652" y="1485" on="0"/>
        <pt x="1114" y="1485" on="0"/>
        <pt x="1303" y="1397" on="1"/>
        <pt x="1262" y="1305" on="1"/>
        <pt x="1073" y="1393" on="0"/>
        <pt x="868" y="1393" on="1"/>
        <pt x="579" y="1393" on="0"/>
        <pt x="240" y="1036" on="0"/>
        <pt x="240" y="733" on="1"/>
        <pt x="240" y="404" on="0"/>
        <pt x="561" y="70" on="0"/>
        <pt x="874" y="70" on="1"/>
        <pt x="1076" y="70" on="0"/>
        <pt x="1217" y="127" on="1"/>
        <pt x="1217" y="641" on="1"/>
        <pt x="782" y="641" on="1"/>
        <pt x="782" y="737" on="1"/>
      </contour>
    </TTGlyph>
    <TTGlyph name="H" xMin="207" yMin="0" xMax="1266" yMax="1462">
      <contour>
        <pt x="1266" y="0" on="1"/>
        <pt x="1163" y="0" on="1"/>
        <pt x="1163" y="719" on="1"/>
        <pt x="309" y="719" on="1"/>
        <pt x="309" y="0" on="1"/>
        <pt x="207" y="0" on="1"/>
        <pt x="207" y="1462" on="1"/>
        <pt x="309" y="1462" on="1"/>
        <pt x="309" y="813" on="1"/>
        <pt x="1163" y="813" on="1"/>
        <pt x="1163" y="1462" on="1"/>
        <pt x="1266" y="1462" on="1"/>
      </contour>
    </TTGlyph>
    <TTGlyph name="I" xMin="207" yMin="0" xMax="309" yMax="1462">
      <contour>
        <pt x="309" y="0" on="1"/>
        <pt x="207" y="0" on="1"/>
        <pt x="207" y="1462" on="1"/>
        <pt x="309" y="1462" on="1"/>
      </contour>
    </TTGlyph>
    <TTGlyph name="Iacute" xMin="191" yMin="0" xMax="574" yMax="1907">
      <contour>
        <pt x="574" y="1907" on="1"/>
        <pt x="574" y="1890" on="1"/>
        <pt x="538" y="1838" on="0"/>
        <pt x="364" y="1665" on="0"/>
        <pt x="261" y="1579" on="1"/>
        <pt x="191" y="1579" on="1"/>
        <pt x="191" y="1595" on="1"/>
        <pt x="263" y="1673" on="0"/>
        <pt x="406" y="1858" on="0"/>
        <pt x="433" y="1907" on="1"/>
      </contour>
      <contour>
        <pt x="309" y="0" on="1"/>
        <pt x="207" y="0" on="1"/>
        <pt x="207" y="1462" on="1"/>
        <pt x="309" y="1462" on="1"/>
      </contour>
    </TTGlyph>
    <TTGlyph name="Icircumflex" xMin="-32" yMin="0" xMax="550" yMax="1907">
      <contour>
        <pt x="550" y="1579" on="1"/>
        <pt x="480" y="1579" on="1"/>
        <pt x="356" y="1681" on="0"/>
        <pt x="259" y="1786" on="1"/>
        <pt x="153" y="1674" on="0"/>
        <pt x="38" y="1579" on="1"/>
        <pt x="-32" y="1579" on="1"/>
        <pt x="-32" y="1595" on="1"/>
        <pt x="30" y="1662" on="0"/>
        <pt x="169" y="1840" on="0"/>
        <pt x="210" y="1907" on="1"/>
        <pt x="308" y="1907" on="1"/>
        <pt x="375" y="1788" on="0"/>
        <pt x="550" y="1595" on="1"/>
      </contour>
      <contour>
        <pt x="309" y="0" on="1"/>
        <pt x="207" y="0" on="1"/>
        <pt x="207" y="1462" on="1"/>
        <pt x="309" y="1462" on="1"/>
      </contour>
    </TTGlyph>
    <TTGlyph name="Idieresis" xMin="5" yMin="0" xMax="513" yMax="1813">
      <contour>
        <pt x="68" y="1813" on="1"/>
        <pt x="132" y="1813" on="0"/>
        <pt x="132" y="1641" on="0"/>
        <pt x="5" y="1641" on="0"/>
        <pt x="5" y="1727" on="1"/>
        <pt x="5" y="1772" on="0"/>
        <pt x="35" y="1813" on="0"/>
      </contour>
      <contour>
        <pt x="449" y="1813" on="1"/>
        <pt x="513" y="1813" on="0"/>
        <pt x="513" y="1641" on="0"/>
        <pt x="386" y="1641" on="0"/>
        <pt x="386" y="1727" on="1"/>
        <pt x="386" y="1772" on="0"/>
        <pt x="416" y="1813" on="0"/>
      </contour>
      <contour>
        <pt x="309" y="0" on="1"/>
        <pt x="207" y="0" on="1"/>
        <pt x="207" y="1462" on="1"/>
        <pt x="309" y="1462" on="1"/>
      </contour>
    </TTGlyph>
    <TTGlyph name="Igrave" xMin="-63" yMin="0" xMax="320" yMax="1907">
      <contour>
        <pt x="-63" y="1907" on="1"/>
        <pt x="79" y="1907" on="1"/>
        <pt x="105" y="1859" on="0"/>
        <pt x="251" y="1670" on="0"/>
        <pt x="320" y="1595" on="1"/>
        <pt x="320" y="1579" on="1"/>
        <pt x="251" y="1579" on="1"/>
        <pt x="157" y="1656" on="0"/>
        <pt x="-29" y="1841" on="0"/>
        <pt x="-63" y="1890" on="1"/>
      </contour>
      <contour>
        <pt x="309" y="0" on="1"/>
        <pt x="207" y="0" on="1"/>
        <pt x="207" y="1462" on="1"/>
        <pt x="309" y="1462" on="1"/>
      </contour>
    </TTGlyph>
    <TTGlyph name="J" xMin="-184" yMin="-369" xMax="309" yMax="1462">
      <contour>
        <pt x="309" y="1462" on="1"/>
        <pt x="309" y="0" on="1"/>
        <pt x="309" y="-369" on="0"/>
        <pt x="-33" y="-369" on="1"/>
        <pt x="-126" y="-369" on="0"/>
        <pt x="-184" y="-342" on="1"/>
        <pt x="-184" y="-254" on="1"/>
        <pt x="-104" y="-274" on="0"/>
        <pt x="-35" y="-274" on="1"/>
        <pt x="207" y="-274" on="0"/>
        <pt x="207" y="-9" on="1"/>
        <pt x="207" y="1462" on="1"/>
      </contour>
    </TTGlyph>
    <TTGlyph name="K" xMin="207" yMin="0" xMax="1190" yMax="1462">
      <contour>
        <pt x="309" y="0" on="1"/>
        <pt x="207" y="0" on="1"/>
        <pt x="207" y="1462" on="1"/>
        <pt x="309" y="1462" on="1"/>
        <pt x="309" y="702" on="1"/>
        <pt x="471" y="864" on="1"/>
        <pt x="1044" y="1462" on="1"/>
        <pt x="1174" y="1462" on="1"/>
        <pt x="575" y="844" on="1"/>
        <pt x="1190" y="0" on="1"/>
        <pt x="1065" y="0" on="1"/>
        <pt x="504" y="772" on="1"/>
        <pt x="309" y="600" on="1"/>
      </contour>
    </TTGlyph>
    <TTGlyph name="L" xMin="207" yMin="0" xMax="1006" yMax="1462">
      <contour>
        <pt x="309" y="95" on="1"/>
        <pt x="1006" y="95" on="1"/>
        <pt x="1006" y="0" on="1"/>
        <pt x="207" y="0" on="1"/>
        <pt x="207" y="1462" on="1"/>
        <pt x="309" y="1462" on="1"/>
      </contour>
    </TTGlyph>
    <TTGlyph name="M" xMin="207" yMin="0" xMax="1561" yMax="1462">
      <contour>
        <pt x="1561" y="0" on="1"/>
        <pt x="1458" y="0" on="1"/>
        <pt x="1458" y="1108" on="1"/>
        <pt x="1458" y="1224" on="0"/>
        <pt x="1470" y="1348" on="1"/>
        <pt x="1462" y="1348" on="1"/>
        <pt x="915" y="0" on="1"/>
        <pt x="850" y="0" on="1"/>
        <pt x="305" y="1350" on="1"/>
        <pt x="297" y="1350" on="1"/>
        <pt x="305" y="1217" on="0"/>
        <pt x="305" y="1096" on="1"/>
        <pt x="305" y="0" on="1"/>
        <pt x="207" y="0" on="1"/>
        <pt x="207" y="1462" on="1"/>
        <pt x="365" y="1462" on="1"/>
        <pt x="883" y="176" on="1"/>
        <pt x="889" y="176" on="1"/>
        <pt x="1407" y="1462" on="1"/>
        <pt x="1561" y="1462" on="1"/>
      </contour>
    </TTGlyph>
    <TTGlyph name="N" xMin="207" yMin="0" xMax="1270" yMax="1462">
      <contour>
        <pt x="1270" y="0" on="1"/>
        <pt x="1167" y="0" on="1"/>
        <pt x="301" y="1298" on="1"/>
        <pt x="293" y="1298" on="1"/>
        <pt x="305" y="1066" on="0"/>
        <pt x="305" y="948" on="1"/>
        <pt x="305" y="0" on="1"/>
        <pt x="207" y="0" on="1"/>
        <pt x="207" y="1462" on="1"/>
        <pt x="309" y="1462" on="1"/>
        <pt x="1174" y="166" on="1"/>
        <pt x="1180" y="166" on="1"/>
        <pt x="1171" y="346" on="0"/>
        <pt x="1171" y="508" on="1"/>
        <pt x="1171" y="1462" on="1"/>
        <pt x="1270" y="1462" on="1"/>
      </contour>
    </TTGlyph>
    <TTGlyph name="Ntilde" xMin="207" yMin="0" xMax="1270" yMax="1819">
      <contour>
        <pt x="897" y="1581" on="1"/>
        <pt x="859" y="1581" on="0"/>
        <pt x="781" y="1620" on="0"/>
        <pt x="694" y="1693" on="0"/>
        <pt x="678" y="1704" on="1"/>
        <pt x="633" y="1737" on="0"/>
        <pt x="550" y="1737" on="0"/>
        <pt x="491" y="1666" on="0"/>
        <pt x="473" y="1581" on="1"/>
        <pt x="400" y="1581" on="1"/>
        <pt x="410" y="1692" on="0"/>
        <pt x="516" y="1819" on="0"/>
        <pt x="600" y="1819" on="1"/>
        <pt x="630" y="1819" on="0"/>
        <pt x="693" y="1793" on="0"/>
        <pt x="734" y="1764" on="0"/>
        <pt x="799" y="1711" on="0"/>
        <pt x="816" y="1698" on="1"/>
        <pt x="862" y="1663" on="0"/>
        <pt x="897" y="1663" on="1"/>
        <pt x="990" y="1663" on="0"/>
        <pt x="1022" y="1819" on="1"/>
        <pt x="1098" y="1819" on="1"/>
        <pt x="1082" y="1704" on="0"/>
        <pt x="977" y="1581" on="0"/>
      </contour>
      <contour>
        <pt x="1270" y="0" on="1"/>
        <pt x="1167" y="0" on="1"/>
        <pt x="301" y="1298" on="1"/>
        <pt x="293" y="1298" on="1"/>
        <pt x="305" y="1066" on="0"/>
        <pt x="305" y="948" on="1"/>
        <pt x="305" y="0" on="1"/>
        <pt x="207" y="0" on="1"/>
        <pt x="207" y="1462" on="1"/>
        <pt x="309" y="1462" on="1"/>
        <pt x="1174" y="166" on="1"/>
        <pt x="1180" y="166" on="1"/>
        <pt x="1171" y="346" on="0"/>
        <pt x="1171" y="508" on="1"/>
        <pt x="1171" y="1462" on="1"/>
        <pt x="1270" y="1462" on="1"/>
      </contour>
    </TTGlyph>
    <TTGlyph name="O" xMin="129" yMin="-20" xMax="1436" yMax="1485">
      <contour>
        <pt x="477" y="-20" on="0"/>
        <pt x="129" y="384" on="0"/>
        <pt x="129" y="1085" on="0"/>
        <pt x="480" y="1485" on="0"/>
        <pt x="1091" y="1485" on="0"/>
        <pt x="1436" y="1081" on="0"/>
        <pt x="1436" y="384" on="0"/>
        <pt x="1088" y="-20" on="0"/>
      </contour>
      <contour>
        <pt x="1325" y="1049" on="0"/>
        <pt x="1046" y="1386" on="0"/>
        <pt x="524" y="1386" on="0"/>
        <pt x="240" y="1046" on="0"/>
        <pt x="240" y="420" on="0"/>
        <pt x="520" y="76" on="0"/>
        <pt x="1045" y="76" on="0"/>
        <pt x="1325" y="416" on="0"/>
      </contour>
    </TTGlyph>
    <TTGlyph name="OE" xMin="129" yMin="-16" xMax="1714" yMax="1479">
      <contour>
        <pt x="1714" y="0" on="1"/>
        <pt x="958" y="0" on="1"/>
        <pt x="884" y="-16" on="0"/>
        <pt x="782" y="-16" on="1"/>
        <pt x="477" y="-16" on="0"/>
        <pt x="129" y="384" on="0"/>
        <pt x="129" y="1082" on="0"/>
        <pt x="478" y="1479" on="0"/>
        <pt x="784" y="1479" on="1"/>
        <pt x="859" y="1479" on="0"/>
        <pt x="967" y="1462" on="1"/>
        <pt x="1714" y="1462" on="1"/>
        <pt x="1714" y="1368" on="1"/>
        <pt x="1059" y="1368" on="1"/>
        <pt x="1059" y="815" on="1"/>
        <pt x="1675" y="815" on="1"/>
        <pt x="1675" y="721" on="1"/>
        <pt x="1059" y="721" on="1"/>
        <pt x="1059" y="94" on="1"/>
        <pt x="1714" y="94" on="1"/>
      </contour>
      <contour>
        <pt x="784" y="1380" on="1"/>
        <pt x="522" y="1380" on="0"/>
        <pt x="240" y="1045" on="0"/>
        <pt x="240" y="418" on="0"/>
        <pt x="521" y="80" on="0"/>
        <pt x="782" y="80" on="1"/>
        <pt x="892" y="80" on="0"/>
        <pt x="956" y="98" on="1"/>
        <pt x="956" y="1364" on="1"/>
        <pt x="896" y="1380" on="0"/>
      </contour>
    </TTGlyph>
    <TTGlyph name="Oacute" xMin="129" yMin="-20" xMax="1436" yMax="1907">
      <contour>
        <pt x="1069" y="1907" on="1"/>
        <pt x="1069" y="1890" on="1"/>
        <pt x="1033" y="1838" on="0"/>
        <pt x="859" y="1665" on="0"/>
        <pt x="756" y="1579" on="1"/>
        <pt x="686" y="1579" on="1"/>
        <pt x="686" y="1595" on="1"/>
        <pt x="758" y="1673" on="0"/>
        <pt x="901" y="1858" on="0"/>
        <pt x="928" y="1907" on="1"/>
      </contour>
      <contour>
        <pt x="129" y="1084" on="0"/>
        <pt x="480" y="1485" on="0"/>
        <pt x="1089" y="1485" on="0"/>
        <pt x="1436" y="1083" on="0"/>
        <pt x="1436" y="384" on="0"/>
        <pt x="1087" y="-20" on="0"/>
        <pt x="477" y="-20" on="0"/>
        <pt x="129" y="384" on="0"/>
      </contour>
      <contour>
        <pt x="1325" y="1049" on="0"/>
        <pt x="1046" y="1386" on="0"/>
        <pt x="523" y="1386" on="0"/>
        <pt x="240" y="1046" on="0"/>
        <pt x="240" y="418" on="0"/>
        <pt x="521" y="76" on="0"/>
        <pt x="1046" y="76" on="0"/>
        <pt x="1325" y="415" on="0"/>
      </contour>
    </TTGlyph>
    <TTGlyph name="Ocircumflex" xMin="129" yMin="-20" xMax="1436" yMax="1907">
      <contour>
        <pt x="1074" y="1579" on="1"/>
        <pt x="1004" y="1579" on="1"/>
        <pt x="880" y="1681" on="0"/>
        <pt x="783" y="1786" on="1"/>
        <pt x="677" y="1674" on="0"/>
        <pt x="562" y="1579" on="1"/>
        <pt x="492" y="1579" on="1"/>
        <pt x="492" y="1595" on="1"/>
        <pt x="554" y="1662" on="0"/>
        <pt x="693" y="1840" on="0"/>
        <pt x="734" y="1907" on="1"/>
        <pt x="832" y="1907" on="1"/>
        <pt x="899" y="1788" on="0"/>
        <pt x="1074" y="1595" on="1"/>
      </contour>
      <contour>
        <pt x="129" y="1084" on="0"/>
        <pt x="480" y="1485" on="0"/>
        <pt x="1089" y="1485" on="0"/>
        <pt x="1436" y="1083" on="0"/>
        <pt x="1436" y="384" on="0"/>
        <pt x="1087" y="-20" on="0"/>
        <pt x="477" y="-20" on="0"/>
        <pt x="129" y="384" on="0"/>
      </contour>
      <contour>
        <pt x="1325" y="1049" on="0"/>
        <pt x="1046" y="1386" on="0"/>
        <pt x="523" y="1386" on="0"/>
        <pt x="240" y="1046" on="0"/>
        <pt x="240" y="418" on="0"/>
        <pt x="521" y="76" on="0"/>
        <pt x="1046" y="76" on="0"/>
        <pt x="1325" y="415" on="0"/>
      </contour>
    </TTGlyph>
    <TTGlyph name="Odieresis" xMin="129" yMin="-20" xMax="1436" yMax="1813">
      <contour>
        <pt x="592" y="1813" on="1"/>
        <pt x="656" y="1813" on="0"/>
        <pt x="656" y="1641" on="0"/>
        <pt x="529" y="1641" on="0"/>
        <pt x="529" y="1727" on="1"/>
        <pt x="529" y="1772" on="0"/>
        <pt x="559" y="1813" on="0"/>
      </contour>
      <contour>
        <pt x="973" y="1813" on="1"/>
        <pt x="1037" y="1813" on="0"/>
        <pt x="1037" y="1641" on="0"/>
        <pt x="910" y="1641" on="0"/>
        <pt x="910" y="1727" on="1"/>
        <pt x="910" y="1772" on="0"/>
        <pt x="940" y="1813" on="0"/>
      </contour>
      <contour>
        <pt x="129" y="1084" on="0"/>
        <pt x="480" y="1485" on="0"/>
        <pt x="1089" y="1485" on="0"/>
        <pt x="1436" y="1083" on="0"/>
        <pt x="1436" y="384" on="0"/>
        <pt x="1087" y="-20" on="0"/>
        <pt x="477" y="-20" on="0"/>
        <pt x="129" y="384" on="0"/>
      </contour>
      <contour>
        <pt x="1325" y="1049" on="0"/>
        <pt x="1046" y="1386" on="0"/>
        <pt x="523" y="1386" on="0"/>
        <pt x="240" y="1046" on="0"/>
        <pt x="240" y="418" on="0"/>
        <pt x="521" y="76" on="0"/>
        <pt x="1046" y="76" on="0"/>
        <pt x="1325" y="415" on="0"/>
      </contour>
    </TTGlyph>
    <TTGlyph name="Ograve" xMin="129" yMin="-20" xMax="1436" yMax="1907">
      <contour>
        <pt x="502" y="1907" on="1"/>
        <pt x="644" y="1907" on="1"/>
        <pt x="670" y="1859" on="0"/>
        <pt x="816" y="1670" on="0"/>
        <pt x="885" y="1595" on="1"/>
        <pt x="885" y="1579" on="1"/>
        <pt x="816" y="1579" on="1"/>
        <pt x="722" y="1656" on="0"/>
        <pt x="536" y="1841" on="0"/>
        <pt x="502" y="1890" on="1"/>
      </contour>
      <contour>
        <pt x="129" y="1084" on="0"/>
        <pt x="480" y="1485" on="0"/>
        <pt x="1089" y="1485" on="0"/>
        <pt x="1436" y="1083" on="0"/>
        <pt x="1436" y="384" on="0"/>
        <pt x="1087" y="-20" on="0"/>
        <pt x="477" y="-20" on="0"/>
        <pt x="129" y="384" on="0"/>
      </contour>
      <contour>
        <pt x="1325" y="1049" on="0"/>
        <pt x="1046" y="1386" on="0"/>
        <pt x="523" y="1386" on="0"/>
        <pt x="240" y="1046" on="0"/>
        <pt x="240" y="418" on="0"/>
        <pt x="521" y="76" on="0"/>
        <pt x="1046" y="76" on="0"/>
        <pt x="1325" y="415" on="0"/>
      </contour>
    </TTGlyph>
    <TTGlyph name="Oslash" xMin="129" yMin="-20" xMax="1436" yMax="1516">
      <contour>
        <pt x="1245" y="1303" on="1"/>
        <pt x="1436" y="1095" on="0"/>
        <pt x="1436" y="384" on="0"/>
        <pt x="1087" y="-20" on="0"/>
        <pt x="782" y="-20" on="1"/>
        <pt x="546" y="-20" on="0"/>
        <pt x="387" y="100" on="1"/>
        <pt x="301" y="-20" on="1"/>
        <pt x="227" y="39" on="1"/>
        <pt x="317" y="166" on="1"/>
        <pt x="129" y="366" on="0"/>
        <pt x="129" y="1084" on="0"/>
        <pt x="480" y="1485" on="0"/>
        <pt x="784" y="1485" on="1"/>
        <pt x="1016" y="1485" on="0"/>
        <pt x="1176" y="1364" on="1"/>
        <pt x="1284" y="1516" on="1"/>
        <pt x="1356" y="1456" on="1"/>
      </contour>
      <contour>
        <pt x="784" y="1386" on="1"/>
        <pt x="523" y="1386" on="0"/>
        <pt x="240" y="1046" on="0"/>
        <pt x="240" y="420" on="0"/>
        <pt x="379" y="250" on="1"/>
        <pt x="1118" y="1284" on="1"/>
        <pt x="985" y="1386" on="0"/>
      </contour>
      <contour>
        <pt x="782" y="76" on="1"/>
        <pt x="1046" y="76" on="0"/>
        <pt x="1325" y="415" on="0"/>
        <pt x="1325" y="1049" on="0"/>
        <pt x="1186" y="1219" on="1"/>
        <pt x="444" y="182" on="1"/>
        <pt x="577" y="76" on="0"/>
      </contour>
    </TTGlyph>
    <TTGlyph name="Otilde" xMin="129" yMin="-20" xMax="1436" yMax="1819">
      <contour>
        <pt x="940" y="1581" on="1"/>
        <pt x="902" y="1581" on="0"/>
        <pt x="824" y="1620" on="0"/>
        <pt x="737" y="1693" on="0"/>
        <pt x="721" y="1704" on="1"/>
        <pt x="676" y="1737" on="0"/>
        <pt x="593" y="1737" on="0"/>
        <pt x="534" y="1666" on="0"/>
        <pt x="516" y="1581" on="1"/>
        <pt x="443" y="1581" on="1"/>
        <pt x="453" y="1692" on="0"/>
        <pt x="559" y="1819" on="0"/>
        <pt x="643" y="1819" on="1"/>
        <pt x="673" y="1819" on="0"/>
        <pt x="736" y="1793" on="0"/>
        <pt x="777" y="1764" on="0"/>
        <pt x="842" y="1711" on="0"/>
        <pt x="858" y="1698" on="1"/>
        <pt x="905" y="1663" on="0"/>
        <pt x="940" y="1663" on="1"/>
        <pt x="1033" y="1663" on="0"/>
        <pt x="1065" y="1819" on="1"/>
        <pt x="1141" y="1819" on="1"/>
        <pt x="1125" y="1704" on="0"/>
        <pt x="1020" y="1581" on="0"/>
      </contour>
      <contour>
        <pt x="129" y="1084" on="0"/>
        <pt x="480" y="1485" on="0"/>
        <pt x="1089" y="1485" on="0"/>
        <pt x="1436" y="1083" on="0"/>
        <pt x="1436" y="384" on="0"/>
        <pt x="1087" y="-20" on="0"/>
        <pt x="477" y="-20" on="0"/>
        <pt x="129" y="384" on="0"/>
      </contour>
      <contour>
        <pt x="1325" y="1049" on="0"/>
        <pt x="1046" y="1386" on="0"/>
        <pt x="523" y="1386" on="0"/>
        <pt x="240" y="1046" on="0"/>
        <pt x="240" y="418" on="0"/>
        <pt x="521" y="76" on="0"/>
        <pt x="1046" y="76" on="0"/>
        <pt x="1325" y="415" on="0"/>
      </contour>
    </TTGlyph>
    <TTGlyph name="P" xMin="207" yMin="0" xMax="1087" yMax="1462">
      <contour>
        <pt x="207" y="1462" on="1"/>
        <pt x="565" y="1462" on="1"/>
        <pt x="1087" y="1462" on="0"/>
        <pt x="1087" y="1042" on="1"/>
        <pt x="1087" y="830" on="0"/>
        <pt x="798" y="604" on="0"/>
        <pt x="535" y="604" on="1"/>
        <pt x="309" y="604" on="1"/>
        <pt x="309" y="0" on="1"/>
        <pt x="207" y="0" on="1"/>
      </contour>
      <contour>
        <pt x="309" y="1370" on="1"/>
        <pt x="309" y="692" on="1"/>
        <pt x="510" y="692" on="1"/>
        <pt x="758" y="692" on="0"/>
        <pt x="867" y="773" on="1"/>
        <pt x="976" y="855" on="0"/>
        <pt x="976" y="1207" on="0"/>
        <pt x="769" y="1370" on="0"/>
        <pt x="551" y="1370" on="1"/>
      </contour>
    </TTGlyph>
    <TTGlyph name="Q" xMin="129" yMin="-348" xMax="1436" yMax="1485">
      <contour>
        <pt x="782" y="-20" on="1"/>
        <pt x="477" y="-20" on="0"/>
        <pt x="129" y="384" on="0"/>
        <pt x="129" y="1085" on="0"/>
        <pt x="480" y="1485" on="0"/>
        <pt x="1091" y="1485" on="0"/>
        <pt x="1436" y="1081" on="0"/>
        <pt x="1436" y="733" on="1"/>
        <pt x="1436" y="440" on="0"/>
        <pt x="1310" y="246" on="1"/>
        <pt x="1184" y="54" on="0"/>
        <pt x="961" y="0" on="1"/>
        <pt x="1294" y="-348" on="1"/>
        <pt x="1128" y="-348" on="1"/>
        <pt x="846" y="-18" on="1"/>
        <pt x="813" y="-20" on="1"/>
      </contour>
      <contour>
        <pt x="1325" y="1049" on="0"/>
        <pt x="1046" y="1386" on="0"/>
        <pt x="524" y="1386" on="0"/>
        <pt x="240" y="1046" on="0"/>
        <pt x="240" y="420" on="0"/>
        <pt x="520" y="76" on="0"/>
        <pt x="1045" y="76" on="0"/>
        <pt x="1325" y="416" on="0"/>
      </contour>
    </TTGlyph>
    <TTGlyph name="R" xMin="207" yMin="0" xMax="1171" yMax="1462">
      <contour>
        <pt x="207" y="1462" on="1"/>
        <pt x="555" y="1462" on="1"/>
        <pt x="826" y="1462" on="0"/>
        <pt x="1087" y="1262" on="0"/>
        <pt x="1087" y="1059" on="1"/>
        <pt x="1087" y="910" on="0"/>
        <pt x="930" y="710" on="0"/>
        <pt x="774" y="666" on="1"/>
        <pt x="1171" y="0" on="1"/>
        <pt x="1049" y="0" on="1"/>
        <pt x="672" y="637" on="1"/>
        <pt x="309" y="637" on="1"/>
        <pt x="309" y="0" on="1"/>
        <pt x="207" y="0" on="1"/>
      </contour>
      <contour>
        <pt x="309" y="1370" on="1"/>
        <pt x="309" y="725" on="1"/>
        <pt x="588" y="725" on="1"/>
        <pt x="775" y="725" on="0"/>
        <pt x="976" y="891" on="0"/>
        <pt x="976" y="1219" on="0"/>
        <pt x="777" y="1370" on="0"/>
        <pt x="551" y="1370" on="1"/>
      </contour>
    </TTGlyph>
    <TTGlyph name="S" xMin="111" yMin="-20" xMax="1014" yMax="1483">
      <contour>
        <pt x="514" y="74" on="1"/>
        <pt x="695" y="74" on="0"/>
        <pt x="905" y="238" on="0"/>
        <pt x="905" y="373" on="1"/>
        <pt x="905" y="455" on="0"/>
        <pt x="836" y="565" on="0"/>
        <pt x="678" y="654" on="0"/>
        <pt x="524" y="707" on="1"/>
        <pt x="300" y="784" on="0"/>
        <pt x="214" y="873" on="1"/>
        <pt x="129" y="962" on="0"/>
        <pt x="129" y="1275" on="0"/>
        <pt x="257" y="1379" on="1"/>
        <pt x="387" y="1483" on="0"/>
        <pt x="794" y="1483" on="0"/>
        <pt x="974" y="1405" on="1"/>
        <pt x="938" y="1317" on="1"/>
        <pt x="758" y="1393" on="0"/>
        <pt x="428" y="1393" on="0"/>
        <pt x="236" y="1243" on="0"/>
        <pt x="236" y="1114" on="1"/>
        <pt x="236" y="1035" on="0"/>
        <pt x="265" y="980" on="1"/>
        <pt x="295" y="929" on="0"/>
        <pt x="362" y="887" on="1"/>
        <pt x="431" y="846" on="0"/>
        <pt x="592" y="788" on="1"/>
        <pt x="761" y="730" on="0"/>
        <pt x="935" y="618" on="0"/>
        <pt x="1014" y="477" on="0"/>
        <pt x="1014" y="377" on="1"/>
        <pt x="1014" y="195" on="0"/>
        <pt x="745" y="-20" on="0"/>
        <pt x="522" y="-20" on="1"/>
        <pt x="255" y="-20" on="0"/>
        <pt x="111" y="39" on="1"/>
        <pt x="111" y="141" on="1"/>
        <pt x="264" y="74" on="0"/>
      </contour>
    </TTGlyph>
    <TTGlyph name="Scaron" xMin="111" yMin="-20" xMax="1014" yMax="1907">
      <contour>
        <pt x="859" y="1907" on="1"/>
        <pt x="859" y="1890" on="1"/>
        <pt x="689" y="1702" on="0"/>
        <pt x="617" y="1579" on="1"/>
        <pt x="519" y="1579" on="1"/>
        <pt x="440" y="1711" on="0"/>
        <pt x="277" y="1890" on="1"/>
        <pt x="277" y="1907" on="1"/>
        <pt x="347" y="1907" on="1"/>
        <pt x="463" y="1811" on="0"/>
        <pt x="568" y="1700" on="1"/>
        <pt x="674" y="1812" on="0"/>
        <pt x="789" y="1907" on="1"/>
      </contour>
      <contour>
        <pt x="514" y="74" on="1"/>
        <pt x="693" y="74" on="0"/>
        <pt x="905" y="238" on="0"/>
        <pt x="905" y="373" on="1"/>
        <pt x="905" y="455" on="0"/>
        <pt x="836" y="565" on="0"/>
        <pt x="678" y="654" on="0"/>
        <pt x="524" y="707" on="1"/>
        <pt x="301" y="784" on="0"/>
        <pt x="129" y="962" on="0"/>
        <pt x="129" y="1276" on="0"/>
        <pt x="386" y="1483" on="0"/>
        <pt x="794" y="1483" on="0"/>
        <pt x="975" y="1405" on="1"/>
        <pt x="938" y="1317" on="1"/>
        <pt x="758" y="1393" on="0"/>
        <pt x="428" y="1393" on="0"/>
        <pt x="236" y="1243" on="0"/>
        <pt x="236" y="1114" on="1"/>
        <pt x="236" y="1034" on="0"/>
        <pt x="295" y="930" on="0"/>
        <pt x="429" y="846" on="0"/>
        <pt x="761" y="729" on="0"/>
        <pt x="935" y="619" on="0"/>
        <pt x="1014" y="478" on="0"/>
        <pt x="1014" y="377" on="1"/>
        <pt x="1014" y="195" on="0"/>
        <pt x="746" y="-20" on="0"/>
        <pt x="522" y="-20" on="1"/>
        <pt x="255" y="-20" on="0"/>
        <pt x="111" y="39" on="1"/>
        <pt x="111" y="141" on="1"/>
        <pt x="267" y="74" on="0"/>
      </contour>
    </TTGlyph>
    <TTGlyph name="T" xMin="9" yMin="0" xMax="1063" yMax="1462">
      <contour>
        <pt x="1063" y="1366" on="1"/>
        <pt x="588" y="1366" on="1"/>
        <pt x="588" y="0" on="1"/>
        <pt x="485" y="0" on="1"/>
        <pt x="485" y="1366" on="1"/>
        <pt x="9" y="1366" on="1"/>
        <pt x="9" y="1462" on="1"/>
        <pt x="1063" y="1462" on="1"/>
      </contour>
    </TTGlyph>
    <TTGlyph name="Thorn" xMin="207" yMin="0" xMax="1087" yMax="1462">
      <contour>
        <pt x="309" y="1198" on="1"/>
        <pt x="565" y="1198" on="1"/>
        <pt x="1087" y="1198" on="0"/>
        <pt x="1087" y="778" on="1"/>
        <pt x="1087" y="566" on="0"/>
        <pt x="800" y="340" on="0"/>
        <pt x="535" y="340" on="1"/>
        <pt x="309" y="340" on="1"/>
        <pt x="309" y="0" on="1"/>
        <pt x="207" y="0" on="1"/>
        <pt x="207" y="1462" on="1"/>
        <pt x="309" y="1462" on="1"/>
      </contour>
      <contour>
        <pt x="309" y="1106" on="1"/>
        <pt x="309" y="428" on="1"/>
        <pt x="510" y="428" on="1"/>
        <pt x="757" y="428" on="0"/>
        <pt x="977" y="591" on="0"/>
        <pt x="977" y="943" on="0"/>
        <pt x="769" y="1106" on="0"/>
        <pt x="551" y="1106" on="1"/>
      </contour>
    </TTGlyph>
    <TTGlyph name="U" xMin="190" yMin="-20" xMax="1282" yMax="1462">
      <contour>
        <pt x="1282" y="1462" on="1"/>
        <pt x="1282" y="516" on="1"/>
        <pt x="1282" y="265" on="0"/>
        <pt x="991" y="-20" on="0"/>
        <pt x="474" y="-20" on="0"/>
        <pt x="190" y="264" on="0"/>
        <pt x="190" y="520" on="1"/>
        <pt x="190" y="1462" on="1"/>
        <pt x="293" y="1462" on="1"/>
        <pt x="293" y="516" on="1"/>
        <pt x="293" y="306" on="0"/>
        <pt x="410" y="187" on="1"/>
        <pt x="527" y="70" on="0"/>
        <pt x="949" y="70" on="0"/>
        <pt x="1065" y="185" on="1"/>
        <pt x="1180" y="300" on="0"/>
        <pt x="1180" y="506" on="1"/>
        <pt x="1180" y="1462" on="1"/>
      </contour>
    </TTGlyph>
    <TTGlyph name="Uacute" xMin="190" yMin="-20" xMax="1282" yMax="1907">
      <contour>
        <pt x="1016" y="1907" on="1"/>
        <pt x="1016" y="1890" on="1"/>
        <pt x="980" y="1838" on="0"/>
        <pt x="806" y="1665" on="0"/>
        <pt x="703" y="1579" on="1"/>
        <pt x="633" y="1579" on="1"/>
        <pt x="633" y="1595" on="1"/>
        <pt x="705" y="1673" on="0"/>
        <pt x="848" y="1858" on="0"/>
        <pt x="875" y="1907" on="1"/>
      </contour>
      <contour>
        <pt x="1282" y="1462" on="1"/>
        <pt x="1282" y="516" on="1"/>
        <pt x="1282" y="264" on="0"/>
        <pt x="990" y="-20" on="0"/>
        <pt x="475" y="-20" on="0"/>
        <pt x="190" y="265" on="0"/>
        <pt x="190" y="520" on="1"/>
        <pt x="190" y="1462" on="1"/>
        <pt x="293" y="1462" on="1"/>
        <pt x="293" y="516" on="1"/>
        <pt x="293" y="305" on="0"/>
        <pt x="528" y="70" on="0"/>
        <pt x="950" y="70" on="0"/>
        <pt x="1180" y="300" on="0"/>
        <pt x="1180" y="506" on="1"/>
        <pt x="1180" y="1462" on="1"/>
      </contour>
    </TTGlyph>
    <TTGlyph name="Ucircumflex" xMin="190" yMin="-20" xMax="1282" yMax="1907">
      <contour>
        <pt x="1026" y="1579" on="1"/>
        <pt x="956" y="1579" on="1"/>
        <pt x="832" y="1681" on="0"/>
        <pt x="735" y="1786" on="1"/>
        <pt x="629" y="1674" on="0"/>
        <pt x="514" y="1579" on="1"/>
        <pt x="444" y="1579" on="1"/>
        <pt x="444" y="1595" on="1"/>
        <pt x="506" y="1662" on="0"/>
        <pt x="645" y="1840" on="0"/>
        <pt x="686" y="1907" on="1"/>
        <pt x="784" y="1907" on="1"/>
        <pt x="851" y="1788" on="0"/>
        <pt x="1026" y="1595" on="1"/>
      </contour>
      <contour>
        <pt x="1282" y="1462" on="1"/>
        <pt x="1282" y="516" on="1"/>
        <pt x="1282" y="264" on="0"/>
        <pt x="990" y="-20" on="0"/>
        <pt x="475" y="-20" on="0"/>
        <pt x="190" y="265" on="0"/>
        <pt x="190" y="520" on="1"/>
        <pt x="190" y="1462" on="1"/>
        <pt x="293" y="1462" on="1"/>
        <pt x="293" y="516" on="1"/>
        <pt x="293" y="305" on="0"/>
        <pt x="528" y="70" on="0"/>
        <pt x="950" y="70" on="0"/>
        <pt x="1180" y="300" on="0"/>
        <pt x="1180" y="506" on="1"/>
        <pt x="1180" y="1462" on="1"/>
      </contour>
    </TTGlyph>
    <TTGlyph name="Udieresis" xMin="190" yMin="-20" xMax="1282" yMax="1813">
      <contour>
        <pt x="544" y="1813" on="1"/>
        <pt x="608" y="1813" on="0"/>
        <pt x="608" y="1641" on="0"/>
        <pt x="481" y="1641" on="0"/>
        <pt x="481" y="1727" on="1"/>
        <pt x="481" y="1772" on="0"/>
        <pt x="511" y="1813" on="0"/>
      </contour>
      <contour>
        <pt x="925" y="1813" on="1"/>
        <pt x="989" y="1813" on="0"/>
        <pt x="989" y="1641" on="0"/>
        <pt x="862" y="1641" on="0"/>
        <pt x="862" y="1727" on="1"/>
        <pt x="862" y="1772" on="0"/>
        <pt x="892" y="1813" on="0"/>
      </contour>
      <contour>
        <pt x="1282" y="1462" on="1"/>
        <pt x="1282" y="516" on="1"/>
        <pt x="1282" y="264" on="0"/>
        <pt x="990" y="-20" on="0"/>
        <pt x="475" y="-20" on="0"/>
        <pt x="190" y="265" on="0"/>
        <pt x="190" y="520" on="1"/>
        <pt x="190" y="1462" on="1"/>
        <pt x="293" y="1462" on="1"/>
        <pt x="293" y="516" on="1"/>
        <pt x="293" y="305" on="0"/>
        <pt x="528" y="70" on="0"/>
        <pt x="950" y="70" on="0"/>
        <pt x="1180" y="300" on="0"/>
        <pt x="1180" y="506" on="1"/>
        <pt x="1180" y="1462" on="1"/>
      </contour>
    </TTGlyph>
    <TTGlyph name="Ugrave" xMin="190" yMin="-20" xMax="1282" yMax="1907">
      <contour>
        <pt x="450" y="1907" on="1"/>
        <pt x="592" y="1907" on="1"/>
        <pt x="618" y="1859" on="0"/>
        <pt x="764" y="1670" on="0"/>
        <pt x="833" y="1595" on="1"/>
        <pt x="833" y="1579" on="1"/>
        <pt x="764" y="1579" on="1"/>
        <pt x="670" y="1656" on="0"/>
        <pt x="484" y="1841" on="0"/>
        <pt x="450" y="1890" on="1"/>
      </contour>
      <contour>
        <pt x="1282" y="1462" on="1"/>
        <pt x="1282" y="516" on="1"/>
        <pt x="1282" y="264" on="0"/>
        <pt x="990" y="-20" on="0"/>
        <pt x="475" y="-20" on="0"/>
        <pt x="190" y="265" on="0"/>
        <pt x="190" y="520" on="1"/>
        <pt x="190" y="1462" on="1"/>
        <pt x="293" y="1462" on="1"/>
        <pt x="293" y="516" on="1"/>
        <pt x="293" y="305" on="0"/>
        <pt x="528" y="70" on="0"/>
        <pt x="950" y="70" on="0"/>
        <pt x="1180" y="300" on="0"/>
        <pt x="1180" y="506" on="1"/>
        <pt x="1180" y="1462" on="1"/>
      </contour>
    </TTGlyph>
    <TTGlyph name="V" xMin="0" yMin="0" xMax="1182" yMax="1462">
      <contour>
        <pt x="635" y="0" on="1"/>
        <pt x="545" y="0" on="1"/>
        <pt x="0" y="1462" on="1"/>
        <pt x="109" y="1462" on="1"/>
        <pt x="477" y="467" on="1"/>
        <pt x="562" y="239" on="0"/>
        <pt x="590" y="129" on="1"/>
        <pt x="608" y="197" on="0"/>
        <pt x="669" y="362" on="1"/>
        <pt x="1071" y="1462" on="1"/>
        <pt x="1182" y="1462" on="1"/>
      </contour>
    </TTGlyph>
    <TTGlyph name="W" xMin="51" yMin="0" xMax="1776" yMax="1462">
      <contour>
        <pt x="1372" y="0" on="1"/>
        <pt x="1288" y="0" on="1"/>
        <pt x="967" y="1128" on="1"/>
        <pt x="926" y="1268" on="0"/>
        <pt x="907" y="1356" on="1"/>
        <pt x="889" y="1261" on="0"/>
        <pt x="839" y="1070" on="0"/>
        <pt x="539" y="0" on="1"/>
        <pt x="453" y="0" on="1"/>
        <pt x="51" y="1462" on="1"/>
        <pt x="158" y="1462" on="1"/>
        <pt x="414" y="520" on="1"/>
        <pt x="484" y="253" on="0"/>
        <pt x="500" y="162" on="1"/>
        <pt x="524" y="296" on="0"/>
        <pt x="602" y="575" on="1"/>
        <pt x="852" y="1462" on="1"/>
        <pt x="965" y="1462" on="1"/>
        <pt x="1258" y="444" on="1"/>
        <pt x="1307" y="276" on="0"/>
        <pt x="1331" y="160" on="1"/>
        <pt x="1344" y="232" on="0"/>
        <pt x="1364" y="313" on="1"/>
        <pt x="1385" y="394" on="0"/>
        <pt x="1673" y="1462" on="1"/>
        <pt x="1776" y="1462" on="1"/>
      </contour>
    </TTGlyph>
    <TTGlyph name="X" xMin="0" yMin="0" xMax="1102" yMax="1462">
      <contour>
        <pt x="612" y="764" on="1"/>
        <pt x="1102" y="0" on="1"/>
        <pt x="984" y="0" on="1"/>
        <pt x="553" y="682" on="1"/>
        <pt x="113" y="0" on="1"/>
        <pt x="0" y="0" on="1"/>
        <pt x="492" y="762" on="1"/>
        <pt x="45" y="1462" on="1"/>
        <pt x="160" y="1462" on="1"/>
        <pt x="555" y="836" on="1"/>
        <pt x="956" y="1462" on="1"/>
        <pt x="1065" y="1462" on="1"/>
      </contour>
    </TTGlyph>
    <TTGlyph name="Y" xMin="0" yMin="0" xMax="1081" yMax="1462">
      <contour>
        <pt x="594" y="0" on="1"/>
        <pt x="489" y="0" on="1"/>
        <pt x="489" y="557" on="1"/>
        <pt x="0" y="1462" on="1"/>
        <pt x="117" y="1462" on="1"/>
        <pt x="543" y="662" on="1"/>
        <pt x="970" y="1462" on="1"/>
        <pt x="1081" y="1462" on="1"/>
        <pt x="594" y="565" on="1"/>
      </contour>
    </TTGlyph>
    <TTGlyph name="Yacute" xMin="0" yMin="0" xMax="1081" yMax="1907">
      <contour>
        <pt x="817" y="1907" on="1"/>
        <pt x="817" y="1890" on="1"/>
        <pt x="781" y="1838" on="0"/>
        <pt x="607" y="1665" on="0"/>
        <pt x="504" y="1579" on="1"/>
        <pt x="434" y="1579" on="1"/>
        <pt x="434" y="1595" on="1"/>
        <pt x="506" y="1673" on="0"/>
        <pt x="649" y="1858" on="0"/>
        <pt x="676" y="1907" on="1"/>
      </contour>
      <contour>
        <pt x="594" y="0" on="1"/>
        <pt x="489" y="0" on="1"/>
        <pt x="489" y="557" on="1"/>
        <pt x="0" y="1462" on="1"/>
        <pt x="117" y="1462" on="1"/>
        <pt x="543" y="662" on="1"/>
        <pt x="971" y="1462" on="1"/>
        <pt x="1081" y="1462" on="1"/>
        <pt x="594" y="565" on="1"/>
      </contour>
    </TTGlyph>
    <TTGlyph name="Ydieresis" xMin="0" yMin="0" xMax="1081" yMax="1813">
      <contour>
        <pt x="351" y="1813" on="1"/>
        <pt x="415" y="1813" on="0"/>
        <pt x="415" y="1641" on="0"/>
        <pt x="288" y="1641" on="0"/>
        <pt x="288" y="1727" on="1"/>
        <pt x="288" y="1772" on="0"/>
        <pt x="318" y="1813" on="0"/>
      </contour>
      <contour>
        <pt x="732" y="1813" on="1"/>
        <pt x="796" y="1813" on="0"/>
        <pt x="796" y="1641" on="0"/>
        <pt x="669" y="1641" on="0"/>
        <pt x="669" y="1727" on="1"/>
        <pt x="669" y="1772" on="0"/>
        <pt x="699" y="1813" on="0"/>
      </contour>
      <contour>
        <pt x="594" y="0" on="1"/>
        <pt x="489" y="0" on="1"/>
        <pt x="489" y="557" on="1"/>
        <pt x="0" y="1462" on="1"/>
        <pt x="117" y="1462" on="1"/>
        <pt x="543" y="662" on="1"/>
        <pt x="971" y="1462" on="1"/>
        <pt x="1081" y="1462" on="1"/>
        <pt x="594" y="565" on="1"/>
      </contour>
    </TTGlyph>
    <TTGlyph name="Z" xMin="82" yMin="0" xMax="1098" yMax="1462">
      <contour>
        <pt x="1098" y="95" on="1"/>
        <pt x="1098" y="0" on="1"/>
        <pt x="82" y="0" on="1"/>
        <pt x="82" y="76" on="1"/>
        <pt x="938" y="1366" on="1"/>
        <pt x="121" y="1366" on="1"/>
        <pt x="121" y="1462" on="1"/>
        <pt x="1075" y="1462" on="1"/>
        <pt x="1075" y="1386" on="1"/>
        <pt x="217" y="95" on="1"/>
      </contour>
    </TTGlyph>
    <TTGlyph name="Zcaron" xMin="82" yMin="0" xMax="1098" yMax="1907">
      <contour>
        <pt x="891" y="1907" on="1"/>
        <pt x="891" y="1890" on="1"/>
        <pt x="721" y="1702" on="0"/>
        <pt x="649" y="1579" on="1"/>
        <pt x="551" y="1579" on="1"/>
        <pt x="472" y="1711" on="0"/>
        <pt x="309" y="1890" on="1"/>
        <pt x="309" y="1907" on="1"/>
        <pt x="379" y="1907" on="1"/>
        <pt x="495" y="1811" on="0"/>
        <pt x="600" y="1700" on="1"/>
        <pt x="706" y="1812" on="0"/>
        <pt x="821" y="1907" on="1"/>
      </contour>
      <contour>
        <pt x="1098" y="96" on="1"/>
        <pt x="1098" y="0" on="1"/>
        <pt x="82" y="0" on="1"/>
        <pt x="82" y="76" on="1"/>
        <pt x="938" y="1366" on="1"/>
        <pt x="121" y="1366" on="1"/>
        <pt x="121" y="1462" on="1"/>
        <pt x="1075" y="1462" on="1"/>
        <pt x="1075" y="1386" on="1"/>
        <pt x="217" y="96" on="1"/>
      </contour>
    </TTGlyph>
    <TTGlyph name="a" xMin="97" yMin="-20" xMax="915" yMax="1106">
      <contour>
        <pt x="205" y="1022" on="1"/>
        <pt x="384" y="1106" on="0"/>
        <pt x="739" y="1106" on="0"/>
        <pt x="915" y="919" on="0"/>
        <pt x="915" y="723" on="1"/>
        <pt x="915" y="0" on="1"/>
        <pt x="842" y="0" on="1"/>
        <pt x="817" y="172" on="1"/>
        <pt x="809" y="172" on="1"/>
        <pt x="726" y="66" on="0"/>
        <pt x="555" y="-20" on="0"/>
        <pt x="436" y="-20" on="1"/>
        <pt x="276" y="-20" on="0"/>
        <pt x="97" y="143" on="0"/>
        <pt x="97" y="448" on="0"/>
        <pt x="363" y="624" on="0"/>
        <pt x="614" y="629" on="1"/>
        <pt x="821" y="635" on="1"/>
        <pt x="821" y="707" on="1"/>
        <pt x="821" y="865" on="0"/>
        <pt x="693" y="1020" on="0"/>
        <pt x="407" y="1020" on="0"/>
        <pt x="242" y="936" on="1"/>
      </contour>
      <contour>
        <pt x="203" y="285" on="1"/>
        <pt x="203" y="183" on="0"/>
        <pt x="328" y="70" on="0"/>
        <pt x="442" y="70" on="1"/>
        <pt x="616" y="70" on="0"/>
        <pt x="817" y="270" on="0"/>
        <pt x="817" y="446" on="1"/>
        <pt x="817" y="553" on="1"/>
        <pt x="627" y="545" on="1"/>
        <pt x="398" y="534" on="0"/>
        <pt x="203" y="413" on="0"/>
      </contour>
    </TTGlyph>
    <TTGlyph name="aacute" xMin="98" yMin="-20" xMax="915" yMax="1569">
      <contour>
        <pt x="805" y="1569" on="1"/>
        <pt x="805" y="1552" on="1"/>
        <pt x="769" y="1500" on="0"/>
        <pt x="595" y="1327" on="0"/>
        <pt x="492" y="1241" on="1"/>
        <pt x="422" y="1241" on="1"/>
        <pt x="422" y="1257" on="1"/>
        <pt x="494" y="1335" on="0"/>
        <pt x="637" y="1520" on="0"/>
        <pt x="664" y="1569" on="1"/>
      </contour>
      <contour>
        <pt x="205" y="1022" on="1"/>
        <pt x="384" y="1106" on="0"/>
        <pt x="739" y="1106" on="0"/>
        <pt x="915" y="919" on="0"/>
        <pt x="915" y="723" on="1"/>
        <pt x="915" y="0" on="1"/>
        <pt x="842" y="0" on="1"/>
        <pt x="817" y="172" on="1"/>
        <pt x="809" y="172" on="1"/>
        <pt x="728" y="68" on="0"/>
        <pt x="555" y="-20" on="0"/>
        <pt x="436" y="-20" on="1"/>
        <pt x="277" y="-20" on="0"/>
        <pt x="98" y="144" on="0"/>
        <pt x="98" y="289" on="1"/>
        <pt x="98" y="448" on="0"/>
        <pt x="363" y="624" on="0"/>
        <pt x="614" y="629" on="1"/>
        <pt x="821" y="635" on="1"/>
        <pt x="821" y="707" on="1"/>
        <pt x="821" y="865" on="0"/>
        <pt x="693" y="1020" on="0"/>
        <pt x="404" y="1020" on="0"/>
        <pt x="242" y="936" on="1"/>
      </contour>
      <contour>
        <pt x="203" y="285" on="1"/>
        <pt x="203" y="183" on="0"/>
        <pt x="328" y="70" on="0"/>
        <pt x="442" y="70" on="1"/>
        <pt x="617" y="70" on="0"/>
        <pt x="817" y="270" on="0"/>
        <pt x="817" y="446" on="1"/>
        <pt x="817" y="553" on="1"/>
        <pt x="627" y="545" on="1"/>
        <pt x="399" y="534" on="0"/>
        <pt x="203" y="413" on="0"/>
      </contour>
    </TTGlyph>
    <TTGlyph name="acircumflex" xMin="98" yMin="-20" xMax="915" yMax="1569">
      <contour>
        <pt x="833" y="1241" on="1"/>
        <pt x="763" y="1241" on="1"/>
        <pt x="639" y="1343" on="0"/>
        <pt x="542" y="1448" on="1"/>
        <pt x="436" y="1336" on="0"/>
        <pt x="321" y="1241" on="1"/>
        <pt x="251" y="1241" on="1"/>
        <pt x="251" y="1257" on="1"/>
        <pt x="313" y="1324" on="0"/>
        <pt x="452" y="1502" on="0"/>
        <pt x="493" y="1569" on="1"/>
        <pt x="591" y="1569" on="1"/>
        <pt x="658" y="1450" on="0"/>
        <pt x="833" y="1257" on="1"/>
      </contour>
      <contour>
        <pt x="205" y="1022" on="1"/>
        <pt x="384" y="1106" on="0"/>
        <pt x="739" y="1106" on="0"/>
        <pt x="915" y="919" on="0"/>
        <pt x="915" y="723" on="1"/>
        <pt x="915" y="0" on="1"/>
        <pt x="842" y="0" on="1"/>
        <pt x="817" y="172" on="1"/>
        <pt x="809" y="172" on="1"/>
        <pt x="728" y="68" on="0"/>
        <pt x="555" y="-20" on="0"/>
        <pt x="436" y="-20" on="1"/>
        <pt x="277" y="-20" on="0"/>
        <pt x="98" y="144" on="0"/>
        <pt x="98" y="289" on="1"/>
        <pt x="98" y="448" on="0"/>
        <pt x="363" y="624" on="0"/>
        <pt x="614" y="629" on="1"/>
        <pt x="821" y="635" on="1"/>
        <pt x="821" y="707" on="1"/>
        <pt x="821" y="865" on="0"/>
        <pt x="693" y="1020" on="0"/>
        <pt x="404" y="1020" on="0"/>
        <pt x="242" y="936" on="1"/>
      </contour>
      <contour>
        <pt x="203" y="285" on="1"/>
        <pt x="203" y="183" on="0"/>
        <pt x="328" y="70" on="0"/>
        <pt x="442" y="70" on="1"/>
        <pt x="617" y="70" on="0"/>
        <pt x="817" y="270" on="0"/>
        <pt x="817" y="446" on="1"/>
        <pt x="817" y="553" on="1"/>
        <pt x="627" y="545" on="1"/>
        <pt x="399" y="534" on="0"/>
        <pt x="203" y="413" on="0"/>
      </contour>
    </TTGlyph>
    <TTGlyph name="acute" xMin="393" yMin="1241" xMax="776" yMax="1569">
      <contour>
        <pt x="776" y="1569" on="1"/>
        <pt x="776" y="1552" on="1"/>
        <pt x="740" y="1500" on="0"/>
        <pt x="566" y="1327" on="0"/>
        <pt x="463" y="1241" on="1"/>
        <pt x="393" y="1241" on="1"/>
        <pt x="393" y="1257" on="1"/>
        <pt x="465" y="1335" on="0"/>
        <pt x="608" y="1520" on="0"/>
        <pt x="635" y="1569" on="1"/>
      </contour>
    </TTGlyph>
    <TTGlyph name="adieresis" xMin="98" yMin="-20" xMax="915" yMax="1475">
      <contour>
        <pt x="345" y="1475" on="1"/>
        <pt x="409" y="1475" on="0"/>
        <pt x="409" y="1303" on="0"/>
        <pt x="282" y="1303" on="0"/>
        <pt x="282" y="1389" on="1"/>
        <pt x="282" y="1434" on="0"/>
        <pt x="312" y="1475" on="0"/>
      </contour>
      <contour>
        <pt x="726" y="1475" on="1"/>
        <pt x="790" y="1475" on="0"/>
        <pt x="790" y="1303" on="0"/>
        <pt x="663" y="1303" on="0"/>
        <pt x="663" y="1389" on="1"/>
        <pt x="663" y="1434" on="0"/>
        <pt x="693" y="1475" on="0"/>
      </contour>
      <contour>
        <pt x="205" y="1022" on="1"/>
        <pt x="384" y="1106" on="0"/>
        <pt x="739" y="1106" on="0"/>
        <pt x="915" y="919" on="0"/>
        <pt x="915" y="723" on="1"/>
        <pt x="915" y="0" on="1"/>
        <pt x="842" y="0" on="1"/>
        <pt x="817" y="172" on="1"/>
        <pt x="809" y="172" on="1"/>
        <pt x="728" y="68" on="0"/>
        <pt x="555" y="-20" on="0"/>
        <pt x="436" y="-20" on="1"/>
        <pt x="277" y="-20" on="0"/>
        <pt x="98" y="144" on="0"/>
        <pt x="98" y="289" on="1"/>
        <pt x="98" y="448" on="0"/>
        <pt x="363" y="624" on="0"/>
        <pt x="614" y="629" on="1"/>
        <pt x="821" y="635" on="1"/>
        <pt x="821" y="707" on="1"/>
        <pt x="821" y="865" on="0"/>
        <pt x="693" y="1020" on="0"/>
        <pt x="404" y="1020" on="0"/>
        <pt x="242" y="936" on="1"/>
      </contour>
      <contour>
        <pt x="203" y="285" on="1"/>
        <pt x="203" y="183" on="0"/>
        <pt x="328" y="70" on="0"/>
        <pt x="442" y="70" on="1"/>
        <pt x="617" y="70" on="0"/>
        <pt x="817" y="270" on="0"/>
        <pt x="817" y="446" on="1"/>
        <pt x="817" y="553" on="1"/>
        <pt x="627" y="545" on="1"/>
        <pt x="399" y="534" on="0"/>
        <pt x="203" y="413" on="0"/>
      </contour>
    </TTGlyph>
    <TTGlyph name="ae" xMin="98" yMin="-20" xMax="1612" yMax="1108">
      <contour>
        <pt x="545" y="1106" on="1"/>
        <pt x="806" y="1106" on="0"/>
        <pt x="870" y="895" on="1"/>
        <pt x="981" y="1108" on="0"/>
        <pt x="1217" y="1108" on="1"/>
        <pt x="1400" y="1108" on="0"/>
        <pt x="1612" y="839" on="0"/>
        <pt x="1612" y="610" on="1"/>
        <pt x="1612" y="530" on="1"/>
        <pt x="897" y="530" on="1"/>
        <pt x="897" y="70" on="0"/>
        <pt x="1245" y="70" on="1"/>
        <pt x="1335" y="70" on="0"/>
        <pt x="1465" y="96" on="0"/>
        <pt x="1569" y="139" on="1"/>
        <pt x="1569" y="49" on="1"/>
        <pt x="1480" y="9" on="0"/>
        <pt x="1335" y="-20" on="0"/>
        <pt x="1243" y="-20" on="1"/>
        <pt x="948" y="-20" on="0"/>
        <pt x="846" y="236" on="1"/>
        <pt x="777" y="103" on="0"/>
        <pt x="578" y="-20" on="0"/>
        <pt x="271" y="-20" on="0"/>
        <pt x="98" y="144" on="0"/>
        <pt x="98" y="445" on="0"/>
        <pt x="351" y="621" on="0"/>
        <pt x="600" y="629" on="1"/>
        <pt x="801" y="635" on="1"/>
        <pt x="801" y="707" on="1"/>
        <pt x="801" y="865" on="0"/>
        <pt x="676" y="1020" on="0"/>
        <pt x="394" y="1020" on="0"/>
        <pt x="236" y="936" on="1"/>
        <pt x="199" y="1022" on="1"/>
        <pt x="371" y="1106" on="0"/>
      </contour>
      <contour>
        <pt x="1507" y="618" on="1"/>
        <pt x="1507" y="806" on="0"/>
        <pt x="1352" y="1020" on="0"/>
        <pt x="1217" y="1020" on="1"/>
        <pt x="933" y="1020" on="0"/>
        <pt x="903" y="618" on="1"/>
      </contour>
      <contour>
        <pt x="203" y="285" on="1"/>
        <pt x="203" y="183" on="0"/>
        <pt x="325" y="70" on="0"/>
        <pt x="434" y="70" on="1"/>
        <pt x="603" y="70" on="0"/>
        <pt x="797" y="270" on="0"/>
        <pt x="797" y="446" on="1"/>
        <pt x="797" y="553" on="1"/>
        <pt x="610" y="545" on="1"/>
        <pt x="391" y="534" on="0"/>
        <pt x="203" y="413" on="0"/>
      </contour>
    </TTGlyph>
    <TTGlyph name="agrave" xMin="98" yMin="-20" xMax="915" yMax="1569">
      <contour>
        <pt x="255" y="1569" on="1"/>
        <pt x="397" y="1569" on="1"/>
        <pt x="423" y="1521" on="0"/>
        <pt x="569" y="1332" on="0"/>
        <pt x="638" y="1257" on="1"/>
        <pt x="638" y="1241" on="1"/>
        <pt x="569" y="1241" on="1"/>
        <pt x="475" y="1318" on="0"/>
        <pt x="289" y="1503" on="0"/>
        <pt x="255" y="1552" on="1"/>
      </contour>
      <contour>
        <pt x="205" y="1022" on="1"/>
        <pt x="384" y="1106" on="0"/>
        <pt x="739" y="1106" on="0"/>
        <pt x="915" y="919" on="0"/>
        <pt x="915" y="723" on="1"/>
        <pt x="915" y="0" on="1"/>
        <pt x="842" y="0" on="1"/>
        <pt x="817" y="172" on="1"/>
        <pt x="809" y="172" on="1"/>
        <pt x="728" y="68" on="0"/>
        <pt x="555" y="-20" on="0"/>
        <pt x="436" y="-20" on="1"/>
        <pt x="277" y="-20" on="0"/>
        <pt x="98" y="144" on="0"/>
        <pt x="98" y="289" on="1"/>
        <pt x="98" y="448" on="0"/>
        <pt x="363" y="624" on="0"/>
        <pt x="614" y="629" on="1"/>
        <pt x="821" y="635" on="1"/>
        <pt x="821" y="707" on="1"/>
        <pt x="821" y="865" on="0"/>
        <pt x="693" y="1020" on="0"/>
        <pt x="404" y="1020" on="0"/>
        <pt x="242" y="936" on="1"/>
      </contour>
      <contour>
        <pt x="203" y="285" on="1"/>
        <pt x="203" y="183" on="0"/>
        <pt x="328" y="70" on="0"/>
        <pt x="442" y="70" on="1"/>
        <pt x="617" y="70" on="0"/>
        <pt x="817" y="270" on="0"/>
        <pt x="817" y="446" on="1"/>
        <pt x="817" y="553" on="1"/>
        <pt x="627" y="545" on="1"/>
        <pt x="399" y="534" on="0"/>
        <pt x="203" y="413" on="0"/>
      </contour>
    </TTGlyph>
    <TTGlyph name="alefdageshhb" xMin="112" yMin="0" xMax="1024" yMax="1290">
      <contour>
        <pt x="1013" y="1290" on="1"/>
        <pt x="1013" y="818" on="1"/>
        <pt x="1013" y="634" on="0"/>
        <pt x="952" y="536" on="1"/>
        <pt x="927" y="497" on="0"/>
        <pt x="836" y="429" on="0"/>
        <pt x="774" y="413" on="1"/>
        <pt x="1024" y="0" on="1"/>
        <pt x="914" y="0" on="1"/>
        <pt x="431" y="799" on="1"/>
        <pt x="386" y="799" on="0"/>
        <pt x="343" y="774" on="1"/>
        <pt x="272" y="734" on="0"/>
        <pt x="210" y="577" on="0"/>
        <pt x="210" y="448" on="1"/>
        <pt x="210" y="0" on="1"/>
        <pt x="112" y="0" on="1"/>
        <pt x="112" y="449" on="1"/>
        <pt x="112" y="619" on="0"/>
        <pt x="155" y="708" on="1"/>
        <pt x="174" y="748" on="0"/>
        <pt x="202" y="785" on="1"/>
        <pt x="260" y="861" on="0"/>
        <pt x="380" y="884" on="1"/>
        <pt x="134" y="1290" on="1"/>
        <pt x="243" y="1290" on="1"/>
        <pt x="723" y="497" on="1"/>
        <pt x="756" y="503" on="0"/>
        <pt x="782" y="517" on="1"/>
        <pt x="855" y="557" on="0"/>
        <pt x="915" y="692" on="0"/>
        <pt x="915" y="819" on="1"/>
        <pt x="915" y="1290" on="1"/>
      </contour>
      <contour>
        <pt x="431" y="448" on="1"/>
        <pt x="495" y="448" on="0"/>
        <pt x="495" y="298" on="0"/>
        <pt x="431" y="298" on="1"/>
        <pt x="370" y="298" on="0"/>
        <pt x="370" y="448" on="0"/>
      </contour>
    </TTGlyph>
    <TTGlyph name="alefpatahhb" xMin="112" yMin="-216" xMax="1024" yMax="1290">
      <contour>
        <pt x="1013" y="1290" on="1"/>
        <pt x="1013" y="818" on="1"/>
        <pt x="1013" y="634" on="0"/>
        <pt x="952" y="536" on="1"/>
        <pt x="927" y="497" on="0"/>
        <pt x="836" y="429" on="0"/>
        <pt x="774" y="413" on="1"/>
        <pt x="1024" y="0" on="1"/>
        <pt x="914" y="0" on="1"/>
        <pt x="431" y="799" on="1"/>
        <pt x="386" y="799" on="0"/>
        <pt x="343" y="774" on="1"/>
        <pt x="272" y="734" on="0"/>
        <pt x="210" y="577" on="0"/>
        <pt x="210" y="448" on="1"/>
        <pt x="210" y="0" on="1"/>
        <pt x="112" y="0" on="1"/>
        <pt x="112" y="449" on="1"/>
        <pt x="112" y="619" on="0"/>
        <pt x="155" y="708" on="1"/>
        <pt x="174" y="748" on="0"/>
        <pt x="202" y="785" on="1"/>
        <pt x="260" y="861" on="0"/>
        <pt x="380" y="884" on="1"/>
        <pt x="134" y="1290" on="1"/>
        <pt x="243" y="1290" on="1"/>
        <pt x="723" y="497" on="1"/>
        <pt x="756" y="503" on="0"/>
        <pt x="782" y="517" on="1"/>
        <pt x="855" y="557" on="0"/>
        <pt x="915" y="692" on="0"/>
        <pt x="915" y="819" on="1"/>
        <pt x="915" y="1290" on="1"/>
      </contour>
      <contour>
        <pt x="748" y="-216" on="1"/>
        <pt x="391" y="-216" on="1"/>
        <pt x="391" y="-144" on="1"/>
        <pt x="748" y="-144" on="1"/>
      </contour>
    </TTGlyph>
    <TTGlyph name="alefqamatshb" xMin="112" yMin="-417" xMax="1024" yMax="1290">
      <contour>
        <pt x="1013" y="1290" on="1"/>
        <pt x="1013" y="818" on="1"/>
        <pt x="1013" y="634" on="0"/>
        <pt x="952" y="536" on="1"/>
        <pt x="927" y="497" on="0"/>
        <pt x="836" y="429" on="0"/>
        <pt x="774" y="413" on="1"/>
        <pt x="1024" y="0" on="1"/>
        <pt x="914" y="0" on="1"/>
        <pt x="431" y="799" on="1"/>
        <pt x="386" y="799" on="0"/>
        <pt x="343" y="774" on="1"/>
        <pt x="272" y="734" on="0"/>
        <pt x="210" y="577" on="0"/>
        <pt x="210" y="448" on="1"/>
        <pt x="210" y="0" on="1"/>
        <pt x="112" y="0" on="1"/>
        <pt x="112" y="449" on="1"/>
        <pt x="112" y="619" on="0"/>
        <pt x="155" y="708" on="1"/>
        <pt x="174" y="748" on="0"/>
        <pt x="202" y="785" on="1"/>
        <pt x="260" y="861" on="0"/>
        <pt x="380" y="884" on="1"/>
        <pt x="134" y="1290" on="1"/>
        <pt x="243" y="1290" on="1"/>
        <pt x="723" y="497" on="1"/>
        <pt x="756" y="503" on="0"/>
        <pt x="782" y="517" on="1"/>
        <pt x="855" y="557" on="0"/>
        <pt x="915" y="692" on="0"/>
        <pt x="915" y="819" on="1"/>
        <pt x="915" y="1290" on="1"/>
      </contour>
      <contour>
        <pt x="748" y="-216" on="1"/>
        <pt x="605" y="-216" on="1"/>
        <pt x="605" y="-417" on="1"/>
        <pt x="534" y="-417" on="1"/>
        <pt x="534" y="-216" on="1"/>
        <pt x="391" y="-216" on="1"/>
        <pt x="391" y="-144" on="1"/>
        <pt x="748" y="-144" on="1"/>
      </contour>
    </TTGlyph>
    <TTGlyph name="ampersand" xMin="123" yMin="-20" xMax="1415" yMax="1485">
      <contour>
        <pt x="396" y="893" on="1"/>
        <pt x="266" y="1032" on="0"/>
        <pt x="266" y="1317" on="0"/>
        <pt x="361" y="1401" on="1"/>
        <pt x="457" y="1485" on="0"/>
        <pt x="773" y="1485" on="0"/>
        <pt x="954" y="1323" on="0"/>
        <pt x="954" y="1180" on="1"/>
        <pt x="954" y="1075" on="0"/>
        <pt x="884" y="986" on="1"/>
        <pt x="811" y="898" on="0"/>
        <pt x="631" y="793" on="1"/>
        <pt x="1083" y="336" on="1"/>
        <pt x="1202" y="477" on="0"/>
        <pt x="1262" y="694" on="1"/>
        <pt x="1358" y="694" on="1"/>
        <pt x="1295" y="449" on="0"/>
        <pt x="1149" y="268" on="1"/>
        <pt x="1415" y="0" on="1"/>
        <pt x="1280" y="0" on="1"/>
        <pt x="1087" y="197" on="1"/>
        <pt x="995" y="106" on="0"/>
        <pt x="923" y="65" on="1"/>
        <pt x="777" y="-20" on="0"/>
        <pt x="361" y="-20" on="0"/>
        <pt x="123" y="187" on="0"/>
        <pt x="123" y="371" on="1"/>
        <pt x="123" y="509" on="0"/>
        <pt x="269" y="702" on="0"/>
        <pt x="471" y="811" on="1"/>
      </contour>
      <contour>
        <pt x="848" y="1277" on="0"/>
        <pt x="724" y="1395" on="0"/>
        <pt x="504" y="1395" on="0"/>
        <pt x="373" y="1279" on="0"/>
        <pt x="373" y="1176" on="1"/>
        <pt x="373" y="1097" on="0"/>
        <pt x="453" y="962" on="0"/>
        <pt x="565" y="856" on="1"/>
        <pt x="725" y="942" on="0"/>
        <pt x="848" y="1089" on="0"/>
      </contour>
      <contour>
        <pt x="342" y="622" on="1"/>
        <pt x="227" y="526" on="0"/>
        <pt x="227" y="232" on="0"/>
        <pt x="411" y="70" on="0"/>
        <pt x="578" y="70" on="1"/>
        <pt x="707" y="70" on="0"/>
        <pt x="918" y="156" on="0"/>
        <pt x="1022" y="260" on="1"/>
        <pt x="539" y="745" on="1"/>
        <pt x="405" y="674" on="0"/>
      </contour>
    </TTGlyph>
    <TTGlyph name="aring" xMin="98" yMin="-20" xMax="915" yMax="1667">
      <contour>
        <pt x="325" y="1550" on="0"/>
        <pt x="445" y="1667" on="0"/>
        <pt x="638" y="1667" on="0"/>
        <pt x="759" y="1549" on="0"/>
        <pt x="759" y="1360" on="0"/>
        <pt x="639" y="1243" on="0"/>
        <pt x="445" y="1243" on="0"/>
        <pt x="325" y="1360" on="0"/>
      </contour>
      <contour>
        <pt x="679" y="1519" on="0"/>
        <pt x="602" y="1595" on="0"/>
        <pt x="480" y="1595" on="0"/>
        <pt x="405" y="1519" on="0"/>
        <pt x="405" y="1390" on="0"/>
        <pt x="479" y="1315" on="0"/>
        <pt x="605" y="1315" on="0"/>
        <pt x="679" y="1390" on="0"/>
      </contour>
      <contour>
        <pt x="205" y="1022" on="1"/>
        <pt x="384" y="1106" on="0"/>
        <pt x="739" y="1106" on="0"/>
        <pt x="915" y="919" on="0"/>
        <pt x="915" y="723" on="1"/>
        <pt x="915" y="0" on="1"/>
        <pt x="842" y="0" on="1"/>
        <pt x="817" y="172" on="1"/>
        <pt x="809" y="172" on="1"/>
        <pt x="728" y="68" on="0"/>
        <pt x="555" y="-20" on="0"/>
        <pt x="436" y="-20" on="1"/>
        <pt x="277" y="-20" on="0"/>
        <pt x="98" y="144" on="0"/>
        <pt x="98" y="289" on="1"/>
        <pt x="98" y="448" on="0"/>
        <pt x="363" y="624" on="0"/>
        <pt x="614" y="629" on="1"/>
        <pt x="821" y="635" on="1"/>
        <pt x="821" y="707" on="1"/>
        <pt x="821" y="865" on="0"/>
        <pt x="693" y="1020" on="0"/>
        <pt x="404" y="1020" on="0"/>
        <pt x="242" y="936" on="1"/>
      </contour>
      <contour>
        <pt x="203" y="285" on="1"/>
        <pt x="203" y="183" on="0"/>
        <pt x="328" y="70" on="0"/>
        <pt x="442" y="70" on="1"/>
        <pt x="617" y="70" on="0"/>
        <pt x="817" y="270" on="0"/>
        <pt x="817" y="446" on="1"/>
        <pt x="817" y="553" on="1"/>
        <pt x="627" y="545" on="1"/>
        <pt x="399" y="534" on="0"/>
        <pt x="203" y="413" on="0"/>
      </contour>
    </TTGlyph>
    <TTGlyph name="asciicircum" xMin="88" yMin="561" xMax="1081" yMax="1473">
      <contour>
        <pt x="1081" y="561" on="1"/>
        <pt x="980" y="561" on="1"/>
        <pt x="586" y="1352" on="1"/>
        <pt x="188" y="561" on="1"/>
        <pt x="88" y="561" on="1"/>
        <pt x="553" y="1473" on="1"/>
        <pt x="621" y="1473" on="1"/>
      </contour>
    </TTGlyph>
    <TTGlyph name="asciitilde" xMin="111" yMin="616" xMax="1059" yMax="829">
      <contour>
        <pt x="344" y="829" on="1"/>
        <pt x="403" y="829" on="0"/>
        <pt x="514" y="801" on="0"/>
        <pt x="614" y="758" on="1"/>
        <pt x="739" y="700" on="0"/>
        <pt x="834" y="700" on="1"/>
        <pt x="889" y="700" on="0"/>
        <pt x="995" y="760" on="0"/>
        <pt x="1059" y="825" on="1"/>
        <pt x="1059" y="729" on="1"/>
        <pt x="946" y="616" on="0"/>
        <pt x="710" y="616" on="0"/>
        <pt x="555" y="688" on="1"/>
        <pt x="431" y="745" on="0"/>
        <pt x="334" y="745" on="1"/>
        <pt x="284" y="745" on="0"/>
        <pt x="166" y="683" on="0"/>
        <pt x="111" y="625" on="1"/>
        <pt x="111" y="719" on="1"/>
        <pt x="219" y="829" on="0"/>
      </contour>
    </TTGlyph>
    <TTGlyph name="asterisk" xMin="104" yMin="674" xMax="1020" yMax="1556">
      <contour>
        <pt x="594" y="1151" on="1"/>
        <pt x="998" y="1255" on="1"/>
        <pt x="1020" y="1124" on="1"/>
        <pt x="625" y="1085" on="1"/>
        <pt x="872" y="745" on="1"/>
        <pt x="748" y="674" on="1"/>
        <pt x="557" y="1053" on="1"/>
        <pt x="377" y="674" on="1"/>
        <pt x="252" y="745" on="1"/>
        <pt x="494" y="1085" on="1"/>
        <pt x="104" y="1124" on="1"/>
        <pt x="123" y="1255" on="1"/>
        <pt x="524" y="1151" on="1"/>
        <pt x="485" y="1556" on="1"/>
        <pt x="631" y="1556" on="1"/>
      </contour>
    </TTGlyph>
    <TTGlyph name="at" xMin="113" yMin="-197" xMax="1702" yMax="1452">
      <contour>
        <pt x="852" y="-197" on="1"/>
        <pt x="503" y="-197" on="0"/>
        <pt x="113" y="204" on="0"/>
        <pt x="113" y="561" on="1"/>
        <pt x="113" y="817" on="0"/>
        <pt x="331" y="1227" on="0"/>
        <pt x="728" y="1452" on="0"/>
        <pt x="976" y="1452" on="1"/>
        <pt x="1191" y="1452" on="0"/>
        <pt x="1524" y="1274" on="0"/>
        <pt x="1612" y="1108" on="1"/>
        <pt x="1702" y="942" on="0"/>
        <pt x="1702" y="496" on="0"/>
        <pt x="1521" y="221" on="0"/>
        <pt x="1366" y="221" on="1"/>
        <pt x="1277" y="221" on="0"/>
        <pt x="1166" y="329" on="0"/>
        <pt x="1157" y="422" on="1"/>
        <pt x="1153" y="422" on="1"/>
        <pt x="1111" y="323" on="0"/>
        <pt x="949" y="221" on="0"/>
        <pt x="840" y="221" on="1"/>
        <pt x="692" y="221" on="0"/>
        <pt x="530" y="414" on="0"/>
        <pt x="530" y="588" on="1"/>
        <pt x="530" y="790" on="0"/>
        <pt x="772" y="1047" on="0"/>
        <pt x="965" y="1047" on="1"/>
        <pt x="1101" y="1047" on="0"/>
        <pt x="1251" y="1006" on="1"/>
        <pt x="1229" y="542" on="1"/>
        <pt x="1229" y="512" on="1"/>
        <pt x="1229" y="406" on="0"/>
        <pt x="1300" y="303" on="0"/>
        <pt x="1380" y="303" on="1"/>
        <pt x="1483" y="303" on="0"/>
        <pt x="1614" y="536" on="0"/>
        <pt x="1614" y="918" on="0"/>
        <pt x="1455" y="1210" on="0"/>
        <pt x="1309" y="1287" on="1"/>
        <pt x="1164" y="1366" on="0"/>
        <pt x="974" y="1366" on="1"/>
        <pt x="744" y="1366" on="0"/>
        <pt x="394" y="1167" on="0"/>
        <pt x="205" y="805" on="0"/>
        <pt x="205" y="567" on="1"/>
        <pt x="205" y="245" on="0"/>
        <pt x="538" y="-106" on="0"/>
        <pt x="846" y="-106" on="1"/>
        <pt x="929" y="-106" on="0"/>
        <pt x="1132" y="-70" on="0"/>
        <pt x="1266" y="-18" on="1"/>
        <pt x="1266" y="-117" on="1"/>
        <pt x="1062" y="-197" on="0"/>
      </contour>
      <contour>
        <pt x="958" y="967" on="1"/>
        <pt x="809" y="967" on="0"/>
        <pt x="633" y="763" on="0"/>
        <pt x="633" y="590" on="1"/>
        <pt x="633" y="445" on="0"/>
        <pt x="744" y="303" on="0"/>
        <pt x="862" y="303" on="1"/>
        <pt x="1117" y="303" on="0"/>
        <pt x="1135" y="649" on="1"/>
        <pt x="1151" y="940" on="1"/>
        <pt x="1071" y="967" on="0"/>
      </contour>
    </TTGlyph>
    <TTGlyph name="atilde" xMin="98" yMin="-20" xMax="915" yMax="1481">
      <contour>
        <pt x="697" y="1243" on="1"/>
        <pt x="659" y="1243" on="0"/>
        <pt x="581" y="1282" on="0"/>
        <pt x="494" y="1355" on="0"/>
        <pt x="478" y="1366" on="1"/>
        <pt x="433" y="1399" on="0"/>
        <pt x="350" y="1399" on="0"/>
        <pt x="291" y="1328" on="0"/>
        <pt x="273" y="1243" on="1"/>
        <pt x="200" y="1243" on="1"/>
        <pt x="210" y="1354" on="0"/>
        <pt x="316" y="1481" on="0"/>
        <pt x="400" y="1481" on="1"/>
        <pt x="430" y="1481" on="0"/>
        <pt x="493" y="1455" on="0"/>
        <pt x="534" y="1426" on="0"/>
        <pt x="599" y="1373" on="0"/>
        <pt x="616" y="1360" on="1"/>
        <pt x="662" y="1325" on="0"/>
        <pt x="697" y="1325" on="1"/>
        <pt x="790" y="1325" on="0"/>
        <pt x="822" y="1481" on="1"/>
        <pt x="898" y="1481" on="1"/>
        <pt x="882" y="1366" on="0"/>
        <pt x="777" y="1243" on="0"/>
      </contour>
      <contour>
        <pt x="205" y="1022" on="1"/>
        <pt x="384" y="1106" on="0"/>
        <pt x="739" y="1106" on="0"/>
        <pt x="915" y="919" on="0"/>
        <pt x="915" y="723" on="1"/>
        <pt x="915" y="0" on="1"/>
        <pt x="842" y="0" on="1"/>
        <pt x="817" y="172" on="1"/>
        <pt x="809" y="172" on="1"/>
        <pt x="728" y="68" on="0"/>
        <pt x="555" y="-20" on="0"/>
        <pt x="436" y="-20" on="1"/>
        <pt x="277" y="-20" on="0"/>
        <pt x="98" y="144" on="0"/>
        <pt x="98" y="289" on="1"/>
        <pt x="98" y="448" on="0"/>
        <pt x="363" y="624" on="0"/>
        <pt x="614" y="629" on="1"/>
        <pt x="821" y="635" on="1"/>
        <pt x="821" y="707" on="1"/>
        <pt x="821" y="865" on="0"/>
        <pt x="693" y="1020" on="0"/>
        <pt x="404" y="1020" on="0"/>
        <pt x="242" y="936" on="1"/>
      </contour>
      <contour>
        <pt x="203" y="285" on="1"/>
        <pt x="203" y="183" on="0"/>
        <pt x="328" y="70" on="0"/>
        <pt x="442" y="70" on="1"/>
        <pt x="617" y="70" on="0"/>
        <pt x="817" y="270" on="0"/>
        <pt x="817" y="446" on="1"/>
        <pt x="817" y="553" on="1"/>
        <pt x="627" y="545" on="1"/>
        <pt x="399" y="534" on="0"/>
        <pt x="203" y="413" on="0"/>
      </contour>
    </TTGlyph>
    <TTGlyph name="b" xMin="182" yMin="-20" xMax="1100" yMax="1556">
      <contour>
        <pt x="281" y="1556" on="1"/>
        <pt x="281" y="1165" on="1"/>
        <pt x="281" y="1068" on="0"/>
        <pt x="277" y="1003" on="1"/>
        <pt x="274" y="918" on="1"/>
        <pt x="281" y="918" on="1"/>
        <pt x="343" y="1016" on="0"/>
        <pt x="518" y="1108" on="0"/>
        <pt x="641" y="1108" on="1"/>
        <pt x="868" y="1108" on="0"/>
        <pt x="1100" y="822" on="0"/>
        <pt x="1100" y="274" on="0"/>
        <pt x="977" y="127" on="1"/>
        <pt x="857" y="-20" on="0"/>
        <pt x="637" y="-20" on="1"/>
        <pt x="521" y="-20" on="0"/>
        <pt x="335" y="76" on="0"/>
        <pt x="281" y="164" on="1"/>
        <pt x="272" y="164" on="1"/>
        <pt x="244" y="0" on="1"/>
        <pt x="182" y="0" on="1"/>
        <pt x="182" y="1556" on="1"/>
      </contour>
      <contour>
        <pt x="281" y="545" on="1"/>
        <pt x="281" y="528" on="1"/>
        <pt x="281" y="282" on="0"/>
        <pt x="454" y="68" on="0"/>
        <pt x="813" y="68" on="0"/>
        <pt x="994" y="315" on="0"/>
        <pt x="994" y="547" on="1"/>
        <pt x="994" y="1018" on="0"/>
        <pt x="639" y="1018" on="1"/>
        <pt x="448" y="1018" on="0"/>
        <pt x="281" y="798" on="0"/>
      </contour>
    </TTGlyph>
    <TTGlyph name="backslash" xMin="25" yMin="0" xMax="674" yMax="1462">
      <contour>
        <pt x="674" y="0" on="1"/>
        <pt x="571" y="0" on="1"/>
        <pt x="25" y="1462" on="1"/>
        <pt x="127" y="1462" on="1"/>
      </contour>
    </TTGlyph>
    <TTGlyph name="bar" xMin="508" yMin="-506" xMax="600" yMax="1561">
      <contour>
        <pt x="600" y="-506" on="1"/>
        <pt x="508" y="-506" on="1"/>
        <pt x="508" y="1561" on="1"/>
        <pt x="600" y="1561" on="1"/>
      </contour>
    </TTGlyph>
    <TTGlyph name="betdageshhb" xMin="72" yMin="0" xMax="976" yMax="1310">
      <contour>
        <pt x="72" y="1300" on="1"/>
        <pt x="228" y="1310" on="0"/>
        <pt x="434" y="1310" on="0"/>
        <pt x="565" y="1293" on="0"/>
        <pt x="691" y="1244" on="0"/>
        <pt x="774" y="1165" on="0"/>
        <pt x="825" y="1034" on="0"/>
        <pt x="825" y="946" on="1"/>
        <pt x="825" y="88" on="1"/>
        <pt x="976" y="88" on="1"/>
        <pt x="976" y="0" on="1"/>
        <pt x="73" y="0" on="1"/>
        <pt x="73" y="88" on="1"/>
        <pt x="723" y="88" on="1"/>
        <pt x="723" y="946" on="1"/>
        <pt x="723" y="1080" on="0"/>
        <pt x="652" y="1146" on="1"/>
        <pt x="595" y="1201" on="0"/>
        <pt x="470" y="1214" on="1"/>
        <pt x="420" y="1220" on="0"/>
        <pt x="252" y="1220" on="0"/>
        <pt x="72" y="1209" on="1"/>
      </contour>
      <contour>
        <pt x="369" y="741" on="1"/>
        <pt x="433" y="741" on="0"/>
        <pt x="433" y="591" on="0"/>
        <pt x="369" y="591" on="1"/>
        <pt x="308" y="591" on="0"/>
        <pt x="308" y="741" on="0"/>
      </contour>
    </TTGlyph>
    <TTGlyph name="braceleft" xMin="61" yMin="-324" xMax="651" yMax="1462">
      <contour>
        <pt x="389" y="1157" on="1"/>
        <pt x="389" y="852" on="1"/>
        <pt x="389" y="723" on="0"/>
        <pt x="302" y="594" on="0"/>
        <pt x="203" y="573" on="1"/>
        <pt x="203" y="565" on="1"/>
        <pt x="300" y="545" on="0"/>
        <pt x="389" y="417" on="0"/>
        <pt x="389" y="295" on="1"/>
        <pt x="389" y="-27" on="1"/>
        <pt x="389" y="-131" on="0"/>
        <pt x="510" y="-230" on="0"/>
        <pt x="651" y="-233" on="1"/>
        <pt x="651" y="-324" on="1"/>
        <pt x="456" y="-324" on="0"/>
        <pt x="373" y="-249" on="1"/>
        <pt x="291" y="-174" on="0"/>
        <pt x="291" y="-18" on="1"/>
        <pt x="291" y="319" on="1"/>
        <pt x="291" y="523" on="0"/>
        <pt x="61" y="528" on="1"/>
        <pt x="61" y="608" on="1"/>
        <pt x="182" y="610" on="0"/>
        <pt x="291" y="707" on="0"/>
        <pt x="291" y="807" on="1"/>
        <pt x="291" y="1157" on="1"/>
        <pt x="291" y="1456" on="0"/>
        <pt x="651" y="1462" on="1"/>
        <pt x="651" y="1372" on="1"/>
        <pt x="514" y="1367" on="0"/>
        <pt x="389" y="1262" on="0"/>
      </contour>
    </TTGlyph>
    <TTGlyph name="braceright" xMin="72" yMin="-324" xMax="662" yMax="1462">
      <contour>
        <pt x="72" y="1462" on="1"/>
        <pt x="247" y="1462" on="0"/>
        <pt x="432" y="1306" on="0"/>
        <pt x="432" y="1157" on="1"/>
        <pt x="432" y="807" on="1"/>
        <pt x="432" y="707" on="0"/>
        <pt x="542" y="610" on="0"/>
        <pt x="662" y="608" on="1"/>
        <pt x="662" y="528" on="1"/>
        <pt x="432" y="523" on="0"/>
        <pt x="432" y="319" on="1"/>
        <pt x="432" y="-18" on="1"/>
        <pt x="432" y="-173" on="0"/>
        <pt x="267" y="-324" on="0"/>
        <pt x="72" y="-324" on="1"/>
        <pt x="72" y="-233" on="1"/>
        <pt x="211" y="-231" on="0"/>
        <pt x="334" y="-131" on="0"/>
        <pt x="334" y="-27" on="1"/>
        <pt x="334" y="295" on="1"/>
        <pt x="334" y="417" on="0"/>
        <pt x="423" y="545" on="0"/>
        <pt x="520" y="565" on="1"/>
        <pt x="520" y="573" on="1"/>
        <pt x="422" y="594" on="0"/>
        <pt x="334" y="722" on="0"/>
        <pt x="334" y="852" on="1"/>
        <pt x="334" y="1157" on="1"/>
        <pt x="334" y="1261" on="0"/>
        <pt x="209" y="1367" on="0"/>
        <pt x="72" y="1372" on="1"/>
      </contour>
    </TTGlyph>
    <TTGlyph name="bracketleft" xMin="174" yMin="-324" xMax="602" yMax="1462">
      <contour>
        <pt x="602" y="1368" on="1"/>
        <pt x="272" y="1368" on="1"/>
        <pt x="272" y="-229" on="1"/>
        <pt x="602" y="-229" on="1"/>
        <pt x="602" y="-324" on="1"/>
        <pt x="174" y="-324" on="1"/>
        <pt x="174" y="1462" on="1"/>
        <pt x="602" y="1462" on="1"/>
      </contour>
    </TTGlyph>
    <TTGlyph name="bracketright" xMin="51" yMin="-324" xMax="479" yMax="1462">
      <contour>
        <pt x="479" y="-324" on="1"/>
        <pt x="51" y="-324" on="1"/>
        <pt x="51" y="-229" on="1"/>
        <pt x="381" y="-229" on="1"/>
        <pt x="381" y="1368" on="1"/>
        <pt x="51" y="1368" on="1"/>
        <pt x="51" y="1462" on="1"/>
        <pt x="479" y="1462" on="1"/>
      </contour>
    </TTGlyph>
    <TTGlyph name="breve" xMin="311" yMin="1241" xMax="864" yMax="1487">
      <contour>
        <pt x="864" y="1487" on="1"/>
        <pt x="834" y="1241" on="0"/>
        <pt x="334" y="1241" on="0"/>
        <pt x="311" y="1487" on="1"/>
        <pt x="393" y="1487" on="1"/>
        <pt x="407" y="1401" on="0"/>
        <pt x="500" y="1325" on="0"/>
        <pt x="676" y="1325" on="0"/>
        <pt x="769" y="1401" on="0"/>
        <pt x="784" y="1487" on="1"/>
      </contour>
    </TTGlyph>
    <TTGlyph name="brokenbar" xMin="508" yMin="-506" xMax="600" yMax="1561">
      <contour>
        <pt x="600" y="797" on="1"/>
        <pt x="508" y="797" on="1"/>
        <pt x="508" y="1561" on="1"/>
        <pt x="600" y="1561" on="1"/>
      </contour>
      <contour>
        <pt x="600" y="-506" on="1"/>
        <pt x="508" y="-506" on="1"/>
        <pt x="508" y="258" on="1"/>
        <pt x="600" y="258" on="1"/>
      </contour>
    </TTGlyph>
    <TTGlyph name="bullet" xMin="231" yMin="567" xMax="539" yMax="928">
      <contour>
        <pt x="231" y="836" on="0"/>
        <pt x="311" y="928" on="0"/>
        <pt x="458" y="928" on="0"/>
        <pt x="539" y="834" on="0"/>
        <pt x="539" y="663" on="0"/>
        <pt x="457" y="567" on="0"/>
        <pt x="313" y="567" on="0"/>
        <pt x="231" y="662" on="0"/>
      </contour>
    </TTGlyph>
    <TTGlyph name="c" xMin="119" yMin="-20" xMax="901" yMax="1108">
      <contour>
        <pt x="616" y="-20" on="1"/>
        <pt x="383" y="-20" on="0"/>
        <pt x="119" y="274" on="0"/>
        <pt x="119" y="806" on="0"/>
        <pt x="392" y="1108" on="0"/>
        <pt x="631" y="1108" on="1"/>
        <pt x="773" y="1108" on="0"/>
        <pt x="901" y="1059" on="1"/>
        <pt x="874" y="970" on="1"/>
        <pt x="733" y="1018" on="0"/>
        <pt x="629" y="1018" on="1"/>
        <pt x="430" y="1018" on="0"/>
        <pt x="223" y="772" on="0"/>
        <pt x="223" y="318" on="0"/>
        <pt x="429" y="70" on="0"/>
        <pt x="614" y="70" on="1"/>
        <pt x="760" y="70" on="0"/>
        <pt x="889" y="123" on="1"/>
        <pt x="889" y="31" on="1"/>
        <pt x="786" y="-20" on="0"/>
      </contour>
    </TTGlyph>
    <TTGlyph name="caron" xMin="299" yMin="1241" xMax="881" yMax="1569">
      <contour>
        <pt x="881" y="1569" on="1"/>
        <pt x="881" y="1552" on="1"/>
        <pt x="711" y="1364" on="0"/>
        <pt x="639" y="1241" on="1"/>
        <pt x="541" y="1241" on="1"/>
        <pt x="462" y="1373" on="0"/>
        <pt x="299" y="1552" on="1"/>
        <pt x="299" y="1569" on="1"/>
        <pt x="369" y="1569" on="1"/>
        <pt x="485" y="1473" on="0"/>
        <pt x="590" y="1362" on="1"/>
        <pt x="696" y="1474" on="0"/>
        <pt x="811" y="1569" on="1"/>
      </contour>
    </TTGlyph>
    <TTGlyph name="ccedilla" xMin="119" yMin="-492" xMax="901" yMax="1108">
      <contour>
        <pt x="629" y="1018" on="1"/>
        <pt x="430" y="1018" on="0"/>
        <pt x="223" y="772" on="0"/>
        <pt x="223" y="319" on="0"/>
        <pt x="429" y="70" on="0"/>
        <pt x="614" y="70" on="1"/>
        <pt x="760" y="70" on="0"/>
        <pt x="889" y="123" on="1"/>
        <pt x="889" y="31" on="1"/>
        <pt x="786" y="-20" on="0"/>
        <pt x="616" y="-20" on="1"/>
        <pt x="610" y="-20" on="1"/>
        <pt x="555" y="-117" on="1"/>
        <pt x="723" y="-154" on="0"/>
        <pt x="723" y="-291" on="1"/>
        <pt x="723" y="-390" on="0"/>
        <pt x="589" y="-492" on="0"/>
        <pt x="467" y="-492" on="1"/>
        <pt x="400" y="-492" on="0"/>
        <pt x="373" y="-481" on="1"/>
        <pt x="373" y="-393" on="1"/>
        <pt x="402" y="-403" on="0"/>
        <pt x="543" y="-403" on="0"/>
        <pt x="625" y="-347" on="0"/>
        <pt x="625" y="-295" on="1"/>
        <pt x="625" y="-201" on="0"/>
        <pt x="432" y="-174" on="1"/>
        <pt x="518" y="-13" on="1"/>
        <pt x="328" y="17" on="0"/>
        <pt x="119" y="304" on="0"/>
        <pt x="119" y="537" on="1"/>
        <pt x="119" y="806" on="0"/>
        <pt x="392" y="1108" on="0"/>
        <pt x="631" y="1108" on="1"/>
        <pt x="773" y="1108" on="0"/>
        <pt x="901" y="1059" on="1"/>
        <pt x="874" y="971" on="1"/>
        <pt x="731" y="1018" on="0"/>
      </contour>
    </TTGlyph>
    <TTGlyph name="cedilla" xMin="43" yMin="-492" xMax="393" yMax="0">
      <contour>
        <pt x="393" y="-291" on="1"/>
        <pt x="393" y="-390" on="0"/>
        <pt x="259" y="-492" on="0"/>
        <pt x="137" y="-492" on="1"/>
        <pt x="70" y="-492" on="0"/>
        <pt x="43" y="-481" on="1"/>
        <pt x="43" y="-393" on="1"/>
        <pt x="72" y="-403" on="0"/>
        <pt x="213" y="-403" on="0"/>
        <pt x="295" y="-347" on="0"/>
        <pt x="295" y="-295" on="1"/>
        <pt x="295" y="-201" on="0"/>
        <pt x="102" y="-174" on="1"/>
        <pt x="195" y="0" on="1"/>
        <pt x="291" y="0" on="1"/>
        <pt x="225" y="-117" on="1"/>
        <pt x="393" y="-154" on="0"/>
      </contour>
    </TTGlyph>
    <TTGlyph name="cent" xMin="211" yMin="-20" xMax="972" yMax="1483">
      <contour>
        <pt x="684" y="1317" on="1"/>
        <pt x="698" y="1317" on="1"/>
        <pt x="831" y="1317" on="0"/>
        <pt x="972" y="1262" on="1"/>
        <pt x="942" y="1178" on="1"/>
        <pt x="808" y="1229" on="0"/>
        <pt x="705" y="1229" on="1"/>
        <pt x="517" y="1229" on="0"/>
        <pt x="315" y="983" on="0"/>
        <pt x="315" y="522" on="0"/>
        <pt x="515" y="274" on="0"/>
        <pt x="696" y="274" on="1"/>
        <pt x="828" y="274" on="0"/>
        <pt x="963" y="332" on="1"/>
        <pt x="963" y="240" on="1"/>
        <pt x="853" y="184" on="0"/>
        <pt x="696" y="184" on="1"/>
        <pt x="684" y="184" on="1"/>
        <pt x="684" y="-20" on="1"/>
        <pt x="602" y="-20" on="1"/>
        <pt x="602" y="190" on="1"/>
        <pt x="416" y="220" on="0"/>
        <pt x="313" y="365" on="1"/>
        <pt x="211" y="510" on="0"/>
        <pt x="211" y="978" on="0"/>
        <pt x="417" y="1276" on="0"/>
        <pt x="602" y="1309" on="1"/>
        <pt x="602" y="1483" on="1"/>
        <pt x="684" y="1483" on="1"/>
      </contour>
    </TTGlyph>
    <TTGlyph name="circumflex" xMin="299" yMin="1241" xMax="881" yMax="1569">
      <contour>
        <pt x="881" y="1241" on="1"/>
        <pt x="811" y="1241" on="1"/>
        <pt x="687" y="1343" on="0"/>
        <pt x="590" y="1448" on="1"/>
        <pt x="484" y="1336" on="0"/>
        <pt x="369" y="1241" on="1"/>
        <pt x="299" y="1241" on="1"/>
        <pt x="299" y="1257" on="1"/>
        <pt x="361" y="1324" on="0"/>
        <pt x="500" y="1502" on="0"/>
        <pt x="541" y="1569" on="1"/>
        <pt x="639" y="1569" on="1"/>
        <pt x="706" y="1450" on="0"/>
        <pt x="881" y="1257" on="1"/>
      </contour>
    </TTGlyph>
    <TTGlyph name="colon" xMin="162" yMin="-20" xMax="324" yMax="1069">
      <contour>
        <pt x="242" y="1069" on="1"/>
        <pt x="324" y="1069" on="0"/>
        <pt x="324" y="970" on="1"/>
        <pt x="324" y="920" on="0"/>
        <pt x="280" y="872" on="0"/>
        <pt x="206" y="872" on="0"/>
        <pt x="162" y="920" on="0"/>
        <pt x="162" y="970" on="1"/>
        <pt x="162" y="1069" on="0"/>
      </contour>
      <contour>
        <pt x="242" y="176" on="1"/>
        <pt x="324" y="176" on="0"/>
        <pt x="324" y="-20" on="0"/>
        <pt x="242" y="-20" on="1"/>
        <pt x="162" y="-20" on="0"/>
        <pt x="162" y="176" on="0"/>
      </contour>
    </TTGlyph>
    <TTGlyph name="comma" xMin="68" yMin="-264" xMax="307" yMax="238">
      <contour>
        <pt x="295" y="238" on="1"/>
        <pt x="307" y="217" on="1"/>
        <pt x="232" y="-47" on="0"/>
        <pt x="133" y="-264" on="1"/>
        <pt x="68" y="-264" on="1"/>
        <pt x="145" y="13" on="0"/>
        <pt x="178" y="238" on="1"/>
      </contour>
    </TTGlyph>
    <TTGlyph name="copyright" xMin="99" yMin="-20" xMax="1604" yMax="1483">
      <contour>
        <pt x="645" y="-20" on="0"/>
        <pt x="295" y="186" on="0"/>
        <pt x="99" y="533" on="0"/>
        <pt x="99" y="928" on="0"/>
        <pt x="301" y="1282" on="0"/>
        <pt x="651" y="1483" on="0"/>
        <pt x="1052" y="1483" on="0"/>
        <pt x="1403" y="1282" on="0"/>
        <pt x="1604" y="930" on="0"/>
        <pt x="1604" y="533" on="0"/>
        <pt x="1408" y="186" on="0"/>
        <pt x="1059" y="-20" on="0"/>
      </contour>
      <contour>
        <pt x="1511" y="904" on="0"/>
        <pt x="1339" y="1208" on="0"/>
        <pt x="1032" y="1391" on="0"/>
        <pt x="677" y="1391" on="0"/>
        <pt x="369" y="1212" on="0"/>
        <pt x="193" y="905" on="0"/>
        <pt x="193" y="552" on="0"/>
        <pt x="369" y="250" on="0"/>
        <pt x="674" y="72" on="0"/>
        <pt x="1030" y="72" on="0"/>
        <pt x="1333" y="249" on="0"/>
        <pt x="1511" y="553" on="0"/>
      </contour>
      <contour>
        <pt x="879" y="279" on="1"/>
        <pt x="692" y="279" on="0"/>
        <pt x="489" y="510" on="0"/>
        <pt x="489" y="931" on="0"/>
        <pt x="711" y="1182" on="0"/>
        <pt x="897" y="1182" on="1"/>
        <pt x="1017" y="1182" on="0"/>
        <pt x="1124" y="1130" on="1"/>
        <pt x="1087" y="1047" on="1"/>
        <pt x="989" y="1092" on="0"/>
        <pt x="897" y="1092" on="1"/>
        <pt x="755" y="1092" on="0"/>
        <pt x="594" y="902" on="0"/>
        <pt x="594" y="733" on="1"/>
        <pt x="594" y="369" on="0"/>
        <pt x="889" y="369" on="1"/>
        <pt x="974" y="369" on="0"/>
        <pt x="1087" y="412" on="1"/>
        <pt x="1087" y="324" on="1"/>
        <pt x="985" y="279" on="0"/>
      </contour>
    </TTGlyph>
    <TTGlyph name="d" xMin="119" yMin="-20" xMax="1036" yMax="1556">
      <contour>
        <pt x="1036" y="0" on="1"/>
        <pt x="970" y="0" on="1"/>
        <pt x="946" y="166" on="1"/>
        <pt x="938" y="166" on="1"/>
        <pt x="814" y="-20" on="0"/>
        <pt x="357" y="-20" on="0"/>
        <pt x="119" y="261" on="0"/>
        <pt x="119" y="810" on="0"/>
        <pt x="355" y="1108" on="0"/>
        <pt x="580" y="1108" on="1"/>
        <pt x="700" y="1108" on="0"/>
        <pt x="871" y="1020" on="0"/>
        <pt x="938" y="918" on="1"/>
        <pt x="944" y="918" on="1"/>
        <pt x="938" y="1044" on="0"/>
        <pt x="938" y="1165" on="1"/>
        <pt x="938" y="1556" on="1"/>
        <pt x="1036" y="1556" on="1"/>
      </contour>
      <contour>
        <pt x="938" y="528" on="1"/>
        <pt x="938" y="545" on="1"/>
        <pt x="938" y="798" on="0"/>
        <pt x="768" y="1018" on="0"/>
        <pt x="403" y="1018" on="0"/>
        <pt x="223" y="769" on="0"/>
        <pt x="223" y="530" on="1"/>
        <pt x="223" y="68" on="0"/>
        <pt x="582" y="68" on="1"/>
        <pt x="766" y="68" on="0"/>
        <pt x="938" y="282" on="0"/>
      </contour>
    </TTGlyph>
    <TTGlyph name="dagger" xMin="123" yMin="0" xMax="883" yMax="1556">
      <contour>
        <pt x="524" y="1139" on="1"/>
        <pt x="883" y="1167" on="1"/>
        <pt x="883" y="1055" on="1"/>
        <pt x="524" y="1075" on="1"/>
        <pt x="551" y="0" on="1"/>
        <pt x="434" y="0" on="1"/>
        <pt x="461" y="1075" on="1"/>
        <pt x="123" y="1055" on="1"/>
        <pt x="123" y="1167" on="1"/>
        <pt x="461" y="1139" on="1"/>
        <pt x="434" y="1556" on="1"/>
        <pt x="551" y="1556" on="1"/>
      </contour>
    </TTGlyph>
    <TTGlyph name="daggerdbl" xMin="123" yMin="0" xMax="883" yMax="1556">
      <contour>
        <pt x="524" y="1143" on="1"/>
        <pt x="883" y="1167" on="1"/>
        <pt x="883" y="1055" on="1"/>
        <pt x="524" y="1079" on="1"/>
        <pt x="541" y="786" on="1"/>
        <pt x="524" y="461" on="1"/>
        <pt x="883" y="485" on="1"/>
        <pt x="883" y="373" on="1"/>
        <pt x="524" y="397" on="1"/>
        <pt x="551" y="0" on="1"/>
        <pt x="434" y="0" on="1"/>
        <pt x="461" y="397" on="1"/>
        <pt x="123" y="373" on="1"/>
        <pt x="123" y="485" on="1"/>
        <pt x="461" y="461" on="1"/>
        <pt x="444" y="786" on="1"/>
        <pt x="461" y="1079" on="1"/>
        <pt x="123" y="1055" on="1"/>
        <pt x="123" y="1167" on="1"/>
        <pt x="461" y="1143" on="1"/>
        <pt x="434" y="1556" on="1"/>
        <pt x="551" y="1556" on="1"/>
      </contour>
    </TTGlyph>
    <TTGlyph name="daletdageshhb" xMin="45" yMin="0" xMax="949" yMax="1290">
      <contour>
        <pt x="949" y="1290" on="1"/>
        <pt x="949" y="1213" on="1"/>
        <pt x="914" y="1200" on="0"/>
        <pt x="861" y="1175" on="0"/>
        <pt x="800" y="1129" on="0"/>
        <pt x="780" y="1100" on="1"/>
        <pt x="735" y="1032" on="0"/>
        <pt x="735" y="928" on="1"/>
        <pt x="735" y="0" on="1"/>
        <pt x="633" y="0" on="1"/>
        <pt x="633" y="928" on="1"/>
        <pt x="633" y="987" on="0"/>
        <pt x="662" y="1087" on="0"/>
        <pt x="683" y="1116" on="1"/>
        <pt x="726" y="1176" on="0"/>
        <pt x="760" y="1194" on="1"/>
        <pt x="774" y="1202" on="1"/>
        <pt x="45" y="1202" on="1"/>
        <pt x="45" y="1290" on="1"/>
      </contour>
      <contour>
        <pt x="365" y="741" on="1"/>
        <pt x="429" y="741" on="0"/>
        <pt x="429" y="591" on="0"/>
        <pt x="365" y="591" on="1"/>
        <pt x="304" y="591" on="0"/>
        <pt x="304" y="741" on="0"/>
      </contour>
    </TTGlyph>
    <TTGlyph name="degree" xMin="139" yMin="885" xMax="737" yMax="1483">
      <contour>
        <pt x="312" y="1483" on="0"/>
        <pt x="564" y="1483" on="0"/>
        <pt x="737" y="1316" on="0"/>
        <pt x="737" y="1052" on="0"/>
        <pt x="650" y="967" on="1"/>
        <pt x="563" y="885" on="0"/>
        <pt x="310" y="885" on="0"/>
        <pt x="223" y="967" on="1"/>
        <pt x="139" y="1051" on="0"/>
        <pt x="139" y="1316" on="0"/>
      </contour>
      <contour>
        <pt x="288" y="1337" on="1"/>
        <pt x="229" y="1272" on="0"/>
        <pt x="229" y="1092" on="0"/>
        <pt x="350" y="967" on="0"/>
        <pt x="524" y="967" on="0"/>
        <pt x="647" y="1091" on="0"/>
        <pt x="647" y="1276" on="0"/>
        <pt x="527" y="1401" on="0"/>
        <pt x="348" y="1401" on="0"/>
      </contour>
    </TTGlyph>
    <TTGlyph name="dieresis" xMin="336" yMin="1303" xMax="844" yMax="1475">
      <contour>
        <pt x="399" y="1475" on="1"/>
        <pt x="463" y="1475" on="0"/>
        <pt x="463" y="1303" on="0"/>
        <pt x="336" y="1303" on="0"/>
        <pt x="336" y="1389" on="1"/>
        <pt x="336" y="1434" on="0"/>
        <pt x="366" y="1475" on="0"/>
      </contour>
      <contour>
        <pt x="780" y="1475" on="1"/>
        <pt x="844" y="1475" on="0"/>
        <pt x="844" y="1303" on="0"/>
        <pt x="717" y="1303" on="0"/>
        <pt x="717" y="1389" on="1"/>
        <pt x="717" y="1434" on="0"/>
        <pt x="747" y="1475" on="0"/>
      </contour>
    </TTGlyph>
    <TTGlyph name="divide" xMin="111" yMin="272" xMax="1059" yMax="1174">
      <contour>
        <pt x="584" y="1174" on="1"/>
        <pt x="666" y="1174" on="0"/>
        <pt x="666" y="1075" on="1"/>
        <pt x="666" y="1025" on="0"/>
        <pt x="621" y="976" on="0"/>
        <pt x="548" y="976" on="0"/>
        <pt x="504" y="1026" on="0"/>
        <pt x="504" y="1075" on="1"/>
        <pt x="504" y="1174" on="0"/>
      </contour>
      <contour>
        <pt x="1059" y="682" on="1"/>
        <pt x="111" y="682" on="1"/>
        <pt x="111" y="764" on="1"/>
        <pt x="1059" y="764" on="1"/>
      </contour>
      <contour>
        <pt x="584" y="469" on="1"/>
        <pt x="666" y="469" on="0"/>
        <pt x="666" y="272" on="0"/>
        <pt x="584" y="272" on="1"/>
        <pt x="548" y="272" on="0"/>
        <pt x="504" y="320" on="0"/>
        <pt x="504" y="371" on="1"/>
        <pt x="504" y="469" on="0"/>
      </contour>
    </TTGlyph>
    <TTGlyph name="dollar" xMin="164" yMin="-119" xMax="990" yMax="1554">
      <contour>
        <pt x="618" y="1554" on="1"/>
        <pt x="618" y="1364" on="1"/>
        <pt x="815" y="1355" on="0"/>
        <pt x="968" y="1292" on="1"/>
        <pt x="936" y="1202" on="1"/>
        <pt x="795" y="1264" on="0"/>
        <pt x="618" y="1274" on="1"/>
        <pt x="618" y="788" on="1"/>
        <pt x="832" y="722" on="0"/>
        <pt x="990" y="566" on="0"/>
        <pt x="990" y="308" on="0"/>
        <pt x="794" y="139" on="0"/>
        <pt x="618" y="117" on="1"/>
        <pt x="618" y="-119" on="1"/>
        <pt x="537" y="-119" on="1"/>
        <pt x="537" y="113" on="1"/>
        <pt x="452" y="114" on="0"/>
        <pt x="229" y="156" on="0"/>
        <pt x="164" y="186" on="1"/>
        <pt x="164" y="289" on="1"/>
        <pt x="236" y="254" on="0"/>
        <pt x="446" y="203" on="0"/>
        <pt x="537" y="203" on="1"/>
        <pt x="537" y="711" on="1"/>
        <pt x="397" y="753" on="0"/>
        <pt x="252" y="843" on="0"/>
        <pt x="188" y="963" on="0"/>
        <pt x="188" y="1049" on="1"/>
        <pt x="188" y="1173" on="0"/>
        <pt x="376" y="1342" on="0"/>
        <pt x="537" y="1362" on="1"/>
        <pt x="537" y="1554" on="1"/>
      </contour>
      <contour>
        <pt x="297" y="1135" on="0"/>
        <pt x="297" y="963" on="0"/>
        <pt x="410" y="853" on="0"/>
        <pt x="537" y="815" on="1"/>
        <pt x="537" y="1268" on="1"/>
        <pt x="421" y="1253" on="0"/>
      </contour>
      <contour>
        <pt x="741" y="222" on="0"/>
        <pt x="881" y="346" on="0"/>
        <pt x="881" y="528" on="0"/>
        <pt x="756" y="640" on="0"/>
        <pt x="618" y="680" on="1"/>
        <pt x="618" y="209" on="1"/>
      </contour>
    </TTGlyph>
    <TTGlyph name="dotaccent" xMin="178" yMin="1292" xMax="307" yMax="1485">
      <contour>
        <pt x="242" y="1485" on="1"/>
        <pt x="273" y="1485" on="0"/>
        <pt x="307" y="1435" on="0"/>
        <pt x="307" y="1344" on="0"/>
        <pt x="273" y="1292" on="0"/>
        <pt x="242" y="1292" on="1"/>
        <pt x="178" y="1292" on="0"/>
        <pt x="178" y="1485" on="0"/>
      </contour>
    </TTGlyph>
    <TTGlyph name="dotlessi" xMin="182" yMin="0" xMax="281" yMax="1087">
      <contour>
        <pt x="281" y="0" on="1"/>
        <pt x="182" y="0" on="1"/>
        <pt x="182" y="1087" on="1"/>
        <pt x="281" y="1087" on="1"/>
      </contour>
    </TTGlyph>
    <TTGlyph name="e" xMin="119" yMin="-20" xMax="1006" yMax="1108">
      <contour>
        <pt x="621" y="-20" on="1"/>
        <pt x="385" y="-20" on="0"/>
        <pt x="251" y="126" on="1"/>
        <pt x="119" y="272" on="0"/>
        <pt x="119" y="794" on="0"/>
        <pt x="374" y="1108" on="0"/>
        <pt x="592" y="1108" on="1"/>
        <pt x="784" y="1108" on="0"/>
        <pt x="1006" y="839" on="0"/>
        <pt x="1006" y="610" on="1"/>
        <pt x="1006" y="530" on="1"/>
        <pt x="223" y="530" on="1"/>
        <pt x="225" y="306" on="0"/>
        <pt x="430" y="70" on="0"/>
        <pt x="621" y="70" on="1"/>
        <pt x="716" y="70" on="0"/>
        <pt x="860" y="98" on="0"/>
        <pt x="963" y="139" on="1"/>
        <pt x="963" y="49" on="1"/>
        <pt x="872" y="9" on="0"/>
        <pt x="715" y="-20" on="0"/>
      </contour>
      <contour>
        <pt x="901" y="618" on="1"/>
        <pt x="901" y="807" on="0"/>
        <pt x="735" y="1020" on="0"/>
        <pt x="434" y="1020" on="0"/>
        <pt x="245" y="812" on="0"/>
        <pt x="229" y="618" on="1"/>
      </contour>
    </TTGlyph>
    <TTGlyph name="eacute" xMin="119" yMin="-20" xMax="1006" yMax="1569">
      <contour>
        <pt x="835" y="1569" on="1"/>
        <pt x="835" y="1552" on="1"/>
        <pt x="799" y="1500" on="0"/>
        <pt x="625" y="1327" on="0"/>
        <pt x="522" y="1241" on="1"/>
        <pt x="452" y="1241" on="1"/>
        <pt x="452" y="1257" on="1"/>
        <pt x="524" y="1335" on="0"/>
        <pt x="667" y="1520" on="0"/>
        <pt x="694" y="1569" on="1"/>
      </contour>
      <contour>
        <pt x="621" y="-20" on="1"/>
        <pt x="384" y="-20" on="0"/>
        <pt x="119" y="272" on="0"/>
        <pt x="119" y="796" on="0"/>
        <pt x="376" y="1108" on="0"/>
        <pt x="592" y="1108" on="1"/>
        <pt x="784" y="1108" on="0"/>
        <pt x="1006" y="840" on="0"/>
        <pt x="1006" y="610" on="1"/>
        <pt x="1006" y="530" on="1"/>
        <pt x="223" y="530" on="1"/>
        <pt x="225" y="306" on="0"/>
        <pt x="430" y="70" on="0"/>
        <pt x="621" y="70" on="1"/>
        <pt x="717" y="70" on="0"/>
        <pt x="858" y="97" on="0"/>
        <pt x="963" y="139" on="1"/>
        <pt x="963" y="49" on="1"/>
        <pt x="873" y="10" on="0"/>
        <pt x="718" y="-20" on="0"/>
      </contour>
      <contour>
        <pt x="901" y="618" on="1"/>
        <pt x="901" y="807" on="0"/>
        <pt x="737" y="1020" on="0"/>
        <pt x="434" y="1020" on="0"/>
        <pt x="245" y="812" on="0"/>
        <pt x="229" y="618" on="1"/>
      </contour>
    </TTGlyph>
    <TTGlyph name="ecircumflex" xMin="119" yMin="-20" xMax="1006" yMax="1569">
      <contour>
        <pt x="872" y="1241" on="1"/>
        <pt x="802" y="1241" on="1"/>
        <pt x="678" y="1343" on="0"/>
        <pt x="581" y="1448" on="1"/>
        <pt x="475" y="1336" on="0"/>
        <pt x="360" y="1241" on="1"/>
        <pt x="290" y="1241" on="1"/>
        <pt x="290" y="1257" on="1"/>
        <pt x="352" y="1324" on="0"/>
        <pt x="491" y="1502" on="0"/>
        <pt x="532" y="1569" on="1"/>
        <pt x="630" y="1569" on="1"/>
        <pt x="697" y="1450" on="0"/>
        <pt x="872" y="1257" on="1"/>
      </contour>
      <contour>
        <pt x="621" y="-20" on="1"/>
        <pt x="384" y="-20" on="0"/>
        <pt x="119" y="272" on="0"/>
        <pt x="119" y="796" on="0"/>
        <pt x="376" y="1108" on="0"/>
        <pt x="592" y="1108" on="1"/>
        <pt x="784" y="1108" on="0"/>
        <pt x="1006" y="840" on="0"/>
        <pt x="1006" y="610" on="1"/>
        <pt x="1006" y="530" on="1"/>
        <pt x="223" y="530" on="1"/>
        <pt x="225" y="306" on="0"/>
        <pt x="430" y="70" on="0"/>
        <pt x="621" y="70" on="1"/>
        <pt x="717" y="70" on="0"/>
        <pt x="858" y="97" on="0"/>
        <pt x="963" y="139" on="1"/>
        <pt x="963" y="49" on="1"/>
        <pt x="873" y="10" on="0"/>
        <pt x="718" y="-20" on="0"/>
      </contour>
      <contour>
        <pt x="901" y="618" on="1"/>
        <pt x="901" y="807" on="0"/>
        <pt x="737" y="1020" on="0"/>
        <pt x="434" y="1020" on="0"/>
        <pt x="245" y="812" on="0"/>
        <pt x="229" y="618" on="1"/>
      </contour>
    </TTGlyph>
    <TTGlyph name="edieresis" xMin="119" yMin="-20" xMax="1006" yMax="1475">
      <contour>
        <pt x="394" y="1475" on="1"/>
        <pt x="458" y="1475" on="0"/>
        <pt x="458" y="1303" on="0"/>
        <pt x="331" y="1303" on="0"/>
        <pt x="331" y="1389" on="1"/>
        <pt x="331" y="1434" on="0"/>
        <pt x="361" y="1475" on="0"/>
      </contour>
      <contour>
        <pt x="775" y="1475" on="1"/>
        <pt x="839" y="1475" on="0"/>
        <pt x="839" y="1303" on="0"/>
        <pt x="712" y="1303" on="0"/>
        <pt x="712" y="1389" on="1"/>
        <pt x="712" y="1434" on="0"/>
        <pt x="742" y="1475" on="0"/>
      </contour>
      <contour>
        <pt x="621" y="-20" on="1"/>
        <pt x="384" y="-20" on="0"/>
        <pt x="119" y="272" on="0"/>
        <pt x="119" y="796" on="0"/>
        <pt x="376" y="1108" on="0"/>
        <pt x="592" y="1108" on="1"/>
        <pt x="784" y="1108" on="0"/>
        <pt x="1006" y="840" on="0"/>
        <pt x="1006" y="610" on="1"/>
        <pt x="1006" y="530" on="1"/>
        <pt x="223" y="530" on="1"/>
        <pt x="225" y="306" on="0"/>
        <pt x="430" y="70" on="0"/>
        <pt x="621" y="70" on="1"/>
        <pt x="717" y="70" on="0"/>
        <pt x="858" y="97" on="0"/>
        <pt x="963" y="139" on="1"/>
        <pt x="963" y="49" on="1"/>
        <pt x="873" y="10" on="0"/>
        <pt x="718" y="-20" on="0"/>
      </contour>
      <contour>
        <pt x="901" y="618" on="1"/>
        <pt x="901" y="807" on="0"/>
        <pt x="737" y="1020" on="0"/>
        <pt x="434" y="1020" on="0"/>
        <pt x="245" y="812" on="0"/>
        <pt x="229" y="618" on="1"/>
      </contour>
    </TTGlyph>
    <TTGlyph name="egrave" xMin="119" yMin="-20" xMax="1006" yMax="1569">
      <contour>
        <pt x="302" y="1569" on="1"/>
        <pt x="444" y="1569" on="1"/>
        <pt x="470" y="1521" on="0"/>
        <pt x="616" y="1332" on="0"/>
        <pt x="685" y="1257" on="1"/>
        <pt x="685" y="1241" on="1"/>
        <pt x="616" y="1241" on="1"/>
        <pt x="522" y="1318" on="0"/>
        <pt x="336" y="1503" on="0"/>
        <pt x="302" y="1552" on="1"/>
      </contour>
      <contour>
        <pt x="621" y="-20" on="1"/>
        <pt x="384" y="-20" on="0"/>
        <pt x="119" y="272" on="0"/>
        <pt x="119" y="796" on="0"/>
        <pt x="376" y="1108" on="0"/>
        <pt x="592" y="1108" on="1"/>
        <pt x="784" y="1108" on="0"/>
        <pt x="1006" y="840" on="0"/>
        <pt x="1006" y="610" on="1"/>
        <pt x="1006" y="530" on="1"/>
        <pt x="223" y="530" on="1"/>
        <pt x="225" y="306" on="0"/>
        <pt x="430" y="70" on="0"/>
        <pt x="621" y="70" on="1"/>
        <pt x="717" y="70" on="0"/>
        <pt x="858" y="97" on="0"/>
        <pt x="963" y="139" on="1"/>
        <pt x="963" y="49" on="1"/>
        <pt x="873" y="10" on="0"/>
        <pt x="718" y="-20" on="0"/>
      </contour>
      <contour>
        <pt x="901" y="618" on="1"/>
        <pt x="901" y="807" on="0"/>
        <pt x="737" y="1020" on="0"/>
        <pt x="434" y="1020" on="0"/>
        <pt x="245" y="812" on="0"/>
        <pt x="229" y="618" on="1"/>
      </contour>
    </TTGlyph>
    <TTGlyph name="eight" xMin="121" yMin="-20" xMax="1044" yMax="1487">
      <contour>
        <pt x="994" y="1135" on="1"/>
        <pt x="994" y="1021" on="0"/>
        <pt x="853" y="850" on="0"/>
        <pt x="696" y="778" on="1"/>
        <pt x="889" y="698" on="0"/>
        <pt x="1044" y="510" on="0"/>
        <pt x="1044" y="377" on="1"/>
        <pt x="1044" y="196" on="0"/>
        <pt x="791" y="-20" on="0"/>
        <pt x="356" y="-20" on="0"/>
        <pt x="121" y="183" on="0"/>
        <pt x="121" y="375" on="1"/>
        <pt x="121" y="638" on="0"/>
        <pt x="461" y="774" on="1"/>
        <pt x="299" y="851" on="0"/>
        <pt x="168" y="1018" on="0"/>
        <pt x="168" y="1137" on="1"/>
        <pt x="168" y="1142" on="0"/>
        <pt x="168" y="1147" on="1"/>
        <pt x="168" y="1295" on="0"/>
        <pt x="402" y="1487" on="0"/>
        <pt x="575" y="1487" on="1"/>
        <pt x="578" y="1487" on="0"/>
        <pt x="582" y="1487" on="1"/>
        <pt x="768" y="1487" on="0"/>
        <pt x="994" y="1298" on="0"/>
      </contour>
      <contour>
        <pt x="590" y="815" on="1"/>
        <pt x="754" y="878" on="0"/>
        <pt x="895" y="1031" on="0"/>
        <pt x="895" y="1257" on="0"/>
        <pt x="727" y="1397" on="0"/>
        <pt x="438" y="1397" on="0"/>
        <pt x="268" y="1258" on="0"/>
        <pt x="268" y="1137" on="1"/>
        <pt x="268" y="1066" on="0"/>
        <pt x="329" y="961" on="0"/>
        <pt x="446" y="875" on="0"/>
      </contour>
      <contour>
        <pt x="561" y="733" on="1"/>
        <pt x="378" y="663" on="0"/>
        <pt x="223" y="490" on="0"/>
        <pt x="223" y="222" on="0"/>
        <pt x="410" y="70" on="0"/>
        <pt x="743" y="70" on="0"/>
        <pt x="942" y="231" on="0"/>
        <pt x="942" y="494" on="0"/>
        <pt x="863" y="570" on="1"/>
        <pt x="786" y="647" on="0"/>
      </contour>
    </TTGlyph>
    <TTGlyph name="ellipsis" xMin="162" yMin="-20" xMax="1303" yMax="176">
      <contour>
        <pt x="242" y="176" on="1"/>
        <pt x="324" y="176" on="0"/>
        <pt x="324" y="-20" on="0"/>
        <pt x="242" y="-20" on="1"/>
        <pt x="162" y="-20" on="0"/>
        <pt x="162" y="176" on="0"/>
      </contour>
      <contour>
        <pt x="731" y="176" on="1"/>
        <pt x="813" y="176" on="0"/>
        <pt x="813" y="-20" on="0"/>
        <pt x="731" y="-20" on="1"/>
        <pt x="651" y="-20" on="0"/>
        <pt x="651" y="176" on="0"/>
      </contour>
      <contour>
        <pt x="1221" y="176" on="1"/>
        <pt x="1303" y="176" on="0"/>
        <pt x="1303" y="-20" on="0"/>
        <pt x="1221" y="-20" on="1"/>
        <pt x="1141" y="-20" on="0"/>
        <pt x="1141" y="176" on="0"/>
      </contour>
    </TTGlyph>
    <TTGlyph name="emdash" xMin="82" yMin="512" xMax="1966" yMax="594">
      <contour>
        <pt x="1966" y="512" on="1"/>
        <pt x="82" y="512" on="1"/>
        <pt x="82" y="594" on="1"/>
        <pt x="1966" y="594" on="1"/>
      </contour>
    </TTGlyph>
    <TTGlyph name="endash" xMin="82" yMin="512" xMax="942" yMax="594">
      <contour>
        <pt x="942" y="512" on="1"/>
        <pt x="82" y="512" on="1"/>
        <pt x="82" y="594" on="1"/>
        <pt x="942" y="594" on="1"/>
      </contour>
    </TTGlyph>
    <TTGlyph name="equal" xMin="111" yMin="477" xMax="1059" yMax="967">
      <contour>
        <pt x="1059" y="885" on="1"/>
        <pt x="111" y="885" on="1"/>
        <pt x="111" y="967" on="1"/>
        <pt x="1059" y="967" on="1"/>
      </contour>
      <contour>
        <pt x="1059" y="477" on="1"/>
        <pt x="111" y="477" on="1"/>
        <pt x="111" y="559" on="1"/>
        <pt x="1059" y="559" on="1"/>
      </contour>
    </TTGlyph>
    <TTGlyph name="eth" xMin="117" yMin="-20" xMax="1055" yMax="1556">
      <contour>
        <pt x="1055" y="559" on="1"/>
        <pt x="1055" y="283" on="0"/>
        <pt x="807" y="-20" on="0"/>
        <pt x="367" y="-20" on="0"/>
        <pt x="117" y="241" on="0"/>
        <pt x="117" y="698" on="0"/>
        <pt x="369" y="958" on="0"/>
        <pt x="586" y="958" on="1"/>
        <pt x="691" y="958" on="0"/>
        <pt x="851" y="894" on="0"/>
        <pt x="922" y="829" on="1"/>
        <pt x="926" y="831" on="1"/>
        <pt x="861" y="1102" on="0"/>
        <pt x="657" y="1290" on="1"/>
        <pt x="387" y="1133" on="1"/>
        <pt x="338" y="1210" on="1"/>
        <pt x="582" y="1356" on="1"/>
        <pt x="497" y="1417" on="0"/>
        <pt x="383" y="1475" on="1"/>
        <pt x="428" y="1556" on="1"/>
        <pt x="578" y="1486" on="0"/>
        <pt x="676" y="1411" on="1"/>
        <pt x="901" y="1548" on="1"/>
        <pt x="950" y="1464" on="1"/>
        <pt x="748" y="1343" on="1"/>
        <pt x="900" y="1194" on="0"/>
        <pt x="1055" y="791" on="0"/>
      </contour>
      <contour>
        <pt x="950" y="703" on="0"/>
        <pt x="756" y="868" on="0"/>
        <pt x="578" y="868" on="1"/>
        <pt x="221" y="868" on="0"/>
        <pt x="221" y="463" on="1"/>
        <pt x="221" y="276" on="0"/>
        <pt x="411" y="70" on="0"/>
        <pt x="764" y="70" on="0"/>
        <pt x="950" y="317" on="0"/>
        <pt x="950" y="557" on="1"/>
      </contour>
    </TTGlyph>
    <TTGlyph name="exclam" xMin="164" yMin="-20" xMax="326" yMax="1462">
      <contour>
        <pt x="276" y="377" on="1"/>
        <pt x="215" y="377" on="1"/>
        <pt x="186" y="1462" on="1"/>
        <pt x="305" y="1462" on="1"/>
      </contour>
      <contour>
        <pt x="244" y="176" on="1"/>
        <pt x="326" y="176" on="0"/>
        <pt x="326" y="-20" on="0"/>
        <pt x="244" y="-20" on="1"/>
        <pt x="164" y="-20" on="0"/>
        <pt x="164" y="176" on="0"/>
      </contour>
    </TTGlyph>
    <TTGlyph name="exclamdown" xMin="166" yMin="-375" xMax="328" yMax="1108">
      <contour>
        <pt x="246" y="1108" on="1"/>
        <pt x="328" y="1108" on="0"/>
        <pt x="328" y="911" on="0"/>
        <pt x="246" y="911" on="1"/>
        <pt x="210" y="911" on="0"/>
        <pt x="166" y="959" on="0"/>
        <pt x="166" y="1010" on="1"/>
        <pt x="166" y="1108" on="0"/>
      </contour>
      <contour>
        <pt x="305" y="-375" on="1"/>
        <pt x="186" y="-375" on="1"/>
        <pt x="215" y="711" on="1"/>
        <pt x="276" y="711" on="1"/>
      </contour>
    </TTGlyph>
    <TTGlyph name="f" xMin="29" yMin="0" xMax="725" yMax="1567">
      <contour>
        <pt x="231" y="1180" on="1"/>
        <pt x="231" y="1382" on="0"/>
        <pt x="379" y="1567" on="0"/>
        <pt x="545" y="1567" on="1"/>
        <pt x="635" y="1567" on="0"/>
        <pt x="725" y="1540" on="1"/>
        <pt x="702" y="1454" on="1"/>
        <pt x="624" y="1479" on="0"/>
        <pt x="543" y="1479" on="1"/>
        <pt x="428" y="1479" on="0"/>
        <pt x="330" y="1342" on="0"/>
        <pt x="330" y="1188" on="1"/>
        <pt x="330" y="1087" on="1"/>
        <pt x="586" y="1087" on="1"/>
        <pt x="586" y="1001" on="1"/>
        <pt x="330" y="1001" on="1"/>
        <pt x="330" y="0" on="1"/>
        <pt x="231" y="0" on="1"/>
        <pt x="231" y="1001" on="1"/>
        <pt x="29" y="1001" on="1"/>
        <pt x="29" y="1059" on="1"/>
        <pt x="231" y="1096" on="1"/>
      </contour>
    </TTGlyph>
    <TTGlyph name="finalkafdageshhb" xMin="29" yMin="-492" xMax="799" yMax="1309">
      <contour>
        <pt x="223" y="1309" on="0"/>
        <pt x="412" y="1309" on="0"/>
        <pt x="589" y="1239" on="0"/>
        <pt x="699" y="1126" on="0"/>
        <pt x="735" y="1047" on="1"/>
        <pt x="799" y="907" on="0"/>
        <pt x="799" y="717" on="1"/>
        <pt x="799" y="-492" on="1"/>
        <pt x="695" y="-492" on="1"/>
        <pt x="695" y="717" on="1"/>
        <pt x="695" y="953" on="0"/>
        <pt x="501" y="1220" on="0"/>
        <pt x="299" y="1220" on="1"/>
        <pt x="203" y="1220" on="0"/>
        <pt x="130" y="1199" on="1"/>
        <pt x="105" y="1192" on="0"/>
        <pt x="36" y="1168" on="0"/>
        <pt x="29" y="1166" on="1"/>
        <pt x="29" y="1261" on="1"/>
        <pt x="69" y="1279" on="0"/>
      </contour>
      <contour>
        <pt x="360" y="741" on="1"/>
        <pt x="424" y="741" on="0"/>
        <pt x="424" y="591" on="0"/>
        <pt x="360" y="591" on="1"/>
        <pt x="299" y="591" on="0"/>
        <pt x="299" y="741" on="0"/>
      </contour>
    </TTGlyph>
    <TTGlyph name="finalpedageshhb" xMin="99" yMin="-492" xMax="1052" yMax="1310">
      <contour>
        <pt x="466" y="441" on="1"/>
        <pt x="307" y="441" on="0"/>
        <pt x="99" y="674" on="0"/>
        <pt x="99" y="859" on="1"/>
        <pt x="99" y="968" on="0"/>
        <pt x="181" y="1144" on="0"/>
        <pt x="249" y="1198" on="1"/>
        <pt x="388" y="1310" on="0"/>
        <pt x="568" y="1310" on="1"/>
        <pt x="798" y="1310" on="0"/>
        <pt x="1052" y="984" on="0"/>
        <pt x="1052" y="645" on="1"/>
        <pt x="1052" y="-492" on="1"/>
        <pt x="950" y="-492" on="1"/>
        <pt x="950" y="645" on="1"/>
        <pt x="950" y="974" on="0"/>
        <pt x="831" y="1112" on="1"/>
        <pt x="788" y="1162" on="0"/>
        <pt x="654" y="1220" on="0"/>
        <pt x="486" y="1220" on="0"/>
        <pt x="353" y="1173" on="0"/>
        <pt x="269" y="1098" on="0"/>
        <pt x="240" y="1050" on="1"/>
        <pt x="188" y="960" on="0"/>
        <pt x="188" y="859" on="1"/>
        <pt x="188" y="709" on="0"/>
        <pt x="325" y="543" on="0"/>
        <pt x="473" y="522" on="1"/>
        <pt x="487" y="520" on="1"/>
        <pt x="471" y="441" on="1"/>
      </contour>
      <contour>
        <pt x="566" y="931" on="1"/>
        <pt x="630" y="931" on="0"/>
        <pt x="630" y="781" on="0"/>
        <pt x="566" y="781" on="1"/>
        <pt x="505" y="781" on="0"/>
        <pt x="505" y="931" on="0"/>
      </contour>
    </TTGlyph>
    <TTGlyph name="five" xMin="143" yMin="-20" xMax="1040" yMax="1462">
      <contour>
        <pt x="948" y="1366" on="1"/>
        <pt x="338" y="1366" on="1"/>
        <pt x="293" y="850" on="1"/>
        <pt x="452" y="879" on="0"/>
        <pt x="537" y="879" on="1"/>
        <pt x="771" y="879" on="0"/>
        <pt x="1040" y="652" on="0"/>
        <pt x="1040" y="455" on="1"/>
        <pt x="1040" y="231" on="0"/>
        <pt x="760" y="-20" on="0"/>
        <pt x="278" y="-20" on="0"/>
        <pt x="143" y="63" on="1"/>
        <pt x="143" y="166" on="1"/>
        <pt x="247" y="113" on="0"/>
        <pt x="419" y="68" on="0"/>
        <pt x="514" y="68" on="1"/>
        <pt x="706" y="68" on="0"/>
        <pt x="938" y="271" on="0"/>
        <pt x="938" y="607" on="0"/>
        <pt x="712" y="793" on="0"/>
        <pt x="518" y="793" on="1"/>
        <pt x="388" y="793" on="0"/>
        <pt x="246" y="754" on="1"/>
        <pt x="186" y="793" on="1"/>
        <pt x="244" y="1462" on="1"/>
        <pt x="948" y="1462" on="1"/>
      </contour>
    </TTGlyph>
    <TTGlyph name="florin" xMin="190" yMin="-492" xMax="1010" yMax="1483">
      <contour>
        <pt x="510" y="1096" on="1"/>
        <pt x="510" y="1297" on="0"/>
        <pt x="663" y="1483" on="0"/>
        <pt x="827" y="1483" on="1"/>
        <pt x="911" y="1483" on="0"/>
        <pt x="1010" y="1452" on="1"/>
        <pt x="984" y="1366" on="1"/>
        <pt x="895" y="1395" on="0"/>
        <pt x="825" y="1395" on="1"/>
        <pt x="710" y="1395" on="0"/>
        <pt x="608" y="1259" on="0"/>
        <pt x="608" y="1104" on="1"/>
        <pt x="608" y="942" on="1"/>
        <pt x="889" y="942" on="1"/>
        <pt x="889" y="854" on="1"/>
        <pt x="608" y="854" on="1"/>
        <pt x="608" y="-174" on="1"/>
        <pt x="608" y="-329" on="0"/>
        <pt x="466" y="-492" on="0"/>
        <pt x="330" y="-492" on="1"/>
        <pt x="244" y="-492" on="0"/>
        <pt x="190" y="-473" on="1"/>
        <pt x="190" y="-383" on="1"/>
        <pt x="268" y="-401" on="0"/>
        <pt x="334" y="-401" on="1"/>
        <pt x="510" y="-401" on="0"/>
        <pt x="510" y="-184" on="1"/>
        <pt x="510" y="854" on="1"/>
        <pt x="303" y="854" on="1"/>
        <pt x="303" y="913" on="1"/>
        <pt x="510" y="950" on="1"/>
      </contour>
    </TTGlyph>
    <TTGlyph name="four" xMin="43" yMin="0" xMax="1141" yMax="1470">
      <contour>
        <pt x="889" y="459" on="1"/>
        <pt x="1141" y="459" on="1"/>
        <pt x="1141" y="373" on="1"/>
        <pt x="889" y="373" on="1"/>
        <pt x="889" y="0" on="1"/>
        <pt x="795" y="0" on="1"/>
        <pt x="795" y="373" on="1"/>
        <pt x="43" y="373" on="1"/>
        <pt x="43" y="440" on="1"/>
        <pt x="768" y="1470" on="1"/>
        <pt x="889" y="1470" on="1"/>
      </contour>
      <contour>
        <pt x="795" y="459" on="1"/>
        <pt x="795" y="877" on="1"/>
        <pt x="795" y="1171" on="0"/>
        <pt x="809" y="1384" on="1"/>
        <pt x="801" y="1384" on="1"/>
        <pt x="784" y="1351" on="0"/>
        <pt x="678" y="1196" on="1"/>
        <pt x="162" y="459" on="1"/>
      </contour>
    </TTGlyph>
    <TTGlyph name="g" xMin="45" yMin="-492" xMax="1030" yMax="1108">
      <contour>
        <pt x="457" y="150" on="1"/>
        <pt x="647" y="150" on="1"/>
        <pt x="825" y="150" on="0"/>
        <pt x="1012" y="7" on="0"/>
        <pt x="1012" y="-133" on="1"/>
        <pt x="1012" y="-305" on="0"/>
        <pt x="733" y="-492" on="0"/>
        <pt x="475" y="-492" on="1"/>
        <pt x="271" y="-492" on="0"/>
        <pt x="45" y="-334" on="0"/>
        <pt x="45" y="-193" on="1"/>
        <pt x="45" y="-83" on="0"/>
        <pt x="182" y="66" on="0"/>
        <pt x="303" y="93" on="1"/>
        <pt x="253" y="115" on="0"/>
        <pt x="195" y="193" on="0"/>
        <pt x="195" y="242" on="1"/>
        <pt x="195" y="352" on="0"/>
        <pt x="334" y="434" on="1"/>
        <pt x="239" y="473" on="0"/>
        <pt x="133" y="640" on="0"/>
        <pt x="133" y="748" on="1"/>
        <pt x="133" y="912" on="0"/>
        <pt x="340" y="1108" on="0"/>
        <pt x="516" y="1108" on="1"/>
        <pt x="624" y="1108" on="0"/>
        <pt x="682" y="1087" on="1"/>
        <pt x="1030" y="1087" on="1"/>
        <pt x="1030" y="1018" on="1"/>
        <pt x="805" y="1004" on="1"/>
        <pt x="895" y="892" on="0"/>
        <pt x="895" y="758" on="1"/>
        <pt x="895" y="600" on="0"/>
        <pt x="687" y="406" on="0"/>
        <pt x="510" y="406" on="1"/>
        <pt x="436" y="406" on="0"/>
        <pt x="406" y="412" on="1"/>
        <pt x="285" y="349" on="0"/>
        <pt x="285" y="250" on="1"/>
        <pt x="285" y="198" on="0"/>
        <pt x="365" y="150" on="0"/>
      </contour>
      <contour>
        <pt x="795" y="889" on="0"/>
        <pt x="648" y="1030" on="0"/>
        <pt x="382" y="1030" on="0"/>
        <pt x="233" y="880" on="0"/>
        <pt x="233" y="622" on="0"/>
        <pt x="309" y="552" on="1"/>
        <pt x="386" y="483" on="0"/>
        <pt x="650" y="483" on="0"/>
        <pt x="795" y="621" on="0"/>
      </contour>
      <contour>
        <pt x="627" y="51" on="1"/>
        <pt x="449" y="51" on="1"/>
        <pt x="150" y="51" on="0"/>
        <pt x="150" y="-184" on="1"/>
        <pt x="150" y="-408" on="0"/>
        <pt x="483" y="-408" on="1"/>
        <pt x="911" y="-408" on="0"/>
        <pt x="911" y="-135" on="1"/>
        <pt x="911" y="-37" on="0"/>
        <pt x="777" y="51" on="0"/>
      </contour>
    </TTGlyph>
    <TTGlyph name="gereshhb" xMin="29" yMin="789" xMax="268" yMax="1290">
      <contour>
        <pt x="256" y="1290" on="1"/>
        <pt x="268" y="1270" on="1"/>
        <pt x="193" y="1003" on="0"/>
        <pt x="93" y="789" on="1"/>
        <pt x="29" y="789" on="1"/>
        <pt x="62" y="899" on="0"/>
        <pt x="124" y="1188" on="0"/>
        <pt x="139" y="1290" on="1"/>
      </contour>
    </TTGlyph>
    <TTGlyph name="germandbls" xMin="182" yMin="-20" xMax="1092" yMax="1567">
      <contour>
        <pt x="182" y="0" on="1"/>
        <pt x="182" y="1206" on="1"/>
        <pt x="182" y="1379" on="0"/>
        <pt x="389" y="1567" on="0"/>
        <pt x="766" y="1567" on="0"/>
        <pt x="961" y="1422" on="0"/>
        <pt x="961" y="1145" on="0"/>
        <pt x="822" y="1034" on="1"/>
        <pt x="739" y="968" on="0"/>
        <pt x="682" y="896" on="0"/>
        <pt x="682" y="816" on="0"/>
        <pt x="696" y="792" on="1"/>
        <pt x="723" y="744" on="0"/>
        <pt x="953" y="582" on="0"/>
        <pt x="1047" y="483" on="0"/>
        <pt x="1092" y="375" on="0"/>
        <pt x="1092" y="307" on="1"/>
        <pt x="1092" y="151" on="0"/>
        <pt x="917" y="-20" on="0"/>
        <pt x="758" y="-20" on="1"/>
        <pt x="563" y="-20" on="0"/>
        <pt x="457" y="47" on="1"/>
        <pt x="457" y="154" on="1"/>
        <pt x="522" y="116" on="0"/>
        <pt x="689" y="68" on="0"/>
        <pt x="758" y="68" on="1"/>
        <pt x="872" y="68" on="0"/>
        <pt x="993" y="178" on="0"/>
        <pt x="993" y="283" on="1"/>
        <pt x="993" y="368" on="0"/>
        <pt x="913" y="489" on="0"/>
        <pt x="675" y="652" on="0"/>
        <pt x="582" y="772" on="0"/>
        <pt x="582" y="856" on="1"/>
        <pt x="582" y="916" on="0"/>
        <pt x="646" y="1016" on="0"/>
        <pt x="796" y="1131" on="0"/>
        <pt x="860" y="1229" on="0"/>
        <pt x="860" y="1286" on="1"/>
        <pt x="860" y="1379" on="0"/>
        <pt x="720" y="1479" on="0"/>
        <pt x="443" y="1479" on="0"/>
        <pt x="281" y="1340" on="0"/>
        <pt x="281" y="1214" on="1"/>
        <pt x="281" y="0" on="1"/>
      </contour>
    </TTGlyph>
    <TTGlyph name="gershayimhb" xMin="29" yMin="789" xMax="586" yMax="1290">
      <contour>
        <pt x="256" y="1290" on="1"/>
        <pt x="268" y="1270" on="1"/>
        <pt x="193" y="1003" on="0"/>
        <pt x="93" y="789" on="1"/>
        <pt x="29" y="789" on="1"/>
        <pt x="62" y="899" on="0"/>
        <pt x="124" y="1188" on="0"/>
        <pt x="139" y="1290" on="1"/>
      </contour>
      <contour>
        <pt x="573" y="1290" on="1"/>
        <pt x="586" y="1270" on="1"/>
        <pt x="548" y="1137" on="0"/>
        <pt x="448" y="867" on="0"/>
        <pt x="412" y="789" on="1"/>
        <pt x="346" y="789" on="1"/>
        <pt x="376" y="885" on="0"/>
        <pt x="442" y="1190" on="0"/>
        <pt x="457" y="1290" on="1"/>
      </contour>
    </TTGlyph>
    <TTGlyph name="gimeldageshhb" xMin="39" yMin="-4" xMax="600" yMax="1310">
      <contour>
        <pt x="356" y="1310" on="1"/>
        <pt x="483" y="1310" on="0"/>
        <pt x="600" y="1151" on="0"/>
        <pt x="600" y="1015" on="1"/>
        <pt x="600" y="0" on="1"/>
        <pt x="513" y="0" on="1"/>
        <pt x="503" y="213" on="1"/>
        <pt x="496" y="213" on="1"/>
        <pt x="446" y="130" on="0"/>
        <pt x="412" y="94" on="1"/>
        <pt x="318" y="-4" on="0"/>
        <pt x="170" y="-4" on="1"/>
        <pt x="114" y="-4" on="0"/>
        <pt x="39" y="7" on="1"/>
        <pt x="57" y="101" on="1"/>
        <pt x="112" y="88" on="0"/>
        <pt x="179" y="88" on="1"/>
        <pt x="316" y="88" on="0"/>
        <pt x="498" y="319" on="0"/>
        <pt x="498" y="511" on="1"/>
        <pt x="498" y="1015" on="1"/>
        <pt x="498" y="1106" on="0"/>
        <pt x="472" y="1158" on="1"/>
        <pt x="442" y="1220" on="0"/>
        <pt x="348" y="1220" on="1"/>
        <pt x="288" y="1220" on="0"/>
        <pt x="200" y="1203" on="1"/>
        <pt x="200" y="1295" on="1"/>
        <pt x="275" y="1310" on="0"/>
      </contour>
      <contour>
        <pt x="236" y="741" on="1"/>
        <pt x="300" y="741" on="0"/>
        <pt x="300" y="591" on="0"/>
        <pt x="236" y="591" on="1"/>
        <pt x="175" y="591" on="0"/>
        <pt x="175" y="741" on="0"/>
      </contour>
    </TTGlyph>
    <TTGlyph name="grave" xMin="393" yMin="1241" xMax="776" yMax="1569">
      <contour>
        <pt x="393" y="1569" on="1"/>
        <pt x="535" y="1569" on="1"/>
        <pt x="561" y="1521" on="0"/>
        <pt x="707" y="1332" on="0"/>
        <pt x="776" y="1257" on="1"/>
        <pt x="776" y="1241" on="1"/>
        <pt x="707" y="1241" on="1"/>
        <pt x="613" y="1318" on="0"/>
        <pt x="427" y="1503" on="0"/>
        <pt x="393" y="1552" on="1"/>
      </contour>
    </TTGlyph>
    <TTGlyph name="greater" xMin="111" yMin="266" xMax="1059" yMax="1217">
      <contour>
        <pt x="1059" y="743" on="1"/>
        <pt x="1059" y="682" on="1"/>
        <pt x="111" y="266" on="1"/>
        <pt x="111" y="362" on="1"/>
        <pt x="934" y="717" on="1"/>
        <pt x="111" y="1122" on="1"/>
        <pt x="111" y="1217" on="1"/>
      </contour>
    </TTGlyph>
    <TTGlyph name="guillemotleft" xMin="82" yMin="125" xMax="813" yMax="936">
      <contour>
        <pt x="453" y="893" on="1"/>
        <pt x="199" y="530" on="1"/>
        <pt x="453" y="168" on="1"/>
        <pt x="391" y="125" on="1"/>
        <pt x="82" y="516" on="1"/>
        <pt x="82" y="543" on="1"/>
        <pt x="391" y="936" on="1"/>
      </contour>
      <contour>
        <pt x="813" y="893" on="1"/>
        <pt x="559" y="530" on="1"/>
        <pt x="813" y="168" on="1"/>
        <pt x="752" y="125" on="1"/>
        <pt x="442" y="516" on="1"/>
        <pt x="442" y="543" on="1"/>
        <pt x="752" y="936" on="1"/>
      </contour>
    </TTGlyph>
    <TTGlyph name="guillemotright" xMin="72" yMin="125" xMax="803" yMax="936">
      <contour>
        <pt x="442" y="545" on="1"/>
        <pt x="442" y="518" on="1"/>
        <pt x="133" y="125" on="1"/>
        <pt x="72" y="168" on="1"/>
        <pt x="326" y="530" on="1"/>
        <pt x="72" y="893" on="1"/>
        <pt x="133" y="936" on="1"/>
      </contour>
      <contour>
        <pt x="803" y="545" on="1"/>
        <pt x="803" y="518" on="1"/>
        <pt x="494" y="125" on="1"/>
        <pt x="432" y="168" on="1"/>
        <pt x="686" y="530" on="1"/>
        <pt x="432" y="893" on="1"/>
        <pt x="494" y="936" on="1"/>
      </contour>
    </TTGlyph>
    <TTGlyph name="guilsinglleft" xMin="82" yMin="125" xMax="453" yMax="936">
      <contour>
        <pt x="453" y="893" on="1"/>
        <pt x="199" y="530" on="1"/>
        <pt x="453" y="168" on="1"/>
        <pt x="391" y="125" on="1"/>
        <pt x="82" y="516" on="1"/>
        <pt x="82" y="543" on="1"/>
        <pt x="391" y="936" on="1"/>
      </contour>
    </TTGlyph>
    <TTGlyph name="guilsinglright" xMin="72" yMin="125" xMax="442" yMax="936">
      <contour>
        <pt x="442" y="545" on="1"/>
        <pt x="442" y="518" on="1"/>
        <pt x="133" y="125" on="1"/>
        <pt x="72" y="168" on="1"/>
        <pt x="326" y="530" on="1"/>
        <pt x="72" y="893" on="1"/>
        <pt x="133" y="936" on="1"/>
      </contour>
    </TTGlyph>
    <TTGlyph name="h" xMin="182" yMin="0" xMax="1038" yMax="1556">
      <contour>
        <pt x="668" y="1108" on="1"/>
        <pt x="1038" y="1108" on="0"/>
        <pt x="1038" y="711" on="1"/>
        <pt x="1038" y="0" on="1"/>
        <pt x="940" y="0" on="1"/>
        <pt x="940" y="705" on="1"/>
        <pt x="940" y="868" on="0"/>
        <pt x="803" y="1018" on="0"/>
        <pt x="657" y="1018" on="1"/>
        <pt x="464" y="1018" on="0"/>
        <pt x="281" y="822" on="0"/>
        <pt x="281" y="600" on="1"/>
        <pt x="281" y="0" on="1"/>
        <pt x="182" y="0" on="1"/>
        <pt x="182" y="1556" on="1"/>
        <pt x="281" y="1556" on="1"/>
        <pt x="281" y="1061" on="1"/>
        <pt x="276" y="922" on="1"/>
        <pt x="283" y="922" on="1"/>
        <pt x="343" y="1019" on="0"/>
        <pt x="529" y="1108" on="0"/>
      </contour>
    </TTGlyph>
    <TTGlyph name="hedageshhb" xMin="182" yMin="0" xMax="1086" yMax="1310">
      <contour>
        <pt x="182" y="1290" on="1"/>
        <pt x="474" y="1310" on="0"/>
        <pt x="695" y="1310" on="0"/>
        <pt x="826" y="1293" on="0"/>
        <pt x="952" y="1244" on="0"/>
        <pt x="1035" y="1165" on="0"/>
        <pt x="1086" y="1034" on="0"/>
        <pt x="1086" y="946" on="1"/>
        <pt x="1086" y="0" on="1"/>
        <pt x="983" y="0" on="1"/>
        <pt x="983" y="946" on="1"/>
        <pt x="983" y="1080" on="0"/>
        <pt x="913" y="1146" on="1"/>
        <pt x="856" y="1201" on="0"/>
        <pt x="731" y="1214" on="1"/>
        <pt x="681" y="1220" on="0"/>
        <pt x="472" y="1220" on="0"/>
        <pt x="182" y="1198" on="1"/>
      </contour>
      <contour>
        <pt x="182" y="0" on="1"/>
        <pt x="182" y="813" on="1"/>
        <pt x="284" y="813" on="1"/>
        <pt x="284" y="0" on="1"/>
      </contour>
      <contour>
        <pt x="626" y="741" on="1"/>
        <pt x="690" y="741" on="0"/>
        <pt x="690" y="591" on="0"/>
        <pt x="626" y="591" on="1"/>
        <pt x="565" y="591" on="0"/>
        <pt x="565" y="741" on="0"/>
      </contour>
    </TTGlyph>
    <TTGlyph name="hungarumlaut" xMin="258" yMin="1241" xMax="920" yMax="1569">
      <contour>
        <pt x="582" y="1569" on="1"/>
        <pt x="582" y="1552" on="1"/>
        <pt x="450" y="1353" on="0"/>
        <pt x="328" y="1241" on="1"/>
        <pt x="258" y="1241" on="1"/>
        <pt x="258" y="1257" on="1"/>
        <pt x="288" y="1288" on="0"/>
        <pt x="358" y="1400" on="0"/>
        <pt x="446" y="1569" on="1"/>
      </contour>
      <contour>
        <pt x="920" y="1569" on="1"/>
        <pt x="920" y="1552" on="1"/>
        <pt x="788" y="1353" on="0"/>
        <pt x="666" y="1241" on="1"/>
        <pt x="596" y="1241" on="1"/>
        <pt x="596" y="1257" on="1"/>
        <pt x="626" y="1288" on="0"/>
        <pt x="696" y="1400" on="0"/>
        <pt x="784" y="1569" on="1"/>
      </contour>
    </TTGlyph>
    <TTGlyph name="hyphen" xMin="92" yMin="512" xMax="567" yMax="594">
      <contour>
        <pt x="567" y="512" on="1"/>
        <pt x="92" y="512" on="1"/>
        <pt x="92" y="594" on="1"/>
        <pt x="567" y="594" on="1"/>
      </contour>
    </TTGlyph>
    <TTGlyph name="i" xMin="168" yMin="0" xMax="297" yMax="1485">
      <contour>
        <pt x="231" y="1485" on="1"/>
        <pt x="262" y="1485" on="0"/>
        <pt x="297" y="1435" on="0"/>
        <pt x="297" y="1344" on="0"/>
        <pt x="262" y="1292" on="0"/>
        <pt x="231" y="1292" on="1"/>
        <pt x="168" y="1292" on="0"/>
        <pt x="168" y="1485" on="0"/>
      </contour>
      <contour>
        <pt x="281" y="0" on="1"/>
        <pt x="182" y="0" on="1"/>
        <pt x="182" y="1087" on="1"/>
        <pt x="281" y="1087" on="1"/>
      </contour>
    </TTGlyph>
    <TTGlyph name="iacute" xMin="107" yMin="0" xMax="490" yMax="1569">
      <contour>
        <pt x="490" y="1569" on="1"/>
        <pt x="490" y="1552" on="1"/>
        <pt x="454" y="1500" on="0"/>
        <pt x="280" y="1327" on="0"/>
        <pt x="177" y="1241" on="1"/>
        <pt x="107" y="1241" on="1"/>
        <pt x="107" y="1257" on="1"/>
        <pt x="179" y="1335" on="0"/>
        <pt x="322" y="1520" on="0"/>
        <pt x="349" y="1569" on="1"/>
      </contour>
      <contour>
        <pt x="281" y="0" on="1"/>
        <pt x="182" y="0" on="1"/>
        <pt x="182" y="1087" on="1"/>
        <pt x="281" y="1087" on="1"/>
      </contour>
    </TTGlyph>
    <TTGlyph name="icircumflex" xMin="-58" yMin="0" xMax="524" yMax="1569">
      <contour>
        <pt x="524" y="1241" on="1"/>
        <pt x="454" y="1241" on="1"/>
        <pt x="330" y="1343" on="0"/>
        <pt x="233" y="1448" on="1"/>
        <pt x="127" y="1336" on="0"/>
        <pt x="12" y="1241" on="1"/>
        <pt x="-58" y="1241" on="1"/>
        <pt x="-58" y="1257" on="1"/>
        <pt x="4" y="1324" on="0"/>
        <pt x="143" y="1502" on="0"/>
        <pt x="184" y="1569" on="1"/>
        <pt x="282" y="1569" on="1"/>
        <pt x="349" y="1450" on="0"/>
        <pt x="524" y="1257" on="1"/>
      </contour>
      <contour>
        <pt x="281" y="0" on="1"/>
        <pt x="182" y="0" on="1"/>
        <pt x="182" y="1087" on="1"/>
        <pt x="281" y="1087" on="1"/>
      </contour>
    </TTGlyph>
    <TTGlyph name="idieresis" xMin="-21" yMin="0" xMax="487" yMax="1475">
      <contour>
        <pt x="42" y="1475" on="1"/>
        <pt x="106" y="1475" on="0"/>
        <pt x="106" y="1303" on="0"/>
        <pt x="-21" y="1303" on="0"/>
        <pt x="-21" y="1389" on="1"/>
        <pt x="-21" y="1434" on="0"/>
        <pt x="9" y="1475" on="0"/>
      </contour>
      <contour>
        <pt x="423" y="1475" on="1"/>
        <pt x="487" y="1475" on="0"/>
        <pt x="487" y="1303" on="0"/>
        <pt x="360" y="1303" on="0"/>
        <pt x="360" y="1389" on="1"/>
        <pt x="360" y="1434" on="0"/>
        <pt x="390" y="1475" on="0"/>
      </contour>
      <contour>
        <pt x="281" y="0" on="1"/>
        <pt x="182" y="0" on="1"/>
        <pt x="182" y="1087" on="1"/>
        <pt x="281" y="1087" on="1"/>
      </contour>
    </TTGlyph>
    <TTGlyph name="igrave" xMin="-34" yMin="0" xMax="349" yMax="1569">
      <contour>
        <pt x="-34" y="1569" on="1"/>
        <pt x="108" y="1569" on="1"/>
        <pt x="134" y="1521" on="0"/>
        <pt x="280" y="1332" on="0"/>
        <pt x="349" y="1257" on="1"/>
        <pt x="349" y="1241" on="1"/>
        <pt x="280" y="1241" on="1"/>
        <pt x="186" y="1318" on="0"/>
        <pt x="0" y="1503" on="0"/>
        <pt x="-34" y="1552" on="1"/>
      </contour>
      <contour>
        <pt x="281" y="0" on="1"/>
        <pt x="182" y="0" on="1"/>
        <pt x="182" y="1087" on="1"/>
        <pt x="281" y="1087" on="1"/>
      </contour>
    </TTGlyph>
    <TTGlyph name="j" xMin="-97" yMin="-492" xMax="297" yMax="1485">
      <contour>
        <pt x="231" y="1485" on="1"/>
        <pt x="262" y="1485" on="0"/>
        <pt x="297" y="1435" on="0"/>
        <pt x="297" y="1344" on="0"/>
        <pt x="262" y="1292" on="0"/>
        <pt x="231" y="1292" on="1"/>
        <pt x="168" y="1292" on="0"/>
        <pt x="168" y="1485" on="0"/>
      </contour>
      <contour>
        <pt x="281" y="1087" on="1"/>
        <pt x="281" y="-211" on="1"/>
        <pt x="281" y="-346" on="0"/>
        <pt x="154" y="-492" on="0"/>
        <pt x="37" y="-492" on="1"/>
        <pt x="-44" y="-492" on="0"/>
        <pt x="-97" y="-467" on="1"/>
        <pt x="-97" y="-381" on="1"/>
        <pt x="-28" y="-401" on="0"/>
        <pt x="31" y="-401" on="1"/>
        <pt x="182" y="-401" on="0"/>
        <pt x="182" y="-225" on="1"/>
        <pt x="182" y="1087" on="1"/>
      </contour>
    </TTGlyph>
    <TTGlyph name="k" xMin="182" yMin="0" xMax="990" yMax="1556">
      <contour>
        <pt x="281" y="0" on="1"/>
        <pt x="182" y="0" on="1"/>
        <pt x="182" y="1556" on="1"/>
        <pt x="281" y="1556" on="1"/>
        <pt x="281" y="776" on="1"/>
        <pt x="274" y="477" on="1"/>
        <pt x="279" y="477" on="1"/>
        <pt x="834" y="1087" on="1"/>
        <pt x="954" y="1087" on="1"/>
        <pt x="526" y="623" on="1"/>
        <pt x="990" y="0" on="1"/>
        <pt x="872" y="0" on="1"/>
        <pt x="459" y="549" on="1"/>
        <pt x="281" y="387" on="1"/>
      </contour>
    </TTGlyph>
    <TTGlyph name="kafdageshhb" xMin="72" yMin="-20" xMax="842" yMax="1309">
      <contour>
        <pt x="124" y="1282" on="0"/>
        <pt x="265" y="1309" on="0"/>
        <pt x="455" y="1309" on="0"/>
        <pt x="632" y="1239" on="0"/>
        <pt x="742" y="1126" on="0"/>
        <pt x="778" y="1047" on="1"/>
        <pt x="842" y="907" on="0"/>
        <pt x="842" y="717" on="1"/>
        <pt x="842" y="536" on="1"/>
        <pt x="842" y="391" on="0"/>
        <pt x="794" y="262" on="1"/>
        <pt x="760" y="172" on="0"/>
        <pt x="691" y="102" on="1"/>
        <pt x="617" y="26" on="0"/>
        <pt x="498" y="-4" on="1"/>
        <pt x="435" y="-20" on="0"/>
        <pt x="286" y="-20" on="0"/>
        <pt x="142" y="-2" on="0"/>
        <pt x="107" y="7" on="1"/>
        <pt x="72" y="16" on="1"/>
        <pt x="72" y="124" on="1"/>
        <pt x="113" y="104" on="0"/>
        <pt x="281" y="70" on="0"/>
        <pt x="427" y="70" on="0"/>
        <pt x="541" y="109" on="0"/>
        <pt x="618" y="172" on="0"/>
        <pt x="677" y="258" on="0"/>
        <pt x="710" y="344" on="0"/>
        <pt x="720" y="390" on="1"/>
        <pt x="738" y="468" on="0"/>
        <pt x="738" y="536" on="1"/>
        <pt x="738" y="717" on="1"/>
        <pt x="738" y="953" on="0"/>
        <pt x="544" y="1220" on="0"/>
        <pt x="342" y="1220" on="1"/>
        <pt x="230" y="1220" on="0"/>
        <pt x="114" y="1180" on="1"/>
        <pt x="78" y="1168" on="0"/>
        <pt x="72" y="1166" on="1"/>
        <pt x="72" y="1261" on="1"/>
        <pt x="83" y="1266" on="0"/>
      </contour>
      <contour>
        <pt x="356" y="741" on="1"/>
        <pt x="420" y="741" on="0"/>
        <pt x="420" y="591" on="0"/>
        <pt x="356" y="591" on="1"/>
        <pt x="295" y="591" on="0"/>
        <pt x="295" y="741" on="0"/>
      </contour>
    </TTGlyph>
    <TTGlyph name="l" xMin="182" yMin="0" xMax="281" yMax="1556">
      <contour>
        <pt x="281" y="0" on="1"/>
        <pt x="182" y="0" on="1"/>
        <pt x="182" y="1556" on="1"/>
        <pt x="281" y="1556" on="1"/>
      </contour>
    </TTGlyph>
    <TTGlyph name="lameddageshhb" xMin="45" yMin="0" xMax="848" yMax="1569">
      <contour>
        <pt x="848" y="1296" on="1"/>
        <pt x="848" y="1182" on="1"/>
        <pt x="656" y="507" on="1"/>
        <pt x="565" y="0" on="1"/>
        <pt x="461" y="0" on="1"/>
        <pt x="550" y="494" on="1"/>
        <pt x="753" y="1200" on="1"/>
        <pt x="45" y="1200" on="1"/>
        <pt x="45" y="1569" on="1"/>
        <pt x="147" y="1569" on="1"/>
        <pt x="147" y="1296" on="1"/>
      </contour>
      <contour>
        <pt x="316" y="741" on="1"/>
        <pt x="380" y="741" on="0"/>
        <pt x="380" y="591" on="0"/>
        <pt x="316" y="591" on="1"/>
        <pt x="255" y="591" on="0"/>
        <pt x="255" y="741" on="0"/>
      </contour>
    </TTGlyph>
    <TTGlyph name="less" xMin="111" yMin="266" xMax="1059" yMax="1217">
      <contour>
        <pt x="1059" y="1122" on="1"/>
        <pt x="236" y="717" on="1"/>
        <pt x="1059" y="362" on="1"/>
        <pt x="1059" y="266" on="1"/>
        <pt x="111" y="682" on="1"/>
        <pt x="111" y="743" on="1"/>
        <pt x="1059" y="1217" on="1"/>
      </contour>
    </TTGlyph>
    <TTGlyph name="logicalnot" xMin="111" yMin="270" xMax="1038" yMax="764">
      <contour>
        <pt x="1038" y="270" on="1"/>
        <pt x="956" y="270" on="1"/>
        <pt x="956" y="682" on="1"/>
        <pt x="111" y="682" on="1"/>
        <pt x="111" y="764" on="1"/>
        <pt x="1038" y="764" on="1"/>
      </contour>
    </TTGlyph>
    <TTGlyph name="m" xMin="182" yMin="0" xMax="1638" yMax="1108">
      <contour>
        <pt x="1282" y="1108" on="1"/>
        <pt x="1462" y="1108" on="0"/>
        <pt x="1638" y="915" on="0"/>
        <pt x="1638" y="711" on="1"/>
        <pt x="1638" y="0" on="1"/>
        <pt x="1540" y="0" on="1"/>
        <pt x="1540" y="713" on="1"/>
        <pt x="1540" y="871" on="0"/>
        <pt x="1417" y="1018" on="0"/>
        <pt x="1288" y="1018" on="1"/>
        <pt x="1120" y="1018" on="0"/>
        <pt x="961" y="834" on="0"/>
        <pt x="961" y="637" on="1"/>
        <pt x="961" y="0" on="1"/>
        <pt x="860" y="0" on="1"/>
        <pt x="860" y="743" on="1"/>
        <pt x="860" y="1018" on="0"/>
        <pt x="608" y="1018" on="1"/>
        <pt x="437" y="1018" on="0"/>
        <pt x="281" y="819" on="0"/>
        <pt x="281" y="600" on="1"/>
        <pt x="281" y="0" on="1"/>
        <pt x="182" y="0" on="1"/>
        <pt x="182" y="1087" on="1"/>
        <pt x="264" y="1087" on="1"/>
        <pt x="285" y="938" on="1"/>
        <pt x="291" y="938" on="1"/>
        <pt x="336" y="1018" on="0"/>
        <pt x="501" y="1108" on="0"/>
        <pt x="602" y="1108" on="1"/>
        <pt x="859" y="1108" on="0"/>
        <pt x="932" y="915" on="1"/>
        <pt x="936" y="915" on="1"/>
        <pt x="989" y="1008" on="0"/>
        <pt x="1168" y="1108" on="0"/>
      </contour>
    </TTGlyph>
    <TTGlyph name="memdageshhb" xMin="97" yMin="0" xMax="1030" yMax="1310">
      <contour>
        <pt x="664" y="1310" on="1"/>
        <pt x="843" y="1310" on="0"/>
        <pt x="1030" y="1082" on="0"/>
        <pt x="1030" y="886" on="1"/>
        <pt x="1030" y="0" on="1"/>
        <pt x="645" y="0" on="1"/>
        <pt x="645" y="88" on="1"/>
        <pt x="929" y="88" on="1"/>
        <pt x="929" y="886" on="1"/>
        <pt x="929" y="1040" on="0"/>
        <pt x="784" y="1220" on="0"/>
        <pt x="664" y="1220" on="1"/>
        <pt x="581" y="1220" on="0"/>
        <pt x="445" y="1180" on="0"/>
        <pt x="368" y="1123" on="0"/>
        <pt x="315" y="1066" on="0"/>
        <pt x="306" y="1046" on="1"/>
        <pt x="296" y="1026" on="1"/>
        <pt x="199" y="0" on="1"/>
        <pt x="97" y="0" on="1"/>
        <pt x="193" y="1005" on="1"/>
        <pt x="197" y="1076" on="0"/>
        <pt x="184" y="1124" on="1"/>
        <pt x="180" y="1140" on="0"/>
        <pt x="176" y="1158" on="0"/>
        <pt x="163" y="1194" on="0"/>
        <pt x="161" y="1200" on="1"/>
        <pt x="157" y="1214" on="0"/>
        <pt x="142" y="1251" on="1"/>
        <pt x="125" y="1296" on="1"/>
        <pt x="234" y="1296" on="1"/>
        <pt x="271" y="1210" on="0"/>
        <pt x="283" y="1155" on="1"/>
        <pt x="296" y="1155" on="1"/>
        <pt x="309" y="1175" on="0"/>
        <pt x="384" y="1236" on="0"/>
        <pt x="462" y="1276" on="0"/>
        <pt x="592" y="1310" on="0"/>
      </contour>
      <contour>
        <pt x="598" y="741" on="1"/>
        <pt x="662" y="741" on="0"/>
        <pt x="662" y="591" on="0"/>
        <pt x="598" y="591" on="1"/>
        <pt x="537" y="591" on="0"/>
        <pt x="537" y="741" on="0"/>
      </contour>
    </TTGlyph>
    <TTGlyph name="mu" xMin="182" yMin="-492" xMax="1038" yMax="1087">
      <contour>
        <pt x="1038" y="0" on="1"/>
        <pt x="954" y="0" on="1"/>
        <pt x="936" y="150" on="1"/>
        <pt x="930" y="150" on="1"/>
        <pt x="881" y="73" on="0"/>
        <pt x="681" y="-20" on="0"/>
        <pt x="563" y="-20" on="1"/>
        <pt x="376" y="-20" on="0"/>
        <pt x="276" y="92" on="1"/>
        <pt x="281" y="-10" on="0"/>
        <pt x="281" y="-78" on="1"/>
        <pt x="281" y="-492" on="1"/>
        <pt x="182" y="-492" on="1"/>
        <pt x="182" y="1087" on="1"/>
        <pt x="281" y="1087" on="1"/>
        <pt x="281" y="383" on="1"/>
        <pt x="281" y="220" on="0"/>
        <pt x="418" y="70" on="0"/>
        <pt x="563" y="70" on="1"/>
        <pt x="756" y="70" on="0"/>
        <pt x="940" y="266" on="0"/>
        <pt x="940" y="487" on="1"/>
        <pt x="940" y="1087" on="1"/>
        <pt x="1038" y="1087" on="1"/>
      </contour>
    </TTGlyph>
    <TTGlyph name="multiply" xMin="119" yMin="258" xMax="1051" yMax="1188">
      <contour>
        <pt x="1051" y="1130" on="1"/>
        <pt x="643" y="723" on="1"/>
        <pt x="1049" y="315" on="1"/>
        <pt x="990" y="258" on="1"/>
        <pt x="584" y="666" on="1"/>
        <pt x="178" y="258" on="1"/>
        <pt x="121" y="315" on="1"/>
        <pt x="526" y="723" on="1"/>
        <pt x="119" y="1130" on="1"/>
        <pt x="176" y="1188" on="1"/>
        <pt x="584" y="780" on="1"/>
        <pt x="992" y="1188" on="1"/>
      </contour>
    </TTGlyph>
    <TTGlyph name="n" xMin="182" yMin="0" xMax="1038" yMax="1108">
      <contour>
        <pt x="668" y="1108" on="1"/>
        <pt x="1038" y="1108" on="0"/>
        <pt x="1038" y="711" on="1"/>
        <pt x="1038" y="0" on="1"/>
        <pt x="940" y="0" on="1"/>
        <pt x="940" y="705" on="1"/>
        <pt x="940" y="868" on="0"/>
        <pt x="803" y="1018" on="0"/>
        <pt x="657" y="1018" on="1"/>
        <pt x="464" y="1018" on="0"/>
        <pt x="281" y="822" on="0"/>
        <pt x="281" y="600" on="1"/>
        <pt x="281" y="0" on="1"/>
        <pt x="182" y="0" on="1"/>
        <pt x="182" y="1087" on="1"/>
        <pt x="266" y="1087" on="1"/>
        <pt x="285" y="938" on="1"/>
        <pt x="291" y="938" on="1"/>
        <pt x="398" y="1108" on="0"/>
      </contour>
    </TTGlyph>
    <TTGlyph name="nine" xMin="111" yMin="-20" xMax="1036" yMax="1485">
      <contour>
        <pt x="199" y="92" on="1"/>
        <pt x="294" y="63" on="0"/>
        <pt x="395" y="63" on="1"/>
        <pt x="643" y="63" on="0"/>
        <pt x="922" y="421" on="0"/>
        <pt x="938" y="762" on="1"/>
        <pt x="926" y="762" on="1"/>
        <pt x="854" y="667" on="0"/>
        <pt x="652" y="563" on="0"/>
        <pt x="541" y="563" on="1"/>
        <pt x="337" y="563" on="0"/>
        <pt x="111" y="788" on="0"/>
        <pt x="111" y="1213" on="0"/>
        <pt x="359" y="1485" on="0"/>
        <pt x="559" y="1485" on="1"/>
        <pt x="564" y="1485" on="0"/>
        <pt x="569" y="1485" on="1"/>
        <pt x="779" y="1485" on="0"/>
        <pt x="1036" y="1143" on="0"/>
        <pt x="1036" y="851" on="1"/>
        <pt x="1036" y="846" on="0"/>
        <pt x="1036" y="839" on="0"/>
        <pt x="1036" y="837" on="1"/>
        <pt x="1036" y="412" on="0"/>
        <pt x="704" y="-20" on="0"/>
        <pt x="399" y="-20" on="1"/>
        <pt x="395" y="-20" on="0"/>
        <pt x="391" y="-20" on="1"/>
        <pt x="289" y="-20" on="0"/>
        <pt x="199" y="6" on="1"/>
      </contour>
      <contour>
        <pt x="559" y="1397" on="1"/>
        <pt x="402" y="1397" on="0"/>
        <pt x="213" y="1184" on="0"/>
        <pt x="213" y="826" on="0"/>
        <pt x="386" y="645" on="0"/>
        <pt x="549" y="645" on="1"/>
        <pt x="650" y="645" on="0"/>
        <pt x="824" y="734" on="0"/>
        <pt x="928" y="883" on="0"/>
        <pt x="928" y="961" on="1"/>
        <pt x="928" y="1077" on="0"/>
        <pt x="881" y="1180" on="1"/>
        <pt x="835" y="1283" on="0"/>
        <pt x="667" y="1397" on="0"/>
      </contour>
    </TTGlyph>
    <TTGlyph name="ntilde" xMin="182" yMin="0" xMax="1038" yMax="1481">
      <contour>
        <pt x="779" y="1243" on="1"/>
        <pt x="741" y="1243" on="0"/>
        <pt x="663" y="1282" on="0"/>
        <pt x="576" y="1355" on="0"/>
        <pt x="560" y="1366" on="1"/>
        <pt x="515" y="1399" on="0"/>
        <pt x="432" y="1399" on="0"/>
        <pt x="373" y="1328" on="0"/>
        <pt x="355" y="1243" on="1"/>
        <pt x="282" y="1243" on="1"/>
        <pt x="292" y="1354" on="0"/>
        <pt x="398" y="1481" on="0"/>
        <pt x="482" y="1481" on="1"/>
        <pt x="512" y="1481" on="0"/>
        <pt x="575" y="1455" on="0"/>
        <pt x="616" y="1426" on="0"/>
        <pt x="681" y="1373" on="0"/>
        <pt x="698" y="1360" on="1"/>
        <pt x="744" y="1325" on="0"/>
        <pt x="779" y="1325" on="1"/>
        <pt x="872" y="1325" on="0"/>
        <pt x="904" y="1481" on="1"/>
        <pt x="980" y="1481" on="1"/>
        <pt x="964" y="1366" on="0"/>
        <pt x="859" y="1243" on="0"/>
      </contour>
      <contour>
        <pt x="668" y="1108" on="1"/>
        <pt x="1038" y="1108" on="0"/>
        <pt x="1038" y="711" on="1"/>
        <pt x="1038" y="0" on="1"/>
        <pt x="940" y="0" on="1"/>
        <pt x="940" y="705" on="1"/>
        <pt x="940" y="868" on="0"/>
        <pt x="803" y="1018" on="0"/>
        <pt x="657" y="1018" on="1"/>
        <pt x="461" y="1018" on="0"/>
        <pt x="281" y="820" on="0"/>
        <pt x="281" y="600" on="1"/>
        <pt x="281" y="0" on="1"/>
        <pt x="182" y="0" on="1"/>
        <pt x="182" y="1087" on="1"/>
        <pt x="266" y="1087" on="1"/>
        <pt x="285" y="938" on="1"/>
        <pt x="291" y="938" on="1"/>
        <pt x="398" y="1108" on="0"/>
      </contour>
    </TTGlyph>
    <TTGlyph name="numbersign" xMin="55" yMin="0" xMax="1268" yMax="1462">
      <contour>
        <pt x="1268" y="1008" on="1"/>
        <pt x="1268" y="928" on="1"/>
        <pt x="967" y="928" on="1"/>
        <pt x="891" y="530" on="1"/>
        <pt x="1194" y="530" on="1"/>
        <pt x="1194" y="451" on="1"/>
        <pt x="874" y="451" on="1"/>
        <pt x="788" y="0" on="1"/>
        <pt x="698" y="0" on="1"/>
        <pt x="786" y="451" on="1"/>
        <pt x="426" y="451" on="1"/>
        <pt x="340" y="0" on="1"/>
        <pt x="252" y="0" on="1"/>
        <pt x="338" y="451" on="1"/>
        <pt x="55" y="451" on="1"/>
        <pt x="55" y="530" on="1"/>
        <pt x="354" y="530" on="1"/>
        <pt x="430" y="928" on="1"/>
        <pt x="133" y="928" on="1"/>
        <pt x="133" y="1008" on="1"/>
        <pt x="444" y="1008" on="1"/>
        <pt x="530" y="1462" on="1"/>
        <pt x="621" y="1462" on="1"/>
        <pt x="532" y="1008" on="1"/>
        <pt x="897" y="1008" on="1"/>
        <pt x="984" y="1462" on="1"/>
        <pt x="1071" y="1462" on="1"/>
        <pt x="982" y="1008" on="1"/>
      </contour>
      <contour>
        <pt x="518" y="928" on="1"/>
        <pt x="440" y="530" on="1"/>
        <pt x="803" y="530" on="1"/>
        <pt x="881" y="928" on="1"/>
      </contour>
    </TTGlyph>
    <TTGlyph name="nundageshhb" xMin="129" yMin="0" xMax="714" yMax="1310">
      <contour>
        <pt x="448" y="1310" on="1"/>
        <pt x="578" y="1310" on="0"/>
        <pt x="714" y="1147" on="0"/>
        <pt x="714" y="1015" on="1"/>
        <pt x="714" y="333" on="1"/>
        <pt x="714" y="265" on="0"/>
        <pt x="694" y="99" on="0"/>
        <pt x="684" y="50" on="1"/>
        <pt x="675" y="0" on="1"/>
        <pt x="129" y="0" on="1"/>
        <pt x="129" y="88" on="1"/>
        <pt x="585" y="88" on="1"/>
        <pt x="612" y="215" on="0"/>
        <pt x="612" y="333" on="1"/>
        <pt x="612" y="1015" on="1"/>
        <pt x="612" y="1107" on="0"/>
        <pt x="531" y="1220" on="0"/>
        <pt x="364" y="1220" on="0"/>
        <pt x="276" y="1203" on="1"/>
        <pt x="276" y="1295" on="1"/>
        <pt x="351" y="1310" on="0"/>
      </contour>
      <contour>
        <pt x="390" y="741" on="1"/>
        <pt x="454" y="741" on="0"/>
        <pt x="454" y="591" on="0"/>
        <pt x="390" y="591" on="1"/>
        <pt x="329" y="591" on="0"/>
        <pt x="329" y="741" on="0"/>
      </contour>
    </TTGlyph>
    <TTGlyph name="o" xMin="119" yMin="-20" xMax="1081" yMax="1108">
      <contour>
        <pt x="119" y="545" on="1"/>
        <pt x="119" y="810" on="0"/>
        <pt x="377" y="1108" on="0"/>
        <pt x="826" y="1108" on="0"/>
        <pt x="1081" y="806" on="0"/>
        <pt x="1081" y="279" on="0"/>
        <pt x="823" y="-20" on="0"/>
        <pt x="596" y="-20" on="1"/>
        <pt x="591" y="-20" on="0"/>
        <pt x="585" y="-20" on="1"/>
        <pt x="378" y="-20" on="0"/>
        <pt x="119" y="286" on="0"/>
        <pt x="119" y="530" on="1"/>
        <pt x="119" y="538" on="0"/>
      </contour>
      <contour>
        <pt x="780" y="70" on="0"/>
        <pt x="976" y="320" on="0"/>
        <pt x="976" y="771" on="0"/>
        <pt x="777" y="1018" on="0"/>
        <pt x="418" y="1018" on="0"/>
        <pt x="223" y="771" on="0"/>
        <pt x="223" y="322" on="0"/>
        <pt x="321" y="195" on="1"/>
        <pt x="420" y="70" on="0"/>
      </contour>
    </TTGlyph>
    <TTGlyph name="oacute" xMin="119" yMin="-20" xMax="1081" yMax="1569">
      <contour>
        <pt x="882" y="1569" on="1"/>
        <pt x="882" y="1552" on="1"/>
        <pt x="846" y="1500" on="0"/>
        <pt x="672" y="1327" on="0"/>
        <pt x="569" y="1241" on="1"/>
        <pt x="499" y="1241" on="1"/>
        <pt x="499" y="1257" on="1"/>
        <pt x="571" y="1335" on="0"/>
        <pt x="714" y="1520" on="0"/>
        <pt x="741" y="1569" on="1"/>
      </contour>
      <contour>
        <pt x="119" y="810" on="0"/>
        <pt x="376" y="1108" on="0"/>
        <pt x="826" y="1108" on="0"/>
        <pt x="1081" y="807" on="0"/>
        <pt x="1081" y="279" on="0"/>
        <pt x="824" y="-20" on="0"/>
        <pt x="596" y="-20" on="1"/>
        <pt x="452" y="-20" on="0"/>
        <pt x="235" y="118" on="0"/>
        <pt x="119" y="375" on="0"/>
        <pt x="119" y="545" on="1"/>
      </contour>
      <contour>
        <pt x="778" y="1018" on="0"/>
        <pt x="418" y="1018" on="0"/>
        <pt x="223" y="771" on="0"/>
        <pt x="223" y="320" on="0"/>
        <pt x="420" y="70" on="0"/>
        <pt x="780" y="70" on="0"/>
        <pt x="977" y="320" on="0"/>
        <pt x="977" y="770" on="0"/>
      </contour>
    </TTGlyph>
    <TTGlyph name="ocircumflex" xMin="119" yMin="-20" xMax="1081" yMax="1569">
      <contour>
        <pt x="891" y="1241" on="1"/>
        <pt x="821" y="1241" on="1"/>
        <pt x="697" y="1343" on="0"/>
        <pt x="600" y="1448" on="1"/>
        <pt x="494" y="1336" on="0"/>
        <pt x="379" y="1241" on="1"/>
        <pt x="309" y="1241" on="1"/>
        <pt x="309" y="1257" on="1"/>
        <pt x="371" y="1324" on="0"/>
        <pt x="510" y="1502" on="0"/>
        <pt x="551" y="1569" on="1"/>
        <pt x="649" y="1569" on="1"/>
        <pt x="716" y="1450" on="0"/>
        <pt x="891" y="1257" on="1"/>
      </contour>
      <contour>
        <pt x="119" y="810" on="0"/>
        <pt x="376" y="1108" on="0"/>
        <pt x="826" y="1108" on="0"/>
        <pt x="1081" y="807" on="0"/>
        <pt x="1081" y="279" on="0"/>
        <pt x="824" y="-20" on="0"/>
        <pt x="596" y="-20" on="1"/>
        <pt x="452" y="-20" on="0"/>
        <pt x="235" y="118" on="0"/>
        <pt x="119" y="375" on="0"/>
        <pt x="119" y="545" on="1"/>
      </contour>
      <contour>
        <pt x="778" y="1018" on="0"/>
        <pt x="418" y="1018" on="0"/>
        <pt x="223" y="771" on="0"/>
        <pt x="223" y="320" on="0"/>
        <pt x="420" y="70" on="0"/>
        <pt x="780" y="70" on="0"/>
        <pt x="977" y="320" on="0"/>
        <pt x="977" y="770" on="0"/>
      </contour>
    </TTGlyph>
    <TTGlyph name="odieresis" xMin="119" yMin="-20" xMax="1081" yMax="1475">
      <contour>
        <pt x="409" y="1475" on="1"/>
        <pt x="473" y="1475" on="0"/>
        <pt x="473" y="1303" on="0"/>
        <pt x="346" y="1303" on="0"/>
        <pt x="346" y="1389" on="1"/>
        <pt x="346" y="1434" on="0"/>
        <pt x="376" y="1475" on="0"/>
      </contour>
      <contour>
        <pt x="790" y="1475" on="1"/>
        <pt x="854" y="1475" on="0"/>
        <pt x="854" y="1303" on="0"/>
        <pt x="727" y="1303" on="0"/>
        <pt x="727" y="1389" on="1"/>
        <pt x="727" y="1434" on="0"/>
        <pt x="757" y="1475" on="0"/>
      </contour>
      <contour>
        <pt x="119" y="810" on="0"/>
        <pt x="376" y="1108" on="0"/>
        <pt x="826" y="1108" on="0"/>
        <pt x="1081" y="807" on="0"/>
        <pt x="1081" y="279" on="0"/>
        <pt x="824" y="-20" on="0"/>
        <pt x="596" y="-20" on="1"/>
        <pt x="452" y="-20" on="0"/>
        <pt x="235" y="118" on="0"/>
        <pt x="119" y="375" on="0"/>
        <pt x="119" y="545" on="1"/>
      </contour>
      <contour>
        <pt x="778" y="1018" on="0"/>
        <pt x="418" y="1018" on="0"/>
        <pt x="223" y="771" on="0"/>
        <pt x="223" y="320" on="0"/>
        <pt x="420" y="70" on="0"/>
        <pt x="780" y="70" on="0"/>
        <pt x="977" y="320" on="0"/>
        <pt x="977" y="770" on="0"/>
      </contour>
    </TTGlyph>
    <TTGlyph name="oe" xMin="119" yMin="-20" xMax="1823" yMax="1108">
      <contour>
        <pt x="1438" y="-20" on="1"/>
        <pt x="1281" y="-20" on="0"/>
        <pt x="1061" y="115" on="0"/>
        <pt x="1006" y="246" on="1"/>
        <pt x="945" y="114" on="0"/>
        <pt x="745" y="-20" on="0"/>
        <pt x="452" y="-20" on="0"/>
        <pt x="235" y="118" on="0"/>
        <pt x="119" y="375" on="0"/>
        <pt x="119" y="545" on="1"/>
        <pt x="119" y="810" on="0"/>
        <pt x="376" y="1108" on="0"/>
        <pt x="602" y="1108" on="1"/>
        <pt x="895" y="1108" on="0"/>
        <pt x="1010" y="829" on="1"/>
        <pt x="1120" y="1108" on="0"/>
        <pt x="1409" y="1108" on="1"/>
        <pt x="1601" y="1108" on="0"/>
        <pt x="1823" y="840" on="0"/>
        <pt x="1823" y="610" on="1"/>
        <pt x="1823" y="530" on="1"/>
        <pt x="1061" y="530" on="1"/>
        <pt x="1063" y="302" on="0"/>
        <pt x="1258" y="70" on="0"/>
        <pt x="1438" y="70" on="1"/>
        <pt x="1534" y="70" on="0"/>
        <pt x="1675" y="97" on="0"/>
        <pt x="1780" y="139" on="1"/>
        <pt x="1780" y="49" on="1"/>
        <pt x="1690" y="10" on="0"/>
        <pt x="1535" y="-20" on="0"/>
      </contour>
      <contour>
        <pt x="1718" y="618" on="1"/>
        <pt x="1718" y="807" on="0"/>
        <pt x="1554" y="1020" on="0"/>
        <pt x="1255" y="1020" on="0"/>
        <pt x="1080" y="814" on="0"/>
        <pt x="1065" y="618" on="1"/>
      </contour>
      <contour>
        <pt x="956" y="770" on="0"/>
        <pt x="769" y="1018" on="0"/>
        <pt x="418" y="1018" on="0"/>
        <pt x="223" y="771" on="0"/>
        <pt x="223" y="320" on="0"/>
        <pt x="420" y="70" on="0"/>
        <pt x="774" y="70" on="0"/>
        <pt x="956" y="314" on="0"/>
      </contour>
    </TTGlyph>
    <TTGlyph name="ogonek" xMin="63" yMin="-446" xMax="350" yMax="0">
      <contour>
        <pt x="162" y="-248" on="1"/>
        <pt x="162" y="-358" on="0"/>
        <pt x="268" y="-358" on="1"/>
        <pt x="317" y="-358" on="0"/>
        <pt x="350" y="-346" on="1"/>
        <pt x="350" y="-430" on="1"/>
        <pt x="311" y="-446" on="0"/>
        <pt x="246" y="-446" on="1"/>
        <pt x="161" y="-446" on="0"/>
        <pt x="63" y="-350" on="0"/>
        <pt x="63" y="-272" on="1"/>
        <pt x="63" y="-118" on="0"/>
        <pt x="215" y="0" on="1"/>
        <pt x="305" y="0" on="1"/>
        <pt x="230" y="-66" on="0"/>
        <pt x="162" y="-179" on="0"/>
      </contour>
    </TTGlyph>
    <TTGlyph name="ograve" xMin="119" yMin="-20" xMax="1081" yMax="1569">
      <contour>
        <pt x="335" y="1569" on="1"/>
        <pt x="477" y="1569" on="1"/>
        <pt x="503" y="1521" on="0"/>
        <pt x="649" y="1332" on="0"/>
        <pt x="718" y="1257" on="1"/>
        <pt x="718" y="1241" on="1"/>
        <pt x="649" y="1241" on="1"/>
        <pt x="555" y="1318" on="0"/>
        <pt x="369" y="1503" on="0"/>
        <pt x="335" y="1552" on="1"/>
      </contour>
      <contour>
        <pt x="119" y="810" on="0"/>
        <pt x="376" y="1108" on="0"/>
        <pt x="826" y="1108" on="0"/>
        <pt x="1081" y="807" on="0"/>
        <pt x="1081" y="279" on="0"/>
        <pt x="824" y="-20" on="0"/>
        <pt x="596" y="-20" on="1"/>
        <pt x="452" y="-20" on="0"/>
        <pt x="235" y="118" on="0"/>
        <pt x="119" y="375" on="0"/>
        <pt x="119" y="545" on="1"/>
      </contour>
      <contour>
        <pt x="778" y="1018" on="0"/>
        <pt x="418" y="1018" on="0"/>
        <pt x="223" y="771" on="0"/>
        <pt x="223" y="320" on="0"/>
        <pt x="420" y="70" on="0"/>
        <pt x="780" y="70" on="0"/>
        <pt x="977" y="320" on="0"/>
        <pt x="977" y="770" on="0"/>
      </contour>
    </TTGlyph>
    <TTGlyph name="one" xMin="199" yMin="0" xMax="682" yMax="1462">
      <contour>
        <pt x="682" y="0" on="1"/>
        <pt x="584" y="0" on="1"/>
        <pt x="584" y="1065" on="1"/>
        <pt x="584" y="1210" on="0"/>
        <pt x="596" y="1366" on="1"/>
        <pt x="576" y="1346" on="0"/>
        <pt x="565" y="1337" on="1"/>
        <pt x="256" y="1094" on="1"/>
        <pt x="199" y="1165" on="1"/>
        <pt x="596" y="1462" on="1"/>
        <pt x="682" y="1462" on="1"/>
      </contour>
    </TTGlyph>
    <TTGlyph name="onehalf" xMin="11" yMin="0" xMax="1403" yMax="1462">
      <contour>
        <pt x="377" y="586" on="1"/>
        <pt x="279" y="586" on="1"/>
        <pt x="279" y="1133" on="1"/>
        <pt x="279" y="1232" on="0"/>
        <pt x="291" y="1366" on="1"/>
        <pt x="263" y="1341" on="0"/>
        <pt x="58" y="1221" on="1"/>
        <pt x="11" y="1298" on="1"/>
        <pt x="285" y="1462" on="1"/>
        <pt x="377" y="1462" on="1"/>
      </contour>
      <contour>
        <pt x="262" y="0" on="1"/>
        <pt x="168" y="0" on="1"/>
        <pt x="978" y="1462" on="1"/>
        <pt x="1073" y="1462" on="1"/>
      </contour>
      <contour>
        <pt x="1122" y="898" on="1"/>
        <pt x="1246" y="898" on="0"/>
        <pt x="1386" y="771" on="0"/>
        <pt x="1386" y="660" on="1"/>
        <pt x="1386" y="530" on="0"/>
        <pt x="1264" y="395" on="1"/>
        <pt x="1226" y="352" on="0"/>
        <pt x="956" y="89" on="1"/>
        <pt x="1403" y="89" on="1"/>
        <pt x="1403" y="0" on="1"/>
        <pt x="827" y="0" on="1"/>
        <pt x="827" y="79" on="1"/>
        <pt x="1069" y="316" on="1"/>
        <pt x="1197" y="441" on="0"/>
        <pt x="1288" y="582" on="0"/>
        <pt x="1288" y="729" on="0"/>
        <pt x="1196" y="812" on="0"/>
        <pt x="1118" y="812" on="1"/>
        <pt x="1008" y="812" on="0"/>
        <pt x="901" y="730" on="1"/>
        <pt x="852" y="795" on="1"/>
        <pt x="970" y="898" on="0"/>
      </contour>
    </TTGlyph>
    <TTGlyph name="onequarter" xMin="59" yMin="0" xMax="1392" yMax="1462">
      <contour>
        <pt x="425" y="586" on="1"/>
        <pt x="327" y="586" on="1"/>
        <pt x="327" y="1133" on="1"/>
        <pt x="327" y="1232" on="0"/>
        <pt x="339" y="1366" on="1"/>
        <pt x="311" y="1341" on="0"/>
        <pt x="106" y="1221" on="1"/>
        <pt x="59" y="1298" on="1"/>
        <pt x="333" y="1462" on="1"/>
        <pt x="425" y="1462" on="1"/>
      </contour>
      <contour>
        <pt x="337" y="0" on="1"/>
        <pt x="243" y="0" on="1"/>
        <pt x="1054" y="1462" on="1"/>
        <pt x="1148" y="1462" on="1"/>
      </contour>
      <contour>
        <pt x="1263" y="320" on="1"/>
        <pt x="1392" y="320" on="1"/>
        <pt x="1392" y="242" on="1"/>
        <pt x="1263" y="242" on="1"/>
        <pt x="1263" y="0" on="1"/>
        <pt x="1173" y="0" on="1"/>
        <pt x="1173" y="242" on="1"/>
        <pt x="760" y="242" on="1"/>
        <pt x="760" y="302" on="1"/>
        <pt x="1167" y="883" on="1"/>
        <pt x="1263" y="883" on="1"/>
      </contour>
      <contour>
        <pt x="1173" y="320" on="1"/>
        <pt x="1173" y="541" on="1"/>
        <pt x="1173" y="666" on="0"/>
        <pt x="1181" y="773" on="1"/>
        <pt x="1174" y="758" on="0"/>
        <pt x="1136" y="703" on="0"/>
        <pt x="864" y="320" on="1"/>
      </contour>
    </TTGlyph>
    <TTGlyph name="onesuperior" xMin="76" yMin="586" xMax="442" yMax="1462">
      <contour>
        <pt x="442" y="586" on="1"/>
        <pt x="344" y="586" on="1"/>
        <pt x="344" y="1133" on="1"/>
        <pt x="344" y="1232" on="0"/>
        <pt x="356" y="1366" on="1"/>
        <pt x="328" y="1341" on="0"/>
        <pt x="123" y="1221" on="1"/>
        <pt x="76" y="1298" on="1"/>
        <pt x="350" y="1462" on="1"/>
        <pt x="442" y="1462" on="1"/>
      </contour>
    </TTGlyph>
    <TTGlyph name="oslash" xMin="119" yMin="-35" xMax="1081" yMax="1128">
      <contour>
        <pt x="969" y="936" on="1"/>
        <pt x="1081" y="790" on="0"/>
        <pt x="1081" y="279" on="0"/>
        <pt x="824" y="-20" on="0"/>
        <pt x="596" y="-20" on="1"/>
        <pt x="424" y="-20" on="0"/>
        <pt x="305" y="78" on="1"/>
        <pt x="219" y="-35" on="1"/>
        <pt x="147" y="23" on="1"/>
        <pt x="240" y="143" on="1"/>
        <pt x="119" y="295" on="0"/>
        <pt x="119" y="810" on="0"/>
        <pt x="376" y="1108" on="0"/>
        <pt x="602" y="1108" on="1"/>
        <pt x="781" y="1108" on="0"/>
        <pt x="903" y="1004" on="1"/>
        <pt x="999" y="1128" on="1"/>
        <pt x="1073" y="1073" on="1"/>
      </contour>
      <contour>
        <pt x="598" y="1018" on="1"/>
        <pt x="418" y="1018" on="0"/>
        <pt x="223" y="771" on="0"/>
        <pt x="223" y="344" on="0"/>
        <pt x="301" y="223" on="1"/>
        <pt x="844" y="928" on="1"/>
        <pt x="746" y="1018" on="0"/>
      </contour>
      <contour>
        <pt x="600" y="70" on="1"/>
        <pt x="780" y="70" on="0"/>
        <pt x="977" y="320" on="0"/>
        <pt x="977" y="545" on="1"/>
        <pt x="977" y="736" on="0"/>
        <pt x="905" y="854" on="1"/>
        <pt x="362" y="152" on="1"/>
        <pt x="456" y="70" on="0"/>
      </contour>
    </TTGlyph>
    <TTGlyph name="otilde" xMin="119" yMin="-20" xMax="1081" yMax="1481">
      <contour>
        <pt x="761" y="1243" on="1"/>
        <pt x="723" y="1243" on="0"/>
        <pt x="645" y="1282" on="0"/>
        <pt x="558" y="1355" on="0"/>
        <pt x="542" y="1366" on="1"/>
        <pt x="497" y="1399" on="0"/>
        <pt x="414" y="1399" on="0"/>
        <pt x="355" y="1328" on="0"/>
        <pt x="337" y="1243" on="1"/>
        <pt x="264" y="1243" on="1"/>
        <pt x="274" y="1354" on="0"/>
        <pt x="380" y="1481" on="0"/>
        <pt x="464" y="1481" on="1"/>
        <pt x="494" y="1481" on="0"/>
        <pt x="557" y="1455" on="0"/>
        <pt x="598" y="1426" on="0"/>
        <pt x="663" y="1373" on="0"/>
        <pt x="680" y="1360" on="1"/>
        <pt x="726" y="1325" on="0"/>
        <pt x="761" y="1325" on="1"/>
        <pt x="854" y="1325" on="0"/>
        <pt x="886" y="1481" on="1"/>
        <pt x="962" y="1481" on="1"/>
        <pt x="946" y="1366" on="0"/>
        <pt x="841" y="1243" on="0"/>
      </contour>
      <contour>
        <pt x="119" y="810" on="0"/>
        <pt x="376" y="1108" on="0"/>
        <pt x="826" y="1108" on="0"/>
        <pt x="1081" y="807" on="0"/>
        <pt x="1081" y="279" on="0"/>
        <pt x="824" y="-20" on="0"/>
        <pt x="596" y="-20" on="1"/>
        <pt x="452" y="-20" on="0"/>
        <pt x="235" y="118" on="0"/>
        <pt x="119" y="375" on="0"/>
        <pt x="119" y="545" on="1"/>
      </contour>
      <contour>
        <pt x="778" y="1018" on="0"/>
        <pt x="418" y="1018" on="0"/>
        <pt x="223" y="771" on="0"/>
        <pt x="223" y="320" on="0"/>
        <pt x="420" y="70" on="0"/>
        <pt x="780" y="70" on="0"/>
        <pt x="977" y="320" on="0"/>
        <pt x="977" y="770" on="0"/>
      </contour>
    </TTGlyph>
    <TTGlyph name="overscore" xMin="-6" yMin="1556" xMax="1030" yMax="1638">
      <contour>
        <pt x="1030" y="1556" on="1"/>
        <pt x="-6" y="1556" on="1"/>
        <pt x="-6" y="1638" on="1"/>
        <pt x="1030" y="1638" on="1"/>
      </contour>
    </TTGlyph>
    <TTGlyph name="p" xMin="182" yMin="-492" xMax="1100" yMax="1108">
      <contour>
        <pt x="649" y="1108" on="1"/>
        <pt x="869" y="1108" on="0"/>
        <pt x="1100" y="819" on="0"/>
        <pt x="1100" y="276" on="0"/>
        <pt x="857" y="-20" on="0"/>
        <pt x="647" y="-20" on="1"/>
        <pt x="397" y="-20" on="0"/>
        <pt x="281" y="168" on="1"/>
        <pt x="274" y="168" on="1"/>
        <pt x="277" y="84" on="1"/>
        <pt x="281" y="19" on="0"/>
        <pt x="281" y="-78" on="1"/>
        <pt x="281" y="-492" on="1"/>
        <pt x="182" y="-492" on="1"/>
        <pt x="182" y="1087" on="1"/>
        <pt x="266" y="1087" on="1"/>
        <pt x="285" y="932" on="1"/>
        <pt x="291" y="932" on="1"/>
        <pt x="404" y="1108" on="0"/>
      </contour>
      <contour>
        <pt x="281" y="573" on="1"/>
        <pt x="281" y="541" on="1"/>
        <pt x="281" y="286" on="0"/>
        <pt x="451" y="68" on="0"/>
        <pt x="645" y="68" on="1"/>
        <pt x="812" y="68" on="0"/>
        <pt x="994" y="316" on="0"/>
        <pt x="994" y="539" on="1"/>
        <pt x="994" y="1018" on="0"/>
        <pt x="649" y="1018" on="1"/>
        <pt x="460" y="1018" on="0"/>
        <pt x="281" y="809" on="0"/>
      </contour>
    </TTGlyph>
    <TTGlyph name="paragraph" xMin="113" yMin="-260" xMax="1106" yMax="1556">
      <contour>
        <pt x="1106" y="-260" on="1"/>
        <pt x="1006" y="-260" on="1"/>
        <pt x="1006" y="1462" on="1"/>
        <pt x="778" y="1462" on="1"/>
        <pt x="778" y="-260" on="1"/>
        <pt x="678" y="-260" on="1"/>
        <pt x="678" y="559" on="1"/>
        <pt x="614" y="541" on="0"/>
        <pt x="532" y="541" on="1"/>
        <pt x="317" y="541" on="0"/>
        <pt x="113" y="789" on="0"/>
        <pt x="113" y="1303" on="0"/>
        <pt x="332" y="1556" on="0"/>
        <pt x="563" y="1556" on="1"/>
        <pt x="1106" y="1556" on="1"/>
      </contour>
    </TTGlyph>
    <TTGlyph name="parenleft" xMin="82" yMin="-324" xMax="496" yMax="1462">
      <contour>
        <pt x="190" y="563" on="1"/>
        <pt x="190" y="79" on="0"/>
        <pt x="494" y="-324" on="1"/>
        <pt x="383" y="-324" on="1"/>
        <pt x="236" y="-153" on="0"/>
        <pt x="82" y="300" on="0"/>
        <pt x="82" y="826" on="0"/>
        <pt x="237" y="1288" on="0"/>
        <pt x="383" y="1462" on="1"/>
        <pt x="496" y="1462" on="1"/>
        <pt x="350" y="1283" on="0"/>
        <pt x="190" y="821" on="0"/>
      </contour>
    </TTGlyph>
    <TTGlyph name="parenright" xMin="61" yMin="-324" xMax="475" yMax="1462">
      <contour>
        <pt x="174" y="1462" on="1"/>
        <pt x="322" y="1285" on="0"/>
        <pt x="475" y="822" on="0"/>
        <pt x="475" y="298" on="0"/>
        <pt x="321" y="-155" on="0"/>
        <pt x="174" y="-324" on="1"/>
        <pt x="63" y="-324" on="1"/>
        <pt x="367" y="79" on="0"/>
        <pt x="367" y="563" on="1"/>
        <pt x="367" y="822" on="0"/>
        <pt x="208" y="1282" on="0"/>
        <pt x="61" y="1462" on="1"/>
      </contour>
    </TTGlyph>
    <TTGlyph name="pedageshhb" xMin="119" yMin="-20" xMax="1071" yMax="1310">
      <contour>
        <pt x="485" y="441" on="1"/>
        <pt x="326" y="441" on="0"/>
        <pt x="119" y="674" on="0"/>
        <pt x="119" y="859" on="1"/>
        <pt x="119" y="968" on="0"/>
        <pt x="201" y="1144" on="0"/>
        <pt x="268" y="1198" on="1"/>
        <pt x="407" y="1310" on="0"/>
        <pt x="587" y="1310" on="1"/>
        <pt x="817" y="1310" on="0"/>
        <pt x="1071" y="984" on="0"/>
        <pt x="1071" y="306" on="0"/>
        <pt x="817" y="-20" on="0"/>
        <pt x="587" y="-20" on="1"/>
        <pt x="414" y="-20" on="0"/>
        <pt x="300" y="-5" on="1"/>
        <pt x="262" y="0" on="1"/>
        <pt x="262" y="89" on="1"/>
        <pt x="427" y="70" on="0"/>
        <pt x="586" y="70" on="1"/>
        <pt x="673" y="70" on="0"/>
        <pt x="806" y="128" on="0"/>
        <pt x="890" y="227" on="0"/>
        <pt x="942" y="376" on="0"/>
        <pt x="963" y="542" on="0"/>
        <pt x="963" y="748" on="0"/>
        <pt x="942" y="913" on="0"/>
        <pt x="890" y="1062" on="0"/>
        <pt x="806" y="1162" on="0"/>
        <pt x="673" y="1220" on="0"/>
        <pt x="505" y="1220" on="0"/>
        <pt x="372" y="1173" on="0"/>
        <pt x="288" y="1098" on="0"/>
        <pt x="260" y="1050" on="1"/>
        <pt x="207" y="960" on="0"/>
        <pt x="207" y="859" on="1"/>
        <pt x="207" y="710" on="0"/>
        <pt x="365" y="520" on="0"/>
        <pt x="492" y="520" on="1"/>
        <pt x="506" y="520" on="1"/>
        <pt x="490" y="441" on="1"/>
      </contour>
      <contour>
        <pt x="593" y="922" on="1"/>
        <pt x="657" y="922" on="0"/>
        <pt x="657" y="772" on="0"/>
        <pt x="593" y="772" on="1"/>
        <pt x="532" y="772" on="0"/>
        <pt x="532" y="922" on="0"/>
      </contour>
    </TTGlyph>
    <TTGlyph name="percent" xMin="113" yMin="-23" xMax="1540" yMax="1483">
      <contour>
        <pt x="113" y="1249" on="0"/>
        <pt x="257" y="1483" on="0"/>
        <pt x="536" y="1483" on="0"/>
        <pt x="688" y="1243" on="0"/>
        <pt x="688" y="801" on="0"/>
        <pt x="538" y="565" on="0"/>
        <pt x="264" y="565" on="0"/>
        <pt x="113" y="807" on="0"/>
      </contour>
      <contour>
        <pt x="469" y="0" on="1"/>
        <pt x="373" y="0" on="1"/>
        <pt x="1184" y="1462" on="1"/>
        <pt x="1280" y="1462" on="1"/>
      </contour>
      <contour>
        <pt x="590" y="1209" on="0"/>
        <pt x="491" y="1395" on="0"/>
        <pt x="302" y="1395" on="0"/>
        <pt x="211" y="1211" on="0"/>
        <pt x="211" y="838" on="0"/>
        <pt x="302" y="653" on="0"/>
        <pt x="397" y="653" on="1"/>
        <pt x="590" y="653" on="0"/>
        <pt x="590" y="1026" on="1"/>
      </contour>
      <contour>
        <pt x="965" y="662" on="0"/>
        <pt x="1112" y="895" on="0"/>
        <pt x="1388" y="895" on="0"/>
        <pt x="1540" y="656" on="0"/>
        <pt x="1540" y="212" on="0"/>
        <pt x="1392" y="-23" on="0"/>
        <pt x="1115" y="-23" on="0"/>
        <pt x="965" y="218" on="0"/>
      </contour>
      <contour>
        <pt x="1249" y="807" on="1"/>
        <pt x="1154" y="807" on="0"/>
        <pt x="1063" y="625" on="0"/>
        <pt x="1063" y="251" on="0"/>
        <pt x="1154" y="68" on="0"/>
        <pt x="1249" y="68" on="1"/>
        <pt x="1442" y="68" on="0"/>
        <pt x="1442" y="807" on="0"/>
      </contour>
    </TTGlyph>
    <TTGlyph name="period" xMin="162" yMin="-20" xMax="324" yMax="176">
      <contour>
        <pt x="242" y="176" on="1"/>
        <pt x="324" y="176" on="0"/>
        <pt x="324" y="-20" on="0"/>
        <pt x="242" y="-20" on="1"/>
        <pt x="162" y="-20" on="0"/>
        <pt x="162" y="176" on="0"/>
      </contour>
    </TTGlyph>
    <TTGlyph name="periodcentered" xMin="162" yMin="623" xMax="324" yMax="819">
      <contour>
        <pt x="242" y="819" on="1"/>
        <pt x="324" y="819" on="0"/>
        <pt x="324" y="623" on="0"/>
        <pt x="242" y="623" on="1"/>
        <pt x="162" y="623" on="0"/>
        <pt x="162" y="819" on="0"/>
      </contour>
    </TTGlyph>
    <TTGlyph name="perthousand" xMin="113" yMin="-23" xMax="2218" yMax="1483">
      <contour>
        <pt x="113" y="1249" on="0"/>
        <pt x="257" y="1483" on="0"/>
        <pt x="536" y="1483" on="0"/>
        <pt x="688" y="1243" on="0"/>
        <pt x="688" y="801" on="0"/>
        <pt x="538" y="565" on="0"/>
        <pt x="264" y="565" on="0"/>
        <pt x="113" y="807" on="0"/>
      </contour>
      <contour>
        <pt x="469" y="0" on="1"/>
        <pt x="373" y="0" on="1"/>
        <pt x="1184" y="1462" on="1"/>
        <pt x="1280" y="1462" on="1"/>
      </contour>
      <contour>
        <pt x="590" y="1209" on="0"/>
        <pt x="491" y="1395" on="0"/>
        <pt x="302" y="1395" on="0"/>
        <pt x="211" y="1211" on="0"/>
        <pt x="211" y="838" on="0"/>
        <pt x="302" y="653" on="0"/>
        <pt x="397" y="653" on="1"/>
        <pt x="590" y="653" on="0"/>
        <pt x="590" y="1026" on="1"/>
      </contour>
      <contour>
        <pt x="965" y="662" on="0"/>
        <pt x="1112" y="895" on="0"/>
        <pt x="1388" y="895" on="0"/>
        <pt x="1540" y="656" on="0"/>
        <pt x="1540" y="212" on="0"/>
        <pt x="1392" y="-23" on="0"/>
        <pt x="1115" y="-23" on="0"/>
        <pt x="965" y="218" on="0"/>
      </contour>
      <contour>
        <pt x="1642" y="663" on="0"/>
        <pt x="1788" y="895" on="0"/>
        <pt x="2066" y="895" on="0"/>
        <pt x="2218" y="656" on="0"/>
        <pt x="2218" y="212" on="0"/>
        <pt x="2070" y="-23" on="0"/>
        <pt x="1795" y="-23" on="0"/>
        <pt x="1718" y="96" on="1"/>
        <pt x="1642" y="218" on="0"/>
      </contour>
      <contour>
        <pt x="1249" y="807" on="1"/>
        <pt x="1154" y="807" on="0"/>
        <pt x="1063" y="625" on="0"/>
        <pt x="1063" y="251" on="0"/>
        <pt x="1154" y="68" on="0"/>
        <pt x="1249" y="68" on="1"/>
        <pt x="1442" y="68" on="0"/>
        <pt x="1442" y="807" on="0"/>
      </contour>
      <contour>
        <pt x="1927" y="807" on="1"/>
        <pt x="1832" y="807" on="0"/>
        <pt x="1741" y="625" on="0"/>
        <pt x="1741" y="251" on="0"/>
        <pt x="1832" y="68" on="0"/>
        <pt x="1927" y="68" on="1"/>
        <pt x="2120" y="68" on="0"/>
        <pt x="2120" y="807" on="0"/>
      </contour>
    </TTGlyph>
    <TTGlyph name="plus" xMin="111" yMin="250" xMax="1059" yMax="1198">
      <contour>
        <pt x="625" y="764" on="1"/>
        <pt x="1059" y="764" on="1"/>
        <pt x="1059" y="682" on="1"/>
        <pt x="625" y="682" on="1"/>
        <pt x="625" y="250" on="1"/>
        <pt x="543" y="250" on="1"/>
        <pt x="543" y="682" on="1"/>
        <pt x="111" y="682" on="1"/>
        <pt x="111" y="764" on="1"/>
        <pt x="543" y="764" on="1"/>
        <pt x="543" y="1198" on="1"/>
        <pt x="625" y="1198" on="1"/>
      </contour>
    </TTGlyph>
    <TTGlyph name="plusminus" xMin="111" yMin="0" xMax="1059" yMax="1198">
      <contour>
        <pt x="625" y="764" on="1"/>
        <pt x="1059" y="764" on="1"/>
        <pt x="1059" y="682" on="1"/>
        <pt x="625" y="682" on="1"/>
        <pt x="625" y="250" on="1"/>
        <pt x="543" y="250" on="1"/>
        <pt x="543" y="682" on="1"/>
        <pt x="111" y="682" on="1"/>
        <pt x="111" y="764" on="1"/>
        <pt x="543" y="764" on="1"/>
        <pt x="543" y="1198" on="1"/>
        <pt x="625" y="1198" on="1"/>
      </contour>
      <contour>
        <pt x="1059" y="0" on="1"/>
        <pt x="111" y="0" on="1"/>
        <pt x="111" y="83" on="1"/>
        <pt x="1059" y="83" on="1"/>
      </contour>
    </TTGlyph>
    <TTGlyph name="q" xMin="119" yMin="-492" xMax="1036" yMax="1108">
      <contour>
        <pt x="569" y="-20" on="1"/>
        <pt x="354" y="-20" on="0"/>
        <pt x="119" y="266" on="0"/>
        <pt x="119" y="808" on="0"/>
        <pt x="355" y="1108" on="0"/>
        <pt x="575" y="1108" on="1"/>
        <pt x="811" y="1108" on="0"/>
        <pt x="928" y="934" on="1"/>
        <pt x="934" y="934" on="1"/>
        <pt x="952" y="1087" on="1"/>
        <pt x="1036" y="1087" on="1"/>
        <pt x="1036" y="-492" on="1"/>
        <pt x="938" y="-492" on="1"/>
        <pt x="938" y="-78" on="1"/>
        <pt x="938" y="44" on="0"/>
        <pt x="944" y="170" on="1"/>
        <pt x="938" y="170" on="1"/>
        <pt x="820" y="-20" on="0"/>
      </contour>
      <contour>
        <pt x="938" y="543" on="1"/>
        <pt x="938" y="555" on="1"/>
        <pt x="938" y="800" on="0"/>
        <pt x="853" y="909" on="1"/>
        <pt x="767" y="1018" on="0"/>
        <pt x="406" y="1018" on="0"/>
        <pt x="223" y="770" on="0"/>
        <pt x="223" y="302" on="0"/>
        <pt x="401" y="68" on="0"/>
        <pt x="571" y="68" on="1"/>
        <pt x="769" y="68" on="0"/>
        <pt x="938" y="286" on="0"/>
      </contour>
    </TTGlyph>
    <TTGlyph name="qofdageshhb" xMin="182" yMin="-492" xMax="1092" yMax="1290">
      <contour>
        <pt x="783" y="17" on="1"/>
        <pt x="783" y="0" on="1"/>
        <pt x="683" y="0" on="1"/>
        <pt x="683" y="17" on="1"/>
        <pt x="683" y="56" on="0"/>
        <pt x="692" y="101" on="1"/>
        <pt x="706" y="174" on="1"/>
        <pt x="717" y="227" on="0"/>
        <pt x="775" y="439" on="0"/>
        <pt x="786" y="481" on="0"/>
        <pt x="815" y="581" on="0"/>
        <pt x="818" y="593" on="1"/>
        <pt x="990" y="1202" on="1"/>
        <pt x="182" y="1202" on="1"/>
        <pt x="182" y="1290" on="1"/>
        <pt x="1092" y="1290" on="1"/>
        <pt x="1092" y="1202" on="1"/>
        <pt x="920" y="593" on="1"/>
        <pt x="908" y="552" on="0"/>
        <pt x="875" y="432" on="0"/>
        <pt x="849" y="340" on="0"/>
        <pt x="834" y="280" on="0"/>
        <pt x="813" y="198" on="0"/>
        <pt x="801" y="141" on="0"/>
        <pt x="795" y="110" on="1"/>
        <pt x="783" y="48" on="0"/>
      </contour>
      <contour>
        <pt x="183" y="-492" on="1"/>
        <pt x="183" y="759" on="1"/>
        <pt x="285" y="759" on="1"/>
        <pt x="285" y="-492" on="1"/>
      </contour>
      <contour>
        <pt x="566" y="741" on="1"/>
        <pt x="630" y="741" on="0"/>
        <pt x="630" y="591" on="0"/>
        <pt x="566" y="591" on="1"/>
        <pt x="505" y="591" on="0"/>
        <pt x="505" y="741" on="0"/>
      </contour>
    </TTGlyph>
</ttFont>
